<?xml version="1.0" encoding="UTF-8" standalone="no"?>
<!-- Created with Inkscape (http://www.inkscape.org/) -->

<svg
   version="1.1"
   id="svg2"
   xml:space="preserve"
   width="1033.2556"
   height="1238.1158"
   viewBox="0 0 1033.2556 1238.1158"
   sodipodi:docname="mural_3emerging.svg"
   inkscape:version="1.1.1 (eb90963e84, 2021-10-02)"
   xmlns:inkscape="http://www.inkscape.org/namespaces/inkscape"
   xmlns:sodipodi="http://sodipodi.sourceforge.net/DTD/sodipodi-0.dtd"
   xmlns="http://www.w3.org/2000/svg"
   xmlns:svg="http://www.w3.org/2000/svg"><defs
     id="defs6" /><sodipodi:namedview
     id="namedview4"
     pagecolor="#ffffff"
     bordercolor="#666666"
     borderopacity="1.0"
     inkscape:pageshadow="2"
     inkscape:pageopacity="0.0"
     inkscape:pagecheckerboard="0"
     showgrid="false"
     inkscape:zoom="0.56752268"
     inkscape:cx="635.2169"
     inkscape:cy="642.26508"
     inkscape:window-width="2560"
     inkscape:window-height="1376"
     inkscape:window-x="0"
     inkscape:window-y="0"
     inkscape:window-maximized="1"
     inkscape:current-layer="g8"
     fit-margin-top="0"
     fit-margin-left="0"
     fit-margin-right="0"
     fit-margin-bottom="0" /><g
     id="g8"
     inkscape:groupmode="layer"
     inkscape:label="mural (another copy)"
     transform="matrix(1.3333333,0,0,1.3333333,-39.446386,-10.524084)"><path
       d="M 29.58479,7.8930631 H 804.5265 V 936.47996 H 29.58479 Z"
       style="fill:#fafafa;fill-opacity:1;fill-rule:evenodd;stroke:none;stroke-width:0.999999"
       id="path12" /><g
       id="g3643"
       transform="translate(-1886.6744,-872.24283)"><path
         d="m 1948.98,1140.5556 h 714.7693 v 636.6989 H 1948.98 Z"
         style="fill:none;stroke:#81b0f3;stroke-width:7;stroke-linecap:butt;stroke-linejoin:miter;stroke-miterlimit:10;stroke-dasharray:none;stroke-opacity:1"
         id="path518" /><path
         d="m 2404.723,1300.664 h 204.344 v 204.344 h -204.344 z"
         style="fill:#c7fe80;fill-opacity:1;fill-rule:evenodd;stroke:none"
         id="path520" /><text
         style="font-variant:normal;font-weight:normal;font-size:20.1112px;font-family:'DejaVu Sans';-inkscape-font-specification:DejaVuSans;writing-mode:lr-tb;fill:#000000;fill-opacity:1;fill-rule:nonzero;stroke:none"
         id="text534"
         x="2420.8193"
         y="1347.8627"><tspan
           x="2420.8193 2430.7544 2442.2378 2446.7427 2451.2275 2461.8059 2473.3499 2484.8333 2491.47 2502.0486 2507.9612 2512.446 2522.2805 2533.603 2538.7715 2550.2551 2561.3162 2565.821 2570.3262 2581.3872"
           y="1347.8627"
           sodipodi:role="line"
           id="tspan522">collaborative online</tspan><tspan
           x="2418.5806 2433.322 2444.8054 2451.4221 2461.7593 2466.3647 2471.5332 2480.8647 2486.7776 2497.8386 2509.3826 2520.4436 2531.7461 2537.6589 2546.9905 2552.1589 2563.2402 2573.8188 2583.6531"
           y="1372.3535"
           sodipodi:role="line"
           id="tspan524">work, studnets have</tspan><tspan
           x="2419.7393 2430.8003 2442.2839 2457.0254 2462.1938 2468.1067 2479.5901 2484.7588 2496.3025 2507.605 2512.7737 2524.2974 2530.9341 2542.2366 2553.7603 2564.3386 2570.9753 2582.2981"
           y="1396.8444"
           sodipodi:role="line"
           id="tspan526">now to be prepared</tspan><tspan
           x="2424.9241 2430.6155 2442.0991 2448.7156 2453.8843 2463.8191 2475.3027 2491.5325 2503.0562 2514.5396 2519.0444 2529.7236 2539.4775 2544.646 2550.5386 2561.8613 2572.4397"
           y="1421.3352"
           sodipodi:role="line"
           id="tspan528">for compolex team</tspan><tspan
           x="2442.2661 2457.0076 2468.4912 2475.1077 2485.4448 2490.6135 2502.0969 2513.158 2518.3267 2528.1611 2532.666 2539.2825 2545.1953 2556.2563 2566.835"
           y="1445.826"
           sodipodi:role="line"
           id="tspan530">work on virtual</tspan><tspan
           x="2465.9124 2477.436 2481.9412 2492.5195 2498.4321 2504.1035 2515.5872 2522.2239 2538.4536"
           y="1470.317"
           sodipodi:role="line"
           id="tspan532">platforms</tspan></text><path
         d="m 2404.723,1525.008 h 221.676 v 221.672 h -221.676 z"
         style="fill:#c7fe80;fill-opacity:1;fill-rule:evenodd;stroke:none"
         id="path536" /><text
         style="font-variant:normal;font-weight:normal;font-size:20.0962px;font-family:'DejaVu Sans';-inkscape-font-specification:DejaVuSans;writing-mode:lr-tb;fill:#000000;fill-opacity:1;fill-rule:nonzero;stroke:none"
         id="text554"
         x="2476.2229"
         y="1556.4398"><tspan
           x="2476.2229 2493.144 2504.4583 2509.6228 2520.6758 2531.97 2543.2839"
           y="1556.4398"
           sodipodi:role="line"
           id="tspan538">We need</tspan><tspan
           x="2445.176 2461.3936 2472.4465 2476.948 2482.8562 2487.3579 2498.8931 2503.3945 2512.6992 2522.6267 2527.1282 2538.6433 2543.145 2547.6465 2558.6995 2569.27 2575.8816"
           y="1580.9124"
           sodipodi:role="line"
           id="tspan540">multidisciplinary</tspan><tspan
           x="2454.2478 2465.7627 2472.3745 2483.8494 2495.3645 2501.9963 2512.5669 2528.7844 2538.1091 2543.2739 2549.1821 2560.2551 2570.8257"
           y="1605.3851"
           sodipodi:role="line"
           id="tspan542">programs that</tspan><tspan
           x="2422.1948 2426.6963 2437.7493 2443.6575 2450.2693 2461.7441 2473.2793 2484.3323 2494.2598 2505.574 2510.7185 2520.0432 2525.9514 2537.0044 2548.5396 2559.8538 2570.9067 2576.8149 2586.1396 2591.3044 2597.1926"
           y="1629.8577"
           sodipodi:role="line"
           id="tspan544">introduce students to</tspan><tspan
           x="2413.7756 2423.1003 2434.6155 2445.186 2451.0942 2455.5957 2466.1665 2470.6479 2475.8125 2486.3833 2497.436 2508.9714 2514.136 2525.189 2531.8208 2543.356 2553.9265 2564.9795 2570.144 2580.353 2591.6672 2596.1687 2607.7039"
           y="1654.3302"
           sodipodi:role="line"
           id="tspan546">spatial and urban felds</tspan><tspan
           x="2450.9998 2461.5703 2470.895 2476.0596 2490.7903 2502.1042 2506.5857 2511.0874 2516.2522 2526.8228 2536.1472 2541.312 2552.8472 2563.418 2569.3262"
           y="1678.8029"
           sodipodi:role="line"
           id="tspan548">as well as data</tspan><tspan
           x="2437.7478 2448.3184 2459.3713 2469.9419 2474.4434 2484.2705 2493.5952 2498.0767 2507.4011 2512.0032 2517.168 2528.7031 2533.2048 2544.72 2549.8845 2561.4199 2571.9905 2577.8987 2588.4692"
           y="1703.2755"
           sodipodi:role="line"
           id="tspan550">analysis, big data,</tspan><tspan
           x="2437.9392 2447.8667 2459.3416 2475.5593 2487.0745 2498.1272 2504.0356 2514.6062 2520.5144 2525.0159 2536.491 2547.5439 2552.1458 2556.7478 2561.2092 2572.5234 2578.4316 2588.3591"
           y="1727.7482"
           sodipodi:role="line"
           id="tspan552">computation...etc.</tspan></text><path
         d="m 1997.957,1532.797 h 173.879 v 173.883 h -173.879 z"
         style="fill:#c7fe80;fill-opacity:1;fill-rule:evenodd;stroke:none"
         id="path556" /><text
         style="font-variant:normal;font-weight:normal;font-size:19.362px;font-family:'DejaVu Sans';-inkscape-font-specification:DejaVuSans;writing-mode:lr-tb;fill:#000000;fill-opacity:1;fill-rule:nonzero;stroke:none"
         id="text570"
         x="2011.2954"
         y="1566.8142"><tspan
           x="2011.2954 2022.3899 2028.76 2039.8157 2050.9294 2055.2666 2066.1672 2081.7925 2087.5818 2096.5657 2107.6213 2111.9585 2121.4265 2125.7637 2136.4126 2147.5071 2152.4832"
           y="1566.8142"
           sodipodi:role="line"
           id="tspan558">problem-solving -</tspan><tspan
           x="2037.3652 2048.479 2059.3796 2068.8477 2079.7292 2084.0664 2095.1221 2106.2163 2110.5535 2121.2026"
           y="1590.3927"
           sodipodi:role="line"
           id="tspan560">developing</tspan><tspan
           x="2027.7268 2037.2915 2048.3472 2058.9963 2068.8516 2079.946 2090.8469 2101.4958 2111.0608 2121.9614 2126.9375 2131.2747"
           y="1613.9713"
           sodipodi:role="line"
           id="tspan562">confdence in</tspan><tspan
           x="2023.061 2036.8469 2051.6587 2066.4514 2080.2371 2090.1118 2094.72 2108.4087 2122.1946 2126.6284 2131.6045 2135.9417"
           y="1637.5498"
           sodipodi:role="line"
           id="tspan564">GOOGLING, in</tspan><tspan
           x="2016.2305 2026.5117 2035.9023 2046.9966 2057.8782 2064.2676 2068.6047 2084.2297 2095.1306 2105.7798 2111.4722 2121.6565 2127.3491 2131.6667 2142.3159"
           y="1661.1284"
           sodipodi:role="line"
           id="tspan566">experimentating</tspan><tspan
           x="2028.4688 2042.6611 2046.9983 2052.6907 2063.3591 2068.3352 2077.2998 2088.3555 2093.835 2099.5273 2113.7197 2123.9041 2130.2742"
           y="1684.707"
           sodipodi:role="line"
           id="tspan568">with software</tspan></text><path
         d="m 2197.59,1300.664 h 187.133 v 187.133 H 2197.59 Z"
         style="fill:#a2ef59;fill-opacity:1;fill-rule:evenodd;stroke:none"
         id="path578" /><text
         style="font-variant:normal;font-weight:normal;font-size:20.8114px;font-family:'DejaVu Sans';-inkscape-font-specification:DejaVuSans;writing-mode:lr-tb;fill:#000000;fill-opacity:1;fill-rule:nonzero;stroke:none"
         id="text590"
         x="2216.4988"
         y="1350.0154"><tspan
           x="2216.4988 2231.0669 2242.0137 2248.1321 2259.0789 2264.4275 2275.3743 2286.8206 2297.7673 2302.429 2312.585 2318.7036 2323.3652 2333.6462 2343.3027 2347.5898 2353.7083"
           y="1350.0154"
           sodipodi:role="line"
           id="tspan580">Data analytics,to</tspan><tspan
           x="2215.7214 2227.6672 2239.384 2244.7324 2261.5273 2273.4106 2280.2783 2291.9744 2297.323 2306.9795 2318.9043 2330.6211 2340.9021 2345.543 2356.136"
           y="1375.3591"
           sodipodi:role="line"
           id="tspan582">be more specifc</tspan><tspan
           x="2213.2522 2224.199 2230.3174 2234.9792 2246.6753 2257.6428 2267.2786 2273.397 2278.7456 2295.5613 2306.5081 2316.1646 2322.2622 2333.979 2340.8467 2345.4878 2356.9341"
           y="1400.7028"
           sodipodi:role="line"
           id="tspan584">atleast mastering</tspan><tspan
           x="2209.8582 2221.7415 2233.1875 2244.9045 2250.2529 2262.178 2269.0249 2280.9082 2292.833 2299.6799 2310.6477 2327.4424 2344.2581 2348.8989 2360.3452"
           y="1426.0463"
           sodipodi:role="line"
           id="tspan586">one programming</tspan><tspan
           x="2248.595 2253.2566 2264.2036 2275.6497 2287.5747 2299.021 2309.9678 2321.8928"
           y="1451.3899"
           sodipodi:role="line"
           id="tspan588">language</tspan></text><path
         d="m 1990.457,1300.664 h 187.133 v 187.133 h -187.133 z"
         style="fill:#a2ef59;fill-opacity:1;fill-rule:evenodd;stroke:none"
         id="path592" /><text
         style="font-variant:normal;font-weight:normal;font-size:24.585px;font-family:'DejaVu Sans';-inkscape-font-specification:DejaVuSans;writing-mode:lr-tb;fill:#000000;fill-opacity:1;fill-rule:nonzero;stroke:none"
         id="text596"
         x="2006.3142"
         y="1402.4888"><tspan
           x="2006.3142 2020.7456 2028.8341 2042.8721 2056.9592 2065.0723 2078.0042 2097.8442 2117.7087 2123.2158 2136.7375 2150.2593"
           y="1402.4888"
           sodipodi:role="line"
           id="tspan594">Programming?</tspan></text></g><text
       xml:space="preserve"
       id="text10207-6"
       x="408.16309"
       y="336.45789"
       style="font-size:48px"><tspan
         sodipodi:role="line"
         x="408.16309"
         y="336.45789"
         id="tspan67830-8"
         style="font-size:48px;text-align:center;text-anchor:middle">Emerging and future</tspan><tspan
         sodipodi:role="line"
         x="408.16309"
         y="396.45789"
         style="font-size:48px;text-align:center;text-anchor:middle"
         id="tspan4693">skills needed</tspan></text><text
       xml:space="preserve"
       id="text10207-0"
       x="417.04819"
       y="86.807762"><tspan
         sodipodi:role="line"
         id="tspan67824-9"
         x="417.04819"
         y="86.807762"><tspan
           sodipodi:role="line"
           id="tspan10211-6"
           style="font-size:48px;text-align:center;text-anchor:middle;stroke-width:0.75">Higher Education</tspan></tspan><tspan
         sodipodi:role="line"
         id="tspan67826-3"
         x="417.04819"
         y="146.80777"><tspan
           sodipodi:role="line"
           style="font-size:48px;text-align:center;text-anchor:middle;stroke-width:0.75"
           id="tspan67828-8">Quantitative Geography</tspan></tspan><tspan
         sodipodi:role="line"
         x="417.04819"
         y="206.80777"
         id="tspan67830-5"><tspan
           sodipodi:role="line"
           style="font-size:48px;text-align:center;text-anchor:middle;stroke-width:0.75"
           id="tspan67832-6">Methods Teaching (HEQGMT)</tspan></tspan></text></g></svg>
