<?xml version="1.0" encoding="UTF-8" standalone="no"?>
<!-- Created with Inkscape (http://www.inkscape.org/) -->

<svg
   version="1.1"
   id="svg2"
   xml:space="preserve"
   width="1151.202"
   height="1165.2169"
   viewBox="0 0 1151.202 1165.217"
   sodipodi:docname="mural_0covid.svg"
   inkscape:version="1.1.1 (eb90963e84, 2021-10-02)"
   xmlns:inkscape="http://www.inkscape.org/namespaces/inkscape"
   xmlns:sodipodi="http://sodipodi.sourceforge.net/DTD/sodipodi-0.dtd"
   xmlns="http://www.w3.org/2000/svg"
   xmlns:svg="http://www.w3.org/2000/svg"><defs
     id="defs6"><rect
       x="-745.7232"
       y="315.79133"
       width="201.46796"
       height="370.82449"
       id="rect11894" /><rect
       x="-414.883"
       y="1071.6902"
       width="176.48735"
       height="175.59668"
       id="rect175544" /><rect
       x="1175.7054"
       y="1088.5933"
       width="91.458328"
       height="121.73597"
       id="rect144486" /><rect
       x="889.3479"
       y="906.92261"
       width="177.68225"
       height="179.10378"
       id="rect120845" /><rect
       x="900.44708"
       y="907.33392"
       width="279.63623"
       height="93.548706"
       id="rect116665" /><rect
       x="728.9314"
       y="920.25824"
       width="181.09081"
       height="189.23935"
       id="rect81349" /><rect
       x="723.81372"
       y="927.6731"
       width="147.19456"
       height="101.46486"
       id="rect77433" /><rect
       x="-533.89252"
       y="252.08244"
       width="362.40292"
       height="294.89459"
       id="rect64145" /><rect
       x="-707.97003"
       y="669.96912"
       width="621.86389"
       height="326.79037"
       id="rect34359" /><rect
       x="-750.05261"
       y="235.61835"
       width="712.21686"
       height="57.242348"
       id="rect27973" /><rect
       x="215.47206"
       y="-220.70895"
       width="1077.3281"
       height="292.9389"
       id="rect10209" /><rect
       x="-707.97003"
       y="669.96912"
       width="842.93219"
       height="117.52237"
       id="rect34359-7" /></defs><sodipodi:namedview
     id="namedview4"
     pagecolor="#ffffff"
     bordercolor="#666666"
     borderopacity="1.0"
     inkscape:pageshadow="2"
     inkscape:pageopacity="0.0"
     inkscape:pagecheckerboard="0"
     showgrid="false"
     inkscape:zoom="0.5675227"
     inkscape:cx="567.37819"
     inkscape:cy="721.55704"
     inkscape:window-width="2560"
     inkscape:window-height="1376"
     inkscape:window-x="0"
     inkscape:window-y="0"
     inkscape:window-maximized="1"
     inkscape:current-layer="g8"
     fit-margin-top="0"
     fit-margin-left="0"
     fit-margin-right="0"
     fit-margin-bottom="0" /><g
     id="g8"
     inkscape:groupmode="layer"
     inkscape:label="mural_covid"
     transform="matrix(1.3333333,0,0,1.3333333,-944.22992,-39.999999)"><path
       d="M 708.17246,30 H 1571.574 V 903.91271 H 708.17246 Z"
       style="fill:#fafafa;fill-opacity:1;fill-rule:evenodd;stroke:none;stroke-width:0.999995"
       id="path12" /><path
       d="M 728.16072,231.879 H 1553.1566 V 617.37652 H 728.16072 Z"
       style="fill:none;stroke:#81b0f3;stroke-width:7.00002;stroke-linecap:butt;stroke-linejoin:miter;stroke-miterlimit:10;stroke-dasharray:none;stroke-opacity:1"
       id="path602" /><path
       d="m 1065.0237,455.148 h 138 v 138 h -138 z"
       style="fill:#ffc2e8;fill-opacity:1;fill-rule:evenodd;stroke:none"
       id="path604" /><path
       d="m 749.02372,300.141 h 138 v 138 h -138 z"
       style="fill:#ffe08a;fill-opacity:1;fill-rule:evenodd;stroke:none"
       id="path616" /><text
       style="font-variant:normal;font-weight:normal;font-size:23px;font-family:'DejaVu Sans';-inkscape-font-specification:DejaVuSans;writing-mode:lr-tb;fill:#000000;fill-opacity:1;fill-rule:nonzero;stroke:none"
       id="text622"
       x="779.18396"
       y="362.29163"><tspan
         x="779.18396 792.45496 805.40399 823.98798 837.12097 843.85999"
         y="362.29163"
         sodipodi:role="line"
         id="tspan618">Remote</tspan><tspan
         x="774.56262 781.32465 794.27362 806.37164 817.71063 830.38361 835.53564 848.18561"
         y="390.30042"
         sodipodi:role="line"
         id="tspan620">teaching</tspan></text><path
       d="m 907.02372,300.141 h 137.99998 v 138 H 907.02372 Z"
       style="fill:#ffe08a;fill-opacity:1;fill-rule:evenodd;stroke:none"
       id="path624" /><text
       style="font-variant:normal;font-weight:normal;font-size:23px;font-family:'DejaVu Sans';-inkscape-font-specification:DejaVuSans;writing-mode:lr-tb;fill:#000000;fill-opacity:1;fill-rule:nonzero;stroke:none"
       id="text632"
       x="939.87927"
       y="348.28723"><tspan
         x="939.87927 951.26428 963.38525 974.7243 986.54626 992.45728 1005.5903"
         y="348.28723"
         sodipodi:role="line"
         id="tspan626">Lack of</tspan><tspan
         x="938.16663 948.83862 955.60065 968.25061 981.45264 994.3786 1007.0286"
         y="376.29602"
         sodipodi:role="line"
         id="tspan628">student</tspan><tspan
         x="931.5238 943.62183 950.38379 957.14581 970.09479 982.74481 989.48383 994.6358 1007.7688"
         y="404.30487"
         sodipodi:role="line"
         id="tspan630">attention</tspan></text><path
       d="m 749.02372,458.141 h 138 v 138 h -138 z"
       style="fill:#ffe08a;fill-opacity:1;fill-rule:evenodd;stroke:none"
       id="path634" /><text
       style="font-variant:normal;font-weight:normal;font-size:19.5625px;font-family:'DejaVu Sans';-inkscape-font-specification:DejaVuSans;writing-mode:lr-tb;fill:#000000;fill-opacity:1;fill-rule:nonzero;stroke:none"
       id="text644"
       x="774.28119"
       y="497.49286"><tspan
         x="774.28119 778.93701 789.69641 799.98627 811.21515 815.59717 819.95959 824.34161 830.09296 839.65906 844.68658 850.43799"
         y="497.49286"
         sodipodi:role="line"
         id="tspan636">Inability to</tspan><tspan
         x="771.19586 777.6319 788.64563 797.7226 808.93195 820.10211 830.86151 842.09039 847.11792 858.28809"
         y="521.31555"
         sodipodi:role="line"
         id="tspan638">respond or</tspan><tspan
         x="760.04388 770.82281 781.83655 786.19897 797.40826 802.43585 811.51282 817.26422 828.02362 839.25244 850.26617 861.02551 866.77692"
         y="545.13824"
         sodipodi:role="line"
         id="tspan640">help students</tspan><tspan
         x="776.97961 787.99329 803.48682 813.1507 817.51312 828.52679 839.28619 845.03754 849.41956"
         y="568.96094"
         sodipodi:role="line"
         id="tspan642">efciently</tspan></text><path
       d="m 907.02372,455.148 h 137.99998 v 138 H 907.02372 Z"
       style="fill:#ffe08a;fill-opacity:1;fill-rule:evenodd;stroke:none"
       id="path646" /><text
       style="font-variant:normal;font-weight:normal;font-size:16.125px;font-family:'DejaVu Sans';-inkscape-font-specification:DejaVuSans;writing-mode:lr-tb;fill:#000000;fill-opacity:1;fill-rule:nonzero;stroke:none"
       id="text658"
       x="943.53442"
       y="489.89044"><tspan
         x="943.53442 952.69342 957.43414 966.30292 975.55865 984.63702 993.5058 998.23041 1000.9555"
         y="489.89044"
         sodipodi:role="line"
         id="tspan648">Student's</tspan><tspan
         x="933.96021 941.9259 951.1333 960.00208 963.61407 972.8537 981.64178 984.81842 989.5592 993.70331 1002.1851 1009.6671"
         y="509.52704"
         sodipodi:role="line"
         id="tspan650">couldn't ask</tspan><tspan
         x="938.09772 947.17609 955.65784 963.6236 972.50848 976.65259 985.85999 990.58459 999.46948 1008.5479"
         y="529.16364"
         sodipodi:role="line"
         id="tspan652">each other</tspan><tspan
         x="924.29541 933.53503 942.40381 951.48218 958.96417 963.68878 967.30078 976.50818 985.37689 992.85889 997.00311 1000.9859 1009.4677 1018.3364"
         y="548.80023"
         sodipodi:role="line"
         id="tspan654">questions (and</tspan><tspan
         x="918.59894 927.48376 936.56213 940.15802 949.39764 953.54181 962.62018 971.10193 979.06769 987.95251 992.09668 1001.304 1006.0448 1014.9296 1023.9919 1029.3131"
         y="568.43683"
         sodipodi:role="line"
         id="tspan656">help each other)</tspan></text><path
       d="m 1065.0237,297.148 h 138 v 138 h -138 z"
       style="fill:#ffe08a;fill-opacity:1;fill-rule:evenodd;stroke:none"
       id="path660" /><text
       style="font-variant:normal;font-weight:normal;font-size:19.5625px;font-family:'DejaVu Sans';-inkscape-font-specification:DejaVuSans;writing-mode:lr-tb;fill:#000000;fill-opacity:1;fill-rule:nonzero;stroke:none"
       id="text664"
       x="1080.2277"
       y="372.72009"><tspan
         x="1080.2277 1089.8916 1101.0618 1111.8212 1122.5806 1133.5942 1143.2385 1148.9899 1153.3719 1162.938 1167.3199 1173.0713"
         y="372.72009"
         sodipodi:role="line"
         id="tspan662">connectivity</tspan></text><text
       style="font-variant:normal;font-weight:normal;font-size:19.5625px;font-family:'DejaVu Sans';-inkscape-font-specification:DejaVuSans;writing-mode:lr-tb;fill:#000000;fill-opacity:1;fill-rule:nonzero;stroke:none"
       id="text668"
       x="1182.6375"
       y="372.72009"><tspan
         x="1182.6375"
         y="372.72009"
         id="tspan666"> </tspan></text><path
       d="m 1381.0237,455.148 h 138 v 138 h -138 z"
       style="fill:#fcfe7d;fill-opacity:1;fill-rule:evenodd;stroke:none"
       id="path676" /><text
       style="font-variant:normal;font-weight:normal;font-size:16.125px;font-family:'DejaVu Sans';-inkscape-font-specification:DejaVuSans;writing-mode:lr-tb;fill:#000000;fill-opacity:1;fill-rule:nonzero;stroke:none"
       id="text688"
       x="1401.6456"
       y="489.89044"><tspan
         x="1401.6456 1411.111 1418.593 1426.4781 1434.4438 1443.3126 1452.52 1456.132 1465.3394 1474.579 1478.1909 1486.1567 1494.6384"
         y="489.89044"
         sodipodi:role="line"
         id="tspan678">Psychological</tspan><tspan
         x="1406.7477 1414.2296 1418.9703 1424.2755 1433.3539 1440.8359 1448.3179 1452.462 1461.6694 1466.2167 1470.3607 1479.2295 1488.4369"
         y="509.52704"
         sodipodi:role="line"
         id="tspan680">stress of not</tspan><tspan
         x="1407.2594 1414.7415 1423.8198 1432.8821 1436.494 1445.3628 1454.6024 1458.7466 1470.5662 1479.451 1487.9329"
         y="529.16364"
         sodipodi:role="line"
         id="tspan682">seeing what</tspan><tspan
         x="1391.9297 1401.137 1405.8778 1414.7627 1423.8411 1429.1461 1436.6282 1440.7722 1449.254 1454.5592 1463.6376 1467.7816 1477.0374 1486.2448 1489.8568 1498.7256"
         y="548.80023"
         sodipodi:role="line"
         id="tspan684">others are doing</tspan><tspan
         x="1398.4017 1403.223 1407.3672 1416.236 1425.4434 1437.2629 1441.4071 1450.292 1458.7737 1463.5144 1472.5767 1476.7208 1488.2018 1492.0396"
         y="568.43683"
         sodipodi:role="line"
         id="tspan686">- now hate GIS</tspan></text><path
       d="m 1223.0237,297.148 h 138 v 138 h -138 z"
       style="fill:#fcfe7d;fill-opacity:1;fill-rule:evenodd;stroke:none"
       id="path690" /><text
       style="font-variant:normal;font-weight:normal;font-size:20.25px;font-family:'DejaVu Sans';-inkscape-font-specification:DejaVuSans;writing-mode:lr-tb;fill:#000000;fill-opacity:1;fill-rule:nonzero;stroke:none"
       id="text700"
       x="1242.5564"
       y="335.45682"><tspan
         x="1242.5564 1248.5099 1259.9106 1269.8939 1281.0516 1292.1891 1303.752 1308.2878 1319.8506 1331.4539"
         y="335.45682"
         sodipodi:role="line"
         id="tspan692">technology</tspan><tspan
         x="1244.7664 1256.3695 1263.0319 1274.5946 1286.218 1290.754 1302.1548 1318.4966 1327.8926 1333.0968"
         y="360.11673"
         sodipodi:role="line"
         id="tspan694">problems -</tspan><tspan
         x="1241.6764 1253.2797 1264.6804 1270.6339 1276.5671 1281.1031 1292.2406 1303.8439 1309.0481 1313.5841 1324.7217 1330.6752"
         y="384.77661"
         sodipodi:role="line"
         id="tspan696">getting into</tspan><tspan
         x="1256.0927 1265.4886 1275.3909 1284.7869 1290.7201 1302.1208 1318.4829"
         y="409.43652"
         sodipodi:role="line"
         id="tspan698">systems</tspan></text><path
       d="m 1223.0237,455.148 h 138 v 138 h -138 z"
       style="fill:#fcfe7d;fill-opacity:1;fill-rule:evenodd;stroke:none"
       id="path702" /><text
       style="font-variant:normal;font-weight:normal;font-size:19.5625px;font-family:'DejaVu Sans';-inkscape-font-specification:DejaVuSans;writing-mode:lr-tb;fill:#000000;fill-opacity:1;fill-rule:nonzero;stroke:none"
       id="text712"
       x="1233.7"
       y="494.49884"><tspan
         x="1233.7 1244.4594 1255.2188 1265.5087 1276.7375 1281.1195 1297.1608 1302.9121 1319.1294 1328.2064 1339.2201"
         y="494.49884"
         sodipodi:role="line"
         id="tspan704">unabletosee</tspan><tspan
         x="1241.7571 1256.0964 1266.8754 1277.1653 1282.9166 1287.9442 1299.1144 1304.8657 1315.6447 1326.6388 1333.0945"
         y="518.32153"
         sodipodi:role="line"
         id="tspan706">what others</tspan><tspan
         x="1239.8706 1250.1605 1256.6161 1267.6102 1272.6378 1283.8667 1295.0369 1299.4188 1310.1782 1321.3876 1326.415 1337.5853"
         y="542.14423"
         sodipodi:role="line"
         id="tspan708">are doing or</tspan><tspan
         x="1268.197 1277.274 1288.053 1298.3429 1304.7789"
         y="565.96692"
         sodipodi:role="line"
         id="tspan710">share</tspan></text><text
       xml:space="preserve"
       transform="matrix(0.75000002,0,0,0.75000002,1311.602,71.416642)"
       id="text27971"
       style="font-style:normal;font-weight:normal;font-size:40px;line-height:1.25;font-family:sans-serif;white-space:pre;shape-inside:url(#rect27973);fill:#000000;fill-opacity:1;stroke:none"><tspan
         x="-750.05273"
         y="271.00977"
         id="tspan38850">COVID-19 challenges in HEQGMT</tspan></text><path
       d="M 727.49472,645.54137 H 1551.883 v 235.9087 H 727.49472 Z"
       style="fill:none;stroke:#81b0f3;stroke-width:6.99999;stroke-linecap:butt;stroke-linejoin:miter;stroke-miterlimit:10;stroke-dasharray:none;stroke-opacity:1"
       id="path730" /><path
       d="m 907.4287,711.8535 h 138 v 138 h -138 z"
       style="fill:#fcfe7d;fill-opacity:1;fill-rule:evenodd;stroke:none"
       id="path738" /><text
       style="font-variant:normal;font-weight:normal;font-size:23px;font-family:'DejaVu Sans';-inkscape-font-specification:DejaVuSans;writing-mode:lr-tb;fill:#000000;fill-opacity:1;fill-rule:nonzero;stroke:none"
       id="text746"
       x="925.03302"
       y="759.99719"><tspan
         x="925.03302 943.61688 957.0719 962.98291 973.42493 986.35101 998.44891 1017.0328"
         y="759.99719"
         sodipodi:role="line"
         id="tspan740">MS Teams</tspan><tspan
         x="936.20172 953.06049 966.1936 973.76062 985.58258 990.73462 1003.3846"
         y="788.00598"
         sodipodi:role="line"
         id="tspan742">working</tspan><tspan
         x="941.18799 954.36688 961.93402 975.06689 987.71692 1000.896"
         y="816.01477"
         sodipodi:role="line"
         id="tspan744">groups</tspan></text><path
       d="m 1065.4287,711.8535 h 138 v 138 h -138 z"
       style="fill:#fcfe7d;fill-opacity:1;fill-rule:evenodd;stroke:none"
       id="path748" /><path
       d="m 1222.6457,711.24276 h 138 v 138.99588 h -138 z"
       style="fill:#fcfe7d;fill-opacity:1;fill-rule:evenodd;stroke:none;stroke-width:0.999997"
       id="path750" /><path
       d="m 1381.4287,711.8535 h 138 v 138 h -138 z"
       style="fill:#fcfe7d;fill-opacity:1;fill-rule:evenodd;stroke:none"
       id="path768" /><path
       d="m 1065.4287,711.8535 h 138 v 138 h -138 z"
       style="fill:#fcfe7d;fill-opacity:1;fill-rule:evenodd;stroke:none"
       id="path784" /><text
       style="font-variant:normal;font-weight:normal;font-size:18.875px;font-family:'DejaVu Sans';-inkscape-font-specification:DejaVuSans;writing-mode:lr-tb;fill:#000000;fill-opacity:1;fill-rule:nonzero;stroke:none"
       id="text794"
       x="1074.7166"
       y="752.24481"><tspan
         x="1074.7166 1087.9102 1096.6681 1100.8772 1111.2585 1122.0739 1126.9248 1137.759 1148.3856 1157.1437 1166.8265 1172.3757 1183.1533"
         y="752.24481"
         sodipodi:role="line"
         id="tspan786">Using desktop</tspan><tspan
         x="1095.4302 1105.3584 1114.6826 1124.007 1134.6146 1143.3727 1152.1306 1156.9816 1162.5308"
         y="775.23029"
         sodipodi:role="line"
         id="tspan788">access to</tspan><tspan
         x="1083.7899 1094.6243 1098.8522 1105.0621 1115.6887 1125.0129 1130.5623 1134.7714 1144.0012 1148.8521 1159.2522 1169.8788 1174.1068"
         y="798.2157"
         sodipodi:role="line"
         id="tspan790">directly help</tspan><tspan
         x="1100.4576 1114.2931 1118.521 1124.0703 1134.4705 1139.3213 1152.7603 1157.2336"
         y="821.20117"
         sodipodi:role="line"
         id="tspan792">with GIS</tspan></text><path
       d="m 749.42872,711.8535 h 138 v 138 h -138 z"
       style="fill:#fcfe7d;fill-opacity:1;fill-rule:evenodd;stroke:none"
       id="path796" /><text
       style="font-variant:normal;font-weight:normal;font-size:14.75px;font-family:'DejaVu Sans';-inkscape-font-specification:DejaVuSans;writing-mode:lr-tb;fill:#000000;fill-opacity:1;fill-rule:nonzero;stroke:none"
       id="text808"
       x="763.95215"
       y="749.51569"><tspan
         x="763.95215 773.9231 778.77588 787.08014 794.83862 799.17511 807.4646 811.25537 819.70709 824.57465 832.99689 841.10938 849.5611 856.40515 860.18109 868.60339"
         y="749.51569"
         sodipodi:role="line"
         id="tspan798">Create groups of</tspan><tspan
         x="761.97156 770.43805 773.742 780.95477 789.24426 794.11176 800.95581 809.2453 813.03601 821.48779 826.35529 834.77753 842.89001 851.3418 858.18579 861.97656 866.29828"
         y="767.47778"
         sodipodi:role="line"
         id="tspan800">diverse groups to</tspan><tspan
         x="767.72607 775.85333 784.15753 787.44678 795.89856 799.68933 807.99353 815.75208 823.03857 831.16583 834.95654 843.37878 847.71533 855.84253 864.13208"
         y="785.43988"
         sodipodi:role="line"
         id="tspan802">help each other</tspan><tspan
         x="766.00476 773.76324 781.87573 790.34222 794.133 801.41949 809.84174 813.13098 816.435 824.19348 832.65997 841.08228 845.94977 853.70825 858.04474 866.33423"
         y="803.4021"
         sodipodi:role="line"
         id="tspan804">and collaborate/</tspan><tspan
         x="772.00775 782.81946 791.24176 796.09448 803.67596 807.46674 811.80322 820.22546 828.67725 836.96674 841.30322 849.43048 857.73474 861.37799"
         y="821.36432"
         sodipodi:role="line"
         id="tspan806">work together.</tspan></text><text
       xml:space="preserve"
       transform="matrix(0.75000002,0,0,0.75000002,1280.2071,158.73487)"
       id="text34357"
       style="font-style:normal;font-weight:normal;font-size:40px;line-height:1.25;font-family:sans-serif;white-space:pre;shape-inside:url(#rect34359-7);fill:#000000;fill-opacity:1;stroke:none"><tspan
         x="-707.9707"
         y="705.35938"
         id="tspan38852">COVID-19 solutions in HEQGMT</tspan></text><text
       xml:space="preserve"
       id="text10207"
       x="1145.994"
       y="80.790222"><tspan
         sodipodi:role="line"
         id="tspan67824"
         x="1145.994"
         y="80.790222"><tspan
           sodipodi:role="line"
           id="tspan10211"
           style="font-size:48px;text-align:center;text-anchor:middle;stroke-width:0.75">Higher Education</tspan></tspan><tspan
         sodipodi:role="line"
         id="tspan67826"
         x="1145.994"
         y="140.79022"><tspan
           sodipodi:role="line"
           style="font-size:48px;text-align:center;text-anchor:middle;stroke-width:0.75"
           id="tspan67828">Quantitative Geography</tspan></tspan><tspan
         sodipodi:role="line"
         x="1145.994"
         y="200.79022"
         id="tspan67830"><tspan
           sodipodi:role="line"
           style="font-size:48px;text-align:center;text-anchor:middle;stroke-width:0.75"
           id="tspan67832">Methods Teaching (HEQGMT)</tspan></tspan></text><text
       xml:space="preserve"
       style="font-style:normal;font-weight:normal;font-size:30px;line-height:1.25;font-family:sans-serif;fill:#000000;fill-opacity:1;stroke:none;stroke-width:0.75"
       x="1986.1415"
       y="112.58549"
       id="text45434"><tspan
         sodipodi:role="line"
         id="tspan45432"
         style="stroke-width:0.75"
         x="1986.1415"
         y="112.58549" /></text><text
       xml:space="preserve"
       transform="matrix(0.75000002,0,0,0.75000002,708.17246,30)"
       id="text77431"
       style="font-style:normal;font-weight:normal;font-size:40px;line-height:1.25;font-family:sans-serif;white-space:pre;shape-inside:url(#rect77433);fill:#000000;fill-opacity:1;stroke:none" /><text
       xml:space="preserve"
       transform="matrix(0.75000002,0,0,0.75000002,678.12905,32.36543)"
       id="text81347"
       style="font-style:normal;font-weight:normal;font-size:16px;line-height:1.25;font-family:sans-serif;text-align:center;white-space:pre;shape-inside:url(#rect81349);fill:#000000;fill-opacity:1;stroke:none"
       x="90.785156"
       y="0"><tspan
         x="742.72266"
         y="934.41406"
         id="tspan38854">Use a collaborative
</tspan><tspan
         x="755.97266"
         y="954.41406"
         id="tspan38856">plateform (i use </tspan><tspan
         x="750.53516"
         y="974.41406"
         id="tspan38858">Teams for Spatial </tspan><tspan
         x="756.28125"
         y="994.41406"
         id="tspan38860">Analysis) where </tspan><tspan
         x="763.53125"
         y="1014.4141"
         id="tspan38862">studnets form
</tspan><tspan
         x="750.62891"
         y="1034.4141"
         id="tspan38864">small groups and </tspan><tspan
         x="745.53125"
         y="1054.4141"
         id="tspan38866">work together and </tspan><tspan
         x="759.96094"
         y="1074.4141"
         id="tspan38868">share contents</tspan></text><text
       xml:space="preserve"
       transform="matrix(0.75000002,0,0,0.75000002,708.17246,30)"
       id="text116663"
       style="font-style:normal;font-weight:normal;font-size:40px;line-height:1.25;font-family:sans-serif;white-space:pre;shape-inside:url(#rect116665);fill:#000000;fill-opacity:1;stroke:none" /><text
       xml:space="preserve"
       transform="matrix(0.75000002,0,0,0.75000002,708.17246,30)"
       id="text144484"
       style="font-style:normal;font-weight:normal;font-size:40px;line-height:1.25;font-family:sans-serif;white-space:pre;shape-inside:url(#rect144486);fill:#000000;fill-opacity:1;stroke:none"><tspan
         x="1175.7051"
         y="1245.7207"
         id="tspan38872"><tspan
           dx="0 24.511719 20.839844 25.390625 14.082031"
           id="tspan38870">asdfa</tspan></tspan></text><text
       xml:space="preserve"
       id="text175542-4"
       style="font-family:sans-serif;inline-size:122.907"
       x="1545.6694"
       y="684.68207"
       transform="translate(-96.017848,51.69936)"><tspan
         x="1545.6694"
         y="684.68207"
         id="tspan38876"><tspan
           style="font-size:12px;text-align:center;text-anchor:middle;stroke-width:0.75"
           id="tspan38874">PostCovid, back in </tspan></tspan><tspan
         x="1545.6694"
         y="699.68207"
         id="tspan38880"><tspan
           style="font-size:12px;text-align:center;text-anchor:middle;stroke-width:0.75"
           id="tspan38878">class, still using </tspan></tspan><tspan
         x="1545.6694"
         y="714.68207"
         id="tspan38884"><tspan
           style="font-size:12px;text-align:center;text-anchor:middle;stroke-width:0.75"
           id="tspan38882">Teams for all </tspan></tspan><tspan
         x="1545.6694"
         y="729.68207"
         id="tspan38888"><tspan
           style="font-size:12px;text-align:center;text-anchor:middle;stroke-width:0.75"
           id="tspan38886">students, they work </tspan></tspan><tspan
         x="1545.6694"
         y="744.68207"
         id="tspan38892"><tspan
           style="font-size:12px;text-align:center;text-anchor:middle;stroke-width:0.75"
           id="tspan38890">always virtually as </tspan></tspan><tspan
         x="1545.6694"
         y="759.68207"
         id="tspan38896"><tspan
           style="font-size:12px;text-align:center;text-anchor:middle;stroke-width:0.75"
           id="tspan38894">well as being face </tspan></tspan><tspan
         x="1545.6694"
         y="774.68207"
         id="tspan38900"><tspan
           style="font-size:12px;text-align:center;text-anchor:middle;stroke-width:0.75"
           id="tspan38898">to face in the </tspan></tspan><tspan
         x="1545.6694"
         y="789.68207"
         id="tspan38904"><tspan
           style="font-size:12px;text-align:center;text-anchor:middle;stroke-width:0.75"
           id="tspan38902">classroom</tspan></tspan></text><text
       xml:space="preserve"
       transform="matrix(0.75000002,0,0,0.75000002,1012.8412,501.87746)"
       id="text11892"
       style="font-style:normal;font-weight:normal;font-size:21.3333px;font-family:sans-serif;white-space:pre;inline-size:169.098;fill:#000000;fill-opacity:1;stroke:none"
       x="165.51016"
       y="0"><tspan
         x="165.51016"
         y="0"
         id="tspan38908"><tspan
           style="text-align:center;text-anchor:middle"
           id="tspan38906">Diffculties of </tspan></tspan><tspan
         x="165.51016"
         y="26.666625"
         id="tspan38912"><tspan
           style="text-align:center;text-anchor:middle"
           id="tspan38910">engaging some </tspan></tspan><tspan
         x="165.51016"
         y="53.333249"
         id="tspan38916"><tspan
           style="text-align:center;text-anchor:middle"
           id="tspan38914">students due to </tspan></tspan><tspan
         x="165.51016"
         y="79.999871"
         id="tspan38920"><tspan
           style="text-align:center;text-anchor:middle"
           id="tspan38918">some shyness</tspan></tspan></text></g></svg>
