<?xml version="1.0" encoding="UTF-8" standalone="no"?>
<!-- Created with Inkscape (http://www.inkscape.org/) -->

<svg
   version="1.1"
   id="svg2"
   xml:space="preserve"
   width="1297.412"
   height="2046.196"
   viewBox="0 0 1297.412 2046.1961"
   sodipodi:docname="mural_1challenges.svg"
   inkscape:version="1.1.1 (eb90963e84, 2021-10-02)"
   xmlns:inkscape="http://www.inkscape.org/namespaces/inkscape"
   xmlns:sodipodi="http://sodipodi.sourceforge.net/DTD/sodipodi-0.dtd"
   xmlns="http://www.w3.org/2000/svg"
   xmlns:svg="http://www.w3.org/2000/svg"><defs
     id="defs6"><rect
       x="1907.4678"
       y="218.67242"
       width="1928.8601"
       height="489.84827"
       id="rect12747" /></defs><sodipodi:namedview
     id="namedview4"
     pagecolor="#ffffff"
     bordercolor="#666666"
     borderopacity="1.0"
     inkscape:pageshadow="2"
     inkscape:pageopacity="0.0"
     inkscape:pagecheckerboard="0"
     showgrid="false"
     inkscape:zoom="0.28376134"
     inkscape:cx="-253.73435"
     inkscape:cy="1108.3258"
     inkscape:window-width="2560"
     inkscape:window-height="1376"
     inkscape:window-x="0"
     inkscape:window-y="0"
     inkscape:window-maximized="1"
     inkscape:current-layer="g8"
     fit-margin-top="0"
     fit-margin-left="0"
     fit-margin-right="0"
     fit-margin-bottom="0" /><g
     id="g8"
     inkscape:groupmode="layer"
     inkscape:label="mural (another copy)"
     transform="scale(1.3333333)"><path
       d="M 0,0 H 973.05898 V 1534.6471 H 0 Z"
       style="fill:#fafafa;fill-opacity:1;fill-rule:evenodd;stroke:none;stroke-width:1"
       id="path12" /><path
       d="m 19.72566,235.26383 h 937 V 1518.3963 h -937 z"
       style="fill:none;stroke:#81b0f3;stroke-width:7;stroke-linecap:butt;stroke-linejoin:miter;stroke-miterlimit:10;stroke-dasharray:none;stroke-opacity:1"
       id="path18" /><path
       d="m 47.83066,334.91236 h 182.977 v 182.98 h -182.977 z"
       style="fill:#ffc2e8;fill-opacity:1;fill-rule:evenodd;stroke:none"
       id="path20" /><text
       style="font-variant:normal;font-weight:normal;font-size:17.5917px;font-family:'DejaVu Sans';-inkscape-font-specification:DejaVuSans;writing-mode:lr-tb;fill:#000000;fill-opacity:1;fill-rule:nonzero;stroke:none"
       id="text32"
       x="67.149117"
       y="389.02893"><tspan
         x="67.149117 71.089653 80.765091 85.286156 99.482658 108.085 112.60606 121.29636 131.34122 141.01666 146.18861 155.51222 164.04419 169.21616 173.73721 178.99713 183.5182 188.49666 198.38318"
         y="389.02893"
         sodipodi:role="line"
         id="tspan22">in my context - few</tspan><tspan
         x="77.615631 87.695671 97.5998 107.64466 117.7247 121.64765 131.55179 136.07286 148.96756 158.66058 168.70546 173.22652 181.91681 191.17006"
         y="410.45166"
         sodipodi:role="line"
         id="tspan24">people who can</tspan><tspan
         x="77.443832 82.615791 92.51992 101.77316 110.44586 120.13889 124.65997 132.82251 142.90256 152.80667 161.49698 165.43752 174.3741 183.06439 187.58546"
         y="431.87427"
         sodipodi:role="line"
         id="tspan26">teach specifc Q</tspan><tspan
         x="63.550034 72.803268 78.608528 88.495064 97.748299 105.91084 109.93935 114.46041 120.26567 130.15221 134.09276 143.76819 152.45848 157.63045 166.88367 176.55911 185.24942 195.15353 199.657 204.82896"
         y="453.297"
         sodipodi:role="line"
         id="tspan28">areas, reluctance to</tspan><tspan
         x="65.560028 69.500565 79.404694 88.657928 94.445595 104.12103 108.6421 118.31754 128.22165 141.11638 145.63744 159.83394 169.73807 174.91003 184.60306 194.64792 204.74554"
         y="474.7196"
         sodipodi:role="line"
         id="tspan30">learn new methods</tspan></text><path
       d="m 250.80766,334.91236 h 182.977 v 182.98 h -182.977 z"
       style="fill:#ffc2e8;fill-opacity:1;fill-rule:evenodd;stroke:none"
       id="path34" /><text
       style="font-variant:normal;font-weight:normal;font-size:14.8264px;font-family:'DejaVu Sans';-inkscape-font-specification:DejaVuSans;writing-mode:lr-tb;fill:#000000;fill-opacity:1;fill-rule:nonzero;stroke:none"
       id="text52"
       x="278.52133"
       y="367.82117"><tspan
         x="278.52133 288.2771 295.14172 298.95212 306.75079 310.56119 319.26428 327.43362 337.8121 341.62247 345.81836 354.15079 357.47189 360.79303 369.25888 379.47427 382.86954 386.6799 398.64481"
         y="367.82117"
         sodipodi:role="line"
         id="tspan36">As a PhD fellow, my</tspan><tspan
         x="287.58871 294.91296 303.08231 310.88098 314.20212 317.50839 325.85565 334.01016 342.50571 350.85297 354.66336 365.5311 373.3298 380.20923 384.01962 388.37857"
         y="385.87634"
         sodipodi:role="line"
         id="tspan38">challenge was to</tspan><tspan
         x="283.37537 290.69962 299.1655 311.1304 323.11011 331.26465 339.41916 342.74026 350.04968 357.84839 362.20734 370.5546 374.36499 385.23273 388.55383 392.91281"
         y="403.93152"
         sodipodi:role="line"
         id="tspan40">communicate with</tspan><tspan
         x="259.53592 268.03143 276.37869 284.84454 293.34009 296.64636 304.99362 308.80402 312.99988 321.46576 326.34363 330.15402 338.66437 346.46307 350.82202 358.6207 362.43109 369.75534 378.22122 381.54233 384.84863 393.19589 400.52011 404.87909 408.2002 416.66605"
         y="421.98669"
         sodipodi:role="line"
         id="tspan42">people for data collection</tspan><tspan
         x="277.98199 285.78067 293.93518 302.44556 306.25592 314.7663 318.0874 324.95203 331.83148 340.17874 352.15845 355.46475 363.61926 366.94037 371.29935 379.76523 387.91974 391.73013 399.52881"
         y="440.04175"
         sodipodi:role="line"
         id="tspan44">and disseminiton as</tspan><tspan
         x="262.42084 274.38571 282.85159 289.73102 294.09 297.4111 304.66122 308.47159 316.81888 324.06897 332.4014 337.29413 344.54422 348.9032 357.07254 360.37881 368.53336 377.02887 380.83926 389.00861 396.80728 405.31763 409.12802 413.48697"
         y="458.09705"
         sodipodi:role="line"
         id="tspan46">mostly everything had to</tspan><tspan
         x="261.23718 269.74753 278.09479 281.90515 290.4155 298.88138 307.03589 315.36835 319.17871 327.68909 334.93918 338.74957 347.24509 355.41446 363.88031 372.03485 380.38211 384.19247 391.50192 399.3154 402.6217 405.94281 409.7532 418.21906"
         y="476.15222"
         sodipodi:role="line"
         id="tspan48">be done by phone call or</tspan><tspan
         x="319.74997 328.09723 340.06213 347.86081 351.18192 354.50302 361.38248"
         y="494.20728"
         sodipodi:role="line"
         id="tspan50">emails.</tspan></text><path
       d="m 453.78466,334.91236 h 182.98 v 182.98 h -182.98 z"
       style="fill:#ffc2e8;fill-opacity:1;fill-rule:evenodd;stroke:none"
       id="path54" /><text
       style="font-variant:normal;font-weight:normal;font-size:17.5917px;font-family:'DejaVu Sans';-inkscape-font-specification:DejaVuSans;writing-mode:lr-tb;fill:#000000;fill-opacity:1;fill-rule:nonzero;stroke:none"
       id="text68"
       x="476.03348"
       y="378.31763"><tspan
         x="476.03348 480.22031 489.89572 498.58603 504.37372 514.27783 523.53107 531.6936 541.59772 551.6778 556.19885 561.17731 570.85272 580.52814 590.62579 594.56635 604.24176"
         y="378.31763"
         sodipodi:role="line"
         id="tspan56">Increased funding</tspan><tspan
         x="495.27435 505.3544 511.14206 521.0462 529.20874 537.37128 547.04669 552.83435 562.73853 570.90106 575.42212 585.46698"
         y="399.74036"
         sodipodi:role="line"
         id="tspan58">pressures on</tspan><tspan
         x="475.6727 479.61325 489.2887 497.45123 502.60559 506.54614 511.71811 521.39355 526.56549 530.50604 540.5509 550.22632 558.38885 562.89233 568.15228 572.67334 586.88745 596.14069 604.7782"
         y="421.16296"
         sodipodi:role="line"
         id="tspan60">institutions - make</tspan><tspan
         x="470.3428 478.50537 483.67731 492.93054 506.86319 516.53864 526.61865 531.13971 539.81244 549.50543 558.75867 562.69922 566.63977 576.54388 586.2193 596.29938 600.22229 609.89777"
         y="442.58569"
         sodipodi:role="line"
         id="tspan62">stafng challenging</tspan><tspan
         x="470.36859 474.71371 484.38916 494.43402 499.60599 504.12704 514.03119 523.7066 533.75146 543.42688 553.50696 563.19995 567.72101 575.88361 581.03796 590.2912 595.26965 600.24811 604.76917 609.9411"
         y="464.0083"
         sodipodi:role="line"
         id="tspan64">(not enough staff to</tspan><tspan
         x="490.84637 496.01834 501.806 511.05923 514.99982 524.67523 529.19629 537.35883 542.53076 552.20624 562.30383 572.19037 581.86578 587.03778 595.20032"
         y="485.43091"
         sodipodi:role="line"
         id="tspan66">train students)</tspan></text><path
       d="m 656.76466,334.91236 h 182.977 v 182.98 h -182.977 z"
       style="fill:#ffc2e8;fill-opacity:1;fill-rule:evenodd;stroke:none"
       id="path76" /><text
       style="font-variant:normal;font-weight:normal;font-size:21.2787px;font-family:'DejaVu Sans';-inkscape-font-specification:DejaVuSans;writing-mode:lr-tb;fill:#000000;fill-opacity:1;fill-rule:nonzero;stroke:none"
       id="text90"
       x="719.91901"
       y="368.23962"><tspan
         x="719.91901 735.5163 747.66638 754.66711 764.54041"
         y="368.23962"
         sodipodi:role="line"
         id="tspan78">worse</tspan><tspan
         x="691.08679 700.96008 707.216 718.40863 724.40924 730.43109 735.30389 745.17725 751.43317 763.13647 775.3504 787.33032 799.03363"
         y="394.15222"
         sodipodi:role="line"
         id="tspan80">staff:student</tspan><tspan
         x="677.43433 684.43506 695.64893 701.88354 706.65002 718.80011 728.67346 733.54626 739.01489 748.88818 755.14417 766.84741 779.0614 791.02002 802.72333 808.97925"
         y="420.06482"
         sodipodi:role="line"
         id="tspan82">ratios, students</tspan><tspan
         x="702.59888 714.32343 725.51605 735.92133 747.90125 753.36987 765.09442 769.8396 782.03229"
         y="445.97754"
         sodipodi:role="line"
         id="tspan84">have high</tspan><tspan
         x="677.10706 688.40607 698.72626 710.91895 722.87756 733.38922 739.64514 750.83777 757.09369 761.86011 774.01025 785.71356 795.56561 801.03424 813.18433"
         y="471.89014"
         sodipodi:role="line"
         id="tspan86">expectations of</tspan><tspan
         x="691.28418 701.7959 713.49915 723.3725 729.62842 741.75726 758.95044 764.41907 776.14368 788.12354 792.86871"
         y="497.80273"
         sodipodi:role="line"
         id="tspan88">custom help</tspan></text><path
       d="m 489.79966,839.2954 h 202.656 v 202.656 h -202.656 z"
       style="fill:#ffc2e8;fill-opacity:1;fill-rule:evenodd;stroke:none"
       id="path92" /><text
       style="font-variant:normal;font-weight:normal;font-size:22.5092px;font-family:'DejaVu Sans';-inkscape-font-specification:DejaVuSans;writing-mode:lr-tb;fill:#000000;fill-opacity:1;fill-rule:nonzero;stroke:none"
       id="text106"
       x="501.66153"
       y="879.09552"><tspan
         x="501.66153 514.44678 521.06445 533.44452 546.36481 559.03748 571.41754 578.01276 588.45697 594.24188 606.08173 613.50977 626.18243 631.94476 644.32483 654.7691 667.44177"
         y="879.09552"
         sodipodi:role="line"
         id="tspan94">Students are used</tspan><tspan
         x="540.03589 546.65363 559.50635 565.2912 570.33331 582.71332 589.30853 601.6886 606.73065 613.34839 618.39044 629.3974"
         y="906.50647"
         sodipodi:role="line"
         id="tspan96">to intuitive</tspan><tspan
         x="499.40842 511.24826 524.14606 537.04382 542.08588 547.12793 558.22498 570.06482 576.6825 581.72455 594.57733 606.9574 617.40167 622.55627 628.34113 639.79828 652.17834 665.09863 670.88348 675.90308"
         y="933.9176"
         sodipodi:role="line"
         id="tspan98">applications, fnd it</tspan><tspan
         x="523.96741 536.88763 541.92975 559.75702 570.85406 583.23407 588.27618 594.89386 600.67871 607.29645 620.14917 625.93402 638.83179 651.50452"
         y="961.32867"
         sodipodi:role="line"
         id="tspan100">difcult to get</tspan><tspan
         x="508.95395 521.33405 531.77826 544.45093 557.37122 563.13361 569.75128 582.60406 588.38892 598.83319 611.68591 618.05603 624.67371 641.17297 653.01282 660.41833"
         y="988.73969"
         sodipodi:role="line"
         id="tspan102">used to software</tspan><tspan
         x="536.92554 549.3056 559.74988 572.42255 585.34283 591.10516 602.96753 609.56274 615.3476 627.72766 640.10773"
         y="1016.1508"
         sodipodi:role="line"
         id="tspan104">used at uni</tspan></text><path
       d="m 47.83066,537.89236 h 284.746 V 822.6344 h -284.746 z"
       style="fill:#fcfe7d;fill-opacity:1;fill-rule:evenodd;stroke:none"
       id="path108" /><text
       style="font-variant:normal;font-weight:normal;font-size:25.6805px;font-family:'DejaVu Sans';-inkscape-font-specification:DejaVuSans;writing-mode:lr-tb;fill:#000000;fill-opacity:1;fill-rule:nonzero;stroke:none"
       id="text124"
       x="93.079857"
       y="594.43213"><tspan
         x="93.079857 104.99561 112.54568 126.66995 141.41057 155.843 169.96727 177.51733 189.43309 196.03297 209.54092 218.01549 232.44794 239.04782 251.60559 266.06372 274.51257"
         y="594.43213"
         sodipodi:role="line"
         id="tspan110">students are very</tspan><tspan
         x="60.101421 68.550308 83.00843 88.760864 102.88514 115.5713 123.12138 136.62932 150.75359 158.30365 164.90355 172.42793 187.09149 193.69138 207.32773 219.78278 234.4977 248.95583 257.40472 263.15714 283.88129 298.33939 312.46368"
         y="625.70532"
         sodipodi:role="line"
         id="tspan112">reluctant to experiment</tspan><tspan
         x="59.123356 73.786919 87.911201 94.511086 102.06115 116.21111 130.64354 136.39598 144.87054 151.47043 166.134 184.95781 199.08208 205.68196 213.36044 219.93465 227.48471 241.63467 256.0928 268.65057 275.25043 294.07422 307.58215 313.33459"
         y="656.97839"
         sodipodi:role="line"
         id="tspan114">on their own - they wait</tspan><tspan
         x="77.62513 85.175194 99.83876 106.43865 121.17925 135.61169 142.21159 149.76166 164.42522 170.17764 184.91826 191.51814 199.06821 213.21817 227.6506 234.2505 243.03323 251.5078 257.23456 271.94946 286.0994 293.64948"
         y="688.25134"
         sodipodi:role="line"
         id="tspan116">to be told the &quot;right&quot;</tspan><tspan
         x="63.023067 76.531013 90.655289 102.57104 121.39484 135.85297 144.30185 150.90173 165.64235 180.10046 192.78664 206.29457 220.41885 232.33461 246.76704 253.36693 260.91702 275.06696 280.81937 292.73511 299.33499 305.06177"
         y="719.52441"
         sodipodi:role="line"
         id="tspan118">answer because this is</tspan><tspan
         x="58.05122 76.875023 91.024986 104.53293 112.08299 118.68288 126.23296 140.3829 154.81534 167.37311 173.97299 187.48094 195.95551 210.41362 217.0135 224.5379 238.04584 252.17012 257.92255 272.63748 286.78741 294.33746 300.93738 314.44531"
         y="750.79761"
         sodipodi:role="line"
         id="tspan120">what they are tauight at</tspan><tspan
         x="108.14584 120.06159 132.74776 146.89771 161.56128 176.22484 181.9516 189.52734 202.2135 216.87708 222.6295 228.38194 242.81438 257.52933"
         y="782.07068"
         sodipodi:role="line"
         id="tspan122">school/college</tspan></text><path
       d="m 594.29566,568.52136 h 192.305 V 760.8264 h -192.305 z"
       style="fill:#fcfe7d;fill-opacity:1;fill-rule:evenodd;stroke:#000000;stroke-width:3;stroke-linecap:butt;stroke-linejoin:miter;stroke-miterlimit:10;stroke-dasharray:none;stroke-opacity:1"
       id="path128" /><text
       style="font-variant:normal;font-weight:normal;font-size:19.7333px;font-family:'DejaVu Sans';-inkscape-font-specification:DejaVuSans;writing-mode:lr-tb;fill:#000000;fill-opacity:1;fill-rule:nonzero;stroke:none"
       id="text142"
       x="613.74261"
       y="610.73584"><tspan
         x="613.74261 627.08234 641.76392 654.74841 659.44495 673.23853 678.31 682.73022 691.88647 701.04272 711.89606 722.98615 728.05762 733.95789 739.02936 749.88263 761.15039"
         y="610.73584"
         sodipodi:role="line"
         id="tspan130">COVID issue - not</tspan><tspan
         x="621.39795 632.72485 643.83472 648.23523 659.08856 670.39569 675.46716 685.84686 697.17383 701.59406 712.70392 717.77539 723.57697 734.84467 739.91614 749.05267 753.4729"
         y="634.76636"
         sodipodi:role="line"
         id="tspan132">being able to sit</tspan><tspan
         x="638.19244 647.34869 658.22174 669.48944 680.34277 684.763 696.07019 707.18005 713.69202 719.59229 725.39386 736.64185"
         y="658.79712"
         sodipodi:role="line"
         id="tspan134">shoulder-to-</tspan><tspan
         x="632.30518 641.46143 652.33447 663.60223 674.45551 678.87579 690.18298 701.29279 707.80481 712.87628 727.34076 731.74127 737.54291"
         y="682.82776"
         sodipodi:role="line"
         id="tspan136">shoulder with</tspan><tspan
         x="616.84039 625.99664 631.79822 642.65155 653.97845 665.06854 675.92188 681.72345 690.8797 695.95117 701.75275 713.02051 718.09192 727.24817 738.12128 749.38898"
         y="706.8584"
         sodipodi:role="line"
         id="tspan138">students to show</tspan><tspan
         x="618.0448 623.84637 634.71942 645.82928 661.75409 666.8255 681.29004 692.16309 702.54279 708.34442 713.41583 719.21747 730.48517 735.55664 746.88354 758.15125"
         y="730.88904"
         sodipodi:role="line"
         id="tspan140">them what to do!</tspan></text><path
       d="m 47.83066,842.6354 h 202.656 v 202.656 h -202.656 z"
       style="fill:#ffc2e8;fill-opacity:1;fill-rule:evenodd;stroke:none"
       id="path144" /><text
       style="font-variant:normal;font-weight:normal;font-size:21.997px;font-family:'DejaVu Sans';-inkscape-font-specification:DejaVuSans;writing-mode:lr-tb;fill:#000000;fill-opacity:1;fill-rule:nonzero;stroke:none"
       id="text158"
       x="84.504448"
       y="883.83728"><tspan
         x="84.504448 96.998749 103.46587 115.56422 128.19049 140.5748 152.67316 159.11827 169.32487 174.9781 179.90544 191.47586 202.34238"
         y="883.83728"
         sodipodi:role="line"
         id="tspan146">Students lack</tspan><tspan
         x="89.214272 95.439423 107.99971 120.09806 132.19641 144.82268 156.39311 162.83823 167.76556 180.32584 192.42419 203.99463"
         y="910.62457"
         sodipodi:role="line"
         id="tspan148">foundational</tspan><tspan
         x="67.313904 79.412254 91.510605 104.13689 116.52119 123.75821 133.96481 140.43193 152.00235 164.10071 176.72697 181.65431 193.75266 206.35695 212.01016 224.54846"
         y="937.41211"
         sodipodi:role="line"
         id="tspan150">understanding of</tspan><tspan
         x="62.174458 74.294807 86.855095 102.9789 108.63213 119.49864 132.05893 149.8105 162.41478 174.51314 180.98026 193.36458 200.60158 206.25481 223.08252"
         y="964.19952"
         sodipodi:role="line"
         id="tspan152">how computer OS</tspan><tspan
         x="84.944832 91.169983 103.26833 115.36668 126.2112 132.67833 137.60565 150.16594 162.26428 167.91751 173.35077 185.5811 190.48643 203.09071 208.12802"
         y="990.98682"
         sodipodi:role="line"
         id="tspan154">function (e.g.,</tspan><tspan
         x="86.80835 93.033501 105.59379 110.49911 123.12539 135.5097 142.76871 152.95332 158.01263 163.64386 176.27014 187.84056 194.30768 205.8781"
         y="1017.7744"
         sodipodi:role="line"
         id="tspan156">folders, data)</tspan></text><path
       d="m 269.29566,842.6354 h 199.312 v 199.316 h -199.312 z"
       style="fill:#fcfe7d;fill-opacity:1;fill-rule:evenodd;stroke:none"
       id="path160" /><text
       style="font-variant:normal;font-weight:normal;font-size:16.606px;font-family:'DejaVu Sans';-inkscape-font-specification:DejaVuSans;writing-mode:lr-tb;fill:#000000;fill-opacity:1;fill-rule:nonzero;stroke:none"
       id="text178"
       x="278.43063"
       y="876.67981"><tspan
         x="278.43063 284.10989 293.64172 297.36148 306.86011 310.57983 315.46201 324.19678 327.9165 332.18423 341.31754 350.05231 354.93448 358.65421 366.77454 376.10712 383.48019 389.15945 393.42719 402.16193 407.62531 416.97449 421.24222 430.75748 436.23746 445.57001 454.30478"
         y="876.67981"
         sodipodi:role="line"
         id="tspan162">&quot;digital natives&quot; are great</tspan><tspan
         x="304.60049 313.33527 318.21744 322.48517 331.61847 339.32364 343.02679 352.1601 361.67532 365.94308 374.67783 384.19308 393.70831 401.41348 405.68124 414.41599 423.54929"
         y="896.9021"
         sodipodi:role="line"
         id="tspan164">at using apps and</tspan><tspan
         x="313.02921 322.54443 331.27917 344.69684 354.02942 361.73459 365.53738 369.80511 379.33694 388.47025 393.35242 397.62015 406.0726 415.2059"
         y="917.12451"
         sodipodi:role="line"
         id="tspan166">games, but fnd</tspan><tspan
         x="285.69983 293.9032 303.38522 316.78625 330.20389 338.93866 348.07196 357.60379 361.87155 365.57468 369.29443 378.42773 387.77692 392.04465 399.74982 409.23184 413.4996 422.23434 425.9541 429.65723 439.00641 448.13971"
         y="937.34692"
         sodipodi:role="line"
         id="tspan168">command line so alien,</tspan><tspan
         x="286.40118 295.13596 304.26926 313.80109 318.06885 325.77402 330.65619 336.11957 345.25287 354.7681 364.28336 368.00308 377.35226 381.60339 393.79221 397.49533 402.3775 411.5274 415.79514 429.2128 438.69482 446.38339"
         y="957.56921"
         sodipodi:role="line"
         id="tspan170">and struggle with most</tspan><tspan
         x="277.44952 286.58282 295.71613 299.43585 307.55618 316.88876 322.36874 330.07394 333.79367 338.65924 346.77957 351.0473 358.7525 368.23453 372.93402 377.81619 389.98837 398.72314 404.18652 413.53568 417.80344 429.97562 439.12552 442.84528 451.03204"
         y="977.79163"
         sodipodi:role="line"
         id="tspan172">university software which</tspan><tspan
         x="291.45679 295.17651 302.88171 311.91537 315.20337 320.06891 324.33667 329.03616 338.51819 346.72156 355.85486 363.56003 372.89261 382.42444 386.6922 396.17422 405.3075 409.57526 418.70856 426.41373 435.76291 441.22629"
         y="998.01392"
         sodipodi:role="line"
         id="tspan174">isn't focused on user-</tspan><tspan
         x="327.28781 331.9873 337.45068 341.17044 350.51959 359.65289 369.18475 372.88788 376.60764 385.74094 395.09012 402.79529"
         y="1018.2363"
         sodipodi:role="line"
         id="tspan176">friendliness</tspan></text><path
       d="m 370.14366,563.34636 h 202.652 V 766.0024 h -202.652 z"
       style="fill:#ffc2e8;fill-opacity:1;fill-rule:evenodd;stroke:none"
       id="path180" /><text
       style="font-variant:normal;font-weight:normal;font-size:25.0698px;font-family:'DejaVu Sans';-inkscape-font-specification:DejaVuSans;writing-mode:lr-tb;fill:#000000;fill-opacity:1;fill-rule:nonzero;stroke:none"
       id="text192"
       x="385.34164"
       y="611.4137"><tspan
         x="385.34164 403.16626 417.28058 424.65109 438.74033 447.01337 461.32822 475.69321 489.78244 503.57083 517.68512 532 545.78839"
         y="611.4137"
         sodipodi:role="line"
         id="tspan182">Heterogeneous</tspan><tspan
         x="399.25977 410.89215 418.26266 432.05106 446.44113 460.53036 474.31876 481.68927 488.13223 502.52228 516.83716 531.22723"
         y="641.94299"
         sodipodi:role="line"
         id="tspan184">student body</tspan><tspan
         x="399.6821 418.05826 423.67389 431.0444 444.85788 451.30081 465.6658 471.28143 478.37619 485.47095 499.56018 507.83319 521.94751 535.7359"
         y="672.47229"
         sodipodi:role="line"
         id="tspan186">with different</tspan><tspan
         x="420.98773 432.62012 445.48093 451.09656 456.71219 462.32782 473.96024 480.40317 493.58987 507.37827"
         y="703.00159"
         sodipodi:role="line"
         id="tspan188">skills and</tspan><tspan
         x="397.09921 411.48929 424.67599 437.06049 449.3447 463.70969 471.98273 486.29758 500.08597 513.87439 528.2644 539.89679"
         y="733.53088"
         sodipodi:role="line"
         id="tspan190">backgrounds.</tspan></text><path
       d="m 270.48766,1061.9514 h 196.934 v 196.934 h -196.934 z"
       style="fill:#fcfe7d;fill-opacity:1;fill-rule:evenodd;stroke:none"
       id="path194" /><text
       style="font-variant:normal;font-weight:normal;font-size:20.8889px;font-family:'DejaVu Sans';-inkscape-font-specification:DejaVuSans;writing-mode:lr-tb;fill:#000000;fill-opacity:1;fill-rule:nonzero;stroke:none"
       id="text208"
       x="301.40546"
       y="1103.3187"><tspan
         x="301.40546 313.39566 318.0748 330.04413 334.70236 340.84369 351.83124 356.51038 361.87881 372.86636 383.18549 393.50461 405.26505 414.93661 424.62906 429.99753"
         y="1103.3187"
         sodipodi:role="line"
         id="tspan196">digital access -</tspan><tspan
         x="293.2049 304.71469 315.70224 325.91693 330.59604 342.08493 354.05426 359.42273 365.56406 377.05295 388.81339 393.49252 400.36496 405.7334 417.66098 432.97253"
         y="1128.7568"
         sodipodi:role="line"
         id="tspan198">having their own</tspan><tspan
         x="283.8161 295.80634 307.56677 317.78143 322.43967 332.75879 344.51923 349.8877 361.81525 368.68768 374.05615 385.54504 397.4726 403.61392 408.39749 413.76593 419.90729 430.12195 442.09128"
         y="1154.1948"
         sodipodi:role="line"
         id="tspan200">device or not, type</tspan><tspan
         x="280.1799 292.10745 298.01901 303.38748 315.37769 327.11725 337.33194 342.01105 352.33017 363.9444 368.72794 374.09641 386.06573 397.55463 408.54218 413.22131 417.87952 424.02087 434.23553 439.60397 451.53156"
         y="1179.6328"
         sodipodi:role="line"
         id="tspan202">of device, quality of</tspan><tspan
         x="333.75882 338.43793 349.92682 356.06818 367.80774 374.70105 386.18997 397.95041"
         y="1205.0709"
         sodipodi:role="line"
         id="tspan204">internet</tspan><tspan
         x="310.91666 321.23575 333.16333 344.65222 356.14111 367.90155 378.1998 384.34113 389.02023 400.94781 412.43671 417.22025 422.00381"
         y="1230.5089"
         sodipodi:role="line"
         id="tspan206">connection...</tspan></text><path
       d="m 47.83066,1025.5254 h 138 v 138 h -138 z"
       style="fill:#fcfe7d;fill-opacity:1;fill-rule:evenodd;stroke:none"
       id="path210" /><text
       style="font-variant:normal;font-weight:normal;font-size:23px;font-family:'DejaVu Sans';-inkscape-font-specification:DejaVuSans;writing-mode:lr-tb;fill:#000000;fill-opacity:1;fill-rule:nonzero;stroke:none"
       id="text216"
       x="70.90937"
       y="1087.6733"><tspan
         x="70.90937 84.111366 97.060371 108.74437 121.39436 126.54636 133.30836 146.25737 151.40936"
         y="1087.6733"
         sodipodi:role="line"
         id="tspan212">defnitely</tspan><tspan
         x="90.60199 97.363991 110.03699 115.18899 125.83799"
         y="1115.6821"
         sodipodi:role="line"
         id="tspan214">this!</tspan></text><text
       style="font-variant:normal;font-weight:normal;font-size:23px;font-family:'DejaVu Sans';-inkscape-font-specification:DejaVuSans;writing-mode:lr-tb;fill:#000000;fill-opacity:1;fill-rule:nonzero;stroke:none"
       id="text220"
       x="131.12799"
       y="1115.6821"><tspan
         x="131.12799 137.01599"
         y="1115.6821"
         sodipodi:role="line"
         id="tspan218">  </tspan></text><path
       d="m 705.09666,1277.6034 h 194.371 v 194.371 h -194.371 z"
       style="fill:#fcfe7d;fill-opacity:1;fill-rule:evenodd;stroke:none"
       id="path222" /><text
       style="font-variant:normal;font-weight:normal;font-size:16.6976px;font-family:'DejaVu Sans';-inkscape-font-specification:DejaVuSans;writing-mode:lr-tb;fill:#000000;fill-opacity:1;fill-rule:nonzero;stroke:none"
       id="text236"
       x="713.90326"
       y="1329.1467"><tspan
         x="713.90326 725.79193 735.32629 744.8606 754.42834 758.16858 761.89215 771.07581 780.64355 784.93481 788.67511 797.85876 802.58417 812.11853 817.61206 831.1037 839.88666 844.79572 848.51929 858.05365 867.2373 871.06104 875.35236 884.88666"
         y="1329.1467"
         sodipodi:role="line"
         id="tspan224">Googling information, or</tspan><tspan
         x="753.22583 762.40948 770.15717 773.89746 783.08112 792.64886 796.94012 806.42438 814.00507 822.25366 831.63776 835.37799 839.66925 843.40955"
         y="1349.4806"
         sodipodi:role="line"
         id="tspan226">using Excel is</tspan><tspan
         x="731.09412 739.34271 748.54309 757.32605 761.06635 764.78986 774.19061 783.37433 792.94202 796.68231 805.86597 815.43372 819.25745 823.54871 833.03296 841.13129 850.69904 860.09979 868.34839"
         y="1369.8145"
         sodipodi:role="line"
         id="tspan228">challenging. Expect</tspan><tspan
         x="715.66431 724.44727 733.63092 741.3786 753.61798 763.01874 768.51221 776.25989 780.55121 790.1189 795.61243 805.14679 813.31189 817.05212 826.6366 836.03729 845.62177 850.54755 858.77948 862.51971 871.92047 880.70337 884.8277"
         y="1390.1484"
         sodipodi:role="line"
         id="tspan230">answers provided/clear,</tspan><tspan
         x="724.78363 733.03223 741.81512 750.99884 755.2901 764.47382 772.2215 781.60553 785.89679 793.64453 797.38477 810.85974 820.42743 824.16772 833.56848 837.85974 848.84674 858.41449 867.96552 875.7132"
         y="1410.4822"
         sodipodi:role="line"
         id="tspan232">can use simple Apps,</tspan><tspan
         x="725.23608 733.48474 742.26764 751.35114 754.65729 759.56635 763.85767 771.58862 781.12299 784.86322 793.02838 802.42908 806.7204 816.28809 821.78162 831.31592 840.90039 844.64062 854.04138 867.51636 875.26404"
         y="1430.8162"
         sodipodi:role="line"
         id="tspan234">can't solve problems.</tspan></text><path
       d="m 705.09666,1063.2324 h 194.371 v 194.371 h -194.371 z"
       style="fill:#fcfe7d;fill-opacity:1;fill-rule:evenodd;stroke:none"
       id="path238" /><text
       style="font-variant:normal;font-weight:normal;font-size:16.6976px;font-family:'DejaVu Sans';-inkscape-font-specification:DejaVuSans;writing-mode:lr-tb;fill:#000000;fill-opacity:1;fill-rule:nonzero;stroke:none"
       id="text252"
       x="715.94971"
       y="1114.7755"><tspan
         x="715.94971 725.43396 730.34302 739.52673 749.11115 758.5119 767.69556 772.58795 776.87921 785.74567 793.84399 803.41174 812.81244 821.0611 825.95349 834.73639 839.64551 843.38574 852.9201 862.10376 869.85144 874.14276 883.67706"
         y="1114.7755"
         sodipodi:role="line"
         id="tspan240">Student expectations of</tspan><tspan
         x="730.52344 739.72382 749.25812 761.4975 765.78876 775.18951 783.97241 791.72015 799.88525 804.15985 813.72754 819.23779 828.77209 838.33984 843.83331 852.61627 866.10791"
         y="1135.1094"
         sodipodi:role="line"
         id="tspan242">how easy programs</tspan><tspan
         x="722.73309 730.48077 739.68115 749.21552 758.39917 762.13947 771.70715 775.99847 785.58289 794.98364 799.2749 804.18402 813.71832 818.00958 827.1933 834.94098 844.22485 848.04858 852.3399 863.61078 872.39368"
         y="1155.4432"
         sodipodi:role="line"
         id="tspan244">should be to use. Can</tspan><tspan
         x="740.01776 749.20142 756.9491 766.34985 770.64117 781.61145 791.1792 800.74689 808.49463 812.78589 822.3703 831.55396 836.46307 840.75433 849.93805 859.47235"
         y="1175.7772"
         sodipodi:role="line"
         id="tspan246">use Apps but not</tspan><tspan
         x="718.40784 726.65649 736.1908 749.66577 759.23352 762.97375 771.84021 779.93854 784.2298 793.79755 799.29102 808.82538 818.39307 823.8866 832.66956 846.16119 853.90887 858.2002 862.32446 871.50818 881.04248"
         y="1196.1111"
         sodipodi:role="line"
         id="tspan248">complex programs (not</tspan><tspan
         x="739.55707 743.29736 752.48102 757.39014 766.57379 770.29736 775.20648 778.94672 787.11188 796.51263 800.80389 810.18793 819.37164 828.90594 838.0896 847.65735 856.85773 860.99872"
         y="1216.4449"
         sodipodi:role="line"
         id="tspan250">intuitive enough).</tspan></text><path
       d="m 490.72566,1063.2324 h 194.371 v 194.371 h -194.371 z"
       style="fill:#fcfe7d;fill-opacity:1;fill-rule:evenodd;stroke:none"
       id="path254" /><text
       style="font-variant:normal;font-weight:normal;font-size:16.6976px;font-family:'DejaVu Sans';-inkscape-font-specification:DejaVuSans;writing-mode:lr-tb;fill:#000000;fill-opacity:1;fill-rule:nonzero;stroke:none"
       id="text270"
       x="503.84894"
       y="1104.6085"><tspan
         x="503.84894 511.59662 516.50574 525.68939 535.2738 544.6579 553.84155 558.75067 566.49835 570.78961 579.98999 588.77295 596.93805 606.33881 610.63007 620.21454 623.93805 628.66351 633.38892 642.78967 648.2832 657.6839 666.86761"
         y="1104.6085"
         sodipodi:role="line"
         id="tspan256">students have different</tspan><tspan
         x="503.81226 512.59521 520.3429 528.09058 537.27423 550.74921 560.31696 565.22601 568.96631 578.50061 587.68433 595.43201 599.72327 608.50623 617.68988 627.27429 631.56561 640.04797 649.23163 658.81604 663.10736 666.8476"
         y="1124.9424"
         sodipodi:role="line"
         id="tspan258">assumptions and fnd it</tspan><tspan
         x="498.96524 508.16562 516.94855 522.44208 532.02649 536.31775 541.22687 550.76117 555.05249 563.83539 569.34558 574.2547 577.97827 586.22687 595.41058 599.15082 607.93378 612.84283 622.24359 626.51819 631.42731 640.62769 650.16199 657.90967 667.31042 671.60168"
         y="1145.2762"
         sodipodi:role="line"
         id="tspan260">hard to articulate those -</tspan><tspan
         x="507.99075 512.89984 522.10022 531.50098 539.66608 543.94067 553.47504 558.20044 563.1095 572.51025 581.69397 585.98523 594.21716 603.01678 612.10028 615.38971 620.29883 624.59009 629.49921 638.8999 642.6402 646.36377 650.65503 659.83868"
         y="1165.6102"
         sodipodi:role="line"
         id="tspan262">they often can't tell us</tspan><tspan
         x="499.76425 512.0036 521.20398 529.98694 534.896 539.18726 544.09637 553.29675 562.68079 570.84595 575.13721 583.92017 589.43036 598.83112 603.12238 610.85339 615.76245 621.27264 630.45636 640.02405 649.5918 653.31537 657.0556 666.23932"
         y="1185.9442"
         sodipodi:role="line"
         id="tspan264">what they are struggling</tspan><tspan
         x="502.04712 514.2865 518.02673 522.93585 532.13623 535.95996 540.25122 552.49054 561.87463 566.16589 575.36627 584.14923 592.31433 601.71509 606.00635 610.91547 620.44983 624.74109 636.98041 646.51477 652.00824 660.59082 664.88208 668.62238"
         y="1206.2781"
         sodipodi:role="line"
         id="tspan266">with, we have to work it</tspan><tspan
         x="536.53082 546.06512 555.24884 560.1579 564.44922 573.98352 583.16718 588.66071 596.40839 605.80914 609.54938 617.69781 627.09857"
         y="1226.6119"
         sodipodi:role="line"
         id="tspan268">out ourselves</tspan></text><text
       style="font-variant:normal;font-weight:normal;font-size:16.6976px;font-family:'DejaVu Sans';-inkscape-font-specification:DejaVuSans;writing-mode:lr-tb;fill:#000000;fill-opacity:1;fill-rule:nonzero;stroke:none"
       id="text274"
       x="634.84625"
       y="1226.6119"><tspan
         x="634.84625"
         y="1226.6119"
         id="tspan272"> </tspan></text><path
       d="m 713.95566,843.5414 h 194.16 v 194.16 h -194.16 z"
       style="fill:#fcfe7d;fill-opacity:1;fill-rule:evenodd;stroke:#000000;stroke-width:3;stroke-linecap:butt;stroke-linejoin:miter;stroke-miterlimit:10;stroke-dasharray:none;stroke-opacity:1"
       id="path278" /><text
       style="font-variant:normal;font-weight:normal;font-size:22.904px;font-family:'DejaVu Sans';-inkscape-font-specification:DejaVuSans;writing-mode:lr-tb;fill:#000000;fill-opacity:1;fill-rule:nonzero;stroke:none"
       id="text292"
       x="739.04089"
       y="878.01617"><tspan
         x="739.04089 749.66833 762.74652 769.20544 775.93927 792.72791 804.77539 812.33368 825.22864 831.11499 844.19318 850.6521 857.38586 870.28082"
         y="878.01617"
         sodipodi:role="line"
         id="tspan280">software often</tspan><tspan
         x="735.41187 748.53583 761.43079 768.16455 778.7691 784.65546 789.78595 802.38312 808.26947 815.00323 827.62335 840.51831 846.4046 863.19324 875.24072"
         y="905.90808"
         sodipodi:role="line"
         id="tspan282">gets in the way</tspan><tspan
         x="757.71191 770.7901 777.27191 783.15826 788.26587 801.16083 813.20831 820.76666 833.36383 838.47144 851.0686"
         y="933.79993"
         sodipodi:role="line"
         id="tspan284">of learning</tspan><tspan
         x="749.92255 763.04657 770.58197 775.71246 788.30963 799.62421 804.7547 817.87872 823.00922 835.88129 846.50873 852.39502 865.47321"
         y="961.69189"
         sodipodi:role="line"
         id="tspan286">principles of</tspan><tspan
         x="749.5647 760.19214 766.9259 778.97339 785.70721 796.31177 801.57965 807.466 818.07056 831.19452 843.24207 849.97583 855.10632 867.15381"
         y="989.58362"
         sodipodi:role="line"
         id="tspan288">stats, spatial</tspan><tspan
         x="771.2608 783.30835 795.90552 807.95306 813.08356 824.28357 834.91107 840.01862"
         y="1017.4756"
         sodipodi:role="line"
         id="tspan290">analysis</tspan></text><path
       d="m 47.83066,1183.5254 h 200.164 v 200.164 h -200.164 z"
       style="fill:#fcfe7d;fill-opacity:1;fill-rule:evenodd;stroke:none"
       id="path294" /><text
       style="font-variant:normal;font-weight:normal;font-size:19.2031px;font-family:'DejaVu Sans';-inkscape-font-specification:DejaVuSans;writing-mode:lr-tb;fill:#000000;fill-opacity:1;fill-rule:nonzero;stroke:none"
       id="text310"
       x="57.871288"
       y="1219.4249"><tspan
         x="57.871288 66.781532 72.427238 82.988945 94.011528 104.80367 115.36537 121.01109 129.92134 134.85652 148.93239 159.51331 170.47827 175.41348 186.41684 196.97855 201.28004 205.56233 210.49753 221.46249 232.0242"
         y="1219.4249"
         sodipodi:role="line"
         id="tspan296">students who pull out</tspan><tspan
         x="64.181679 69.827393 80.408302 91.21965 95.501938 101.83896 106.77415 122.27105 133.23604 144.25861 148.5601 152.8616 163.65375 168.58894 179.59232 190.17322 201.13818 211.69989 222.51125"
         y="1242.8099"
         sodipodi:role="line"
         id="tspan298">their mobile phones</tspan><tspan
         x="56.342915 61.988625 72.953598 77.888794 87.989624 99.012207 110.03479 114.96999 125.53168 136.53506 141.47026 151.57109 156.50629 165.97342 176.93839 181.23988 191.80159 207.31769 217.87939 222.81459 233.76036"
         y="1266.1949"
         sodipodi:role="line"
         id="tspan300">to add up a column of</tspan><tspan
         x="74.284874 84.846581 95.408287 110.90519 121.92776 132.73912 139.07614 147.96716 152.90237 157.20386 167.76556 172.70076 183.60812 192.32632 201.81265 212.62401 216.92551"
         y="1289.58"
         sodipodi:role="line"
         id="tspan302">numbers in Excel!</tspan><tspan
         x="64.148857 69.583336 80.375481 91.186829 95.488327 104.39856 109.33376 113.63525 117.91754 127.34628 138.15762 143.0928 157.16869 167.96083 172.89603 182.99686 189.33388 200.14522 210.70692 222.01755 225.80055"
         y="1312.965"
         sodipodi:role="line"
         id="tspan304">feels like we aren#'t</tspan><tspan
         x="62.217297 71.127533 76.773247 86.874077 93.191902 98.837616 103.13911 113.70081 124.70419 129.63939 140.60435 151.16606 156.10126 161.74696 172.30867 183.12003 188.05521 196.96545 207.06628 222.58238"
         y="1336.3501"
         sodipodi:role="line"
         id="tspan306">starting on the same</tspan><tspan
         x="119.46558 130.46896 134.77045 144.87128 155.433 166.24434 171.87085"
         y="1359.7351"
         sodipodi:role="line"
         id="tspan308">planet!</tspan></text><path
       d="m 487.42066,1245.8384 h 82 v 82 h -82 z"
       style="fill:#c7fe80;fill-opacity:1;fill-rule:evenodd;stroke:none"
       id="path312" /><text
       style="font-variant:normal;font-weight:normal;font-size:13.6667px;font-family:'DejaVu Sans';-inkscape-font-specification:DejaVuSans;writing-mode:lr-tb;fill:#000000;fill-opacity:1;fill-rule:nonzero;stroke:none"
       id="text320"
       x="514.88995"
       y="1274.4448"><tspan
         x="514.88995 523.06262 530.74329 535.2533"
         y="1274.4448"
         sodipodi:role="line"
         id="tspan314">Very</tspan><tspan
         x="497.59305 504.78174 512.61273 517.10913 524.80347 532.4978 540.34247 543.8548 551.65851"
         y="1291.0876"
         sodipodi:role="line"
         id="tspan316">agreed on</tspan><tspan
         x="503.0784 507.09641 514.62677 517.68811 524.01581 527.52814 535.33179 542.84851 550.54285"
         y="1307.7306"
         sodipodi:role="line"
         id="tspan318">this one!</tspan></text><text
       xml:space="preserve"
       id="text10207"
       x="483.46036"
       y="68.604858"><tspan
         sodipodi:role="line"
         id="tspan67824"
         x="483.46036"
         y="68.604858"><tspan
           sodipodi:role="line"
           id="tspan10211"
           style="font-size:48px;text-align:center;text-anchor:middle;stroke-width:0.75">Higher Education</tspan></tspan><tspan
         sodipodi:role="line"
         id="tspan67826"
         x="483.46036"
         y="128.60486"><tspan
           sodipodi:role="line"
           style="font-size:48px;text-align:center;text-anchor:middle;stroke-width:0.75"
           id="tspan67828">Quantitative Geography</tspan></tspan><tspan
         sodipodi:role="line"
         x="483.46036"
         y="188.60486"
         id="tspan67830"><tspan
           sodipodi:role="line"
           style="font-size:48px;text-align:center;text-anchor:middle;stroke-width:0.75"
           id="tspan67832">Methods Teaching (HEQGMT)</tspan></tspan></text><text
       xml:space="preserve"
       transform="matrix(0.75000002,0,0,0.75000002,-1178.5907,95.85234)"
       id="text12745"
       style="font-style:normal;font-weight:normal;font-size:64px;line-height:1.25;font-family:sans-serif;white-space:pre;shape-inside:url(#rect12747);fill:#000000;fill-opacity:1;stroke:none"><tspan
         x="1907.4688"
         y="275.29688"
         id="tspan19945">Existing challenges</tspan></text></g></svg>
