<?xml version="1.0" encoding="UTF-8" standalone="no"?>
<!-- Created with Inkscape (http://www.inkscape.org/) -->

<svg
   version="1.1"
   id="svg2"
   xml:space="preserve"
   width="1143.498"
   height="1802.0404"
   viewBox="0 0 1143.4981 1802.0404"
   sodipodi:docname="mural_2innovations.svg.2021_11_17_11_47_59.0.svg"
   inkscape:version="1.1.1 (eb90963e84, 2021-10-02)"
   xmlns:inkscape="http://www.inkscape.org/namespaces/inkscape"
   xmlns:sodipodi="http://sodipodi.sourceforge.net/DTD/sodipodi-0.dtd"
   xmlns="http://www.w3.org/2000/svg"
   xmlns:svg="http://www.w3.org/2000/svg"><defs
     id="defs6" /><sodipodi:namedview
     id="namedview4"
     pagecolor="#ffffff"
     bordercolor="#666666"
     borderopacity="1.0"
     inkscape:pageshadow="2"
     inkscape:pageopacity="0.0"
     inkscape:pagecheckerboard="0"
     showgrid="false"
     inkscape:zoom="0.56752268"
     inkscape:cx="544.47163"
     inkscape:cy="858.99651"
     inkscape:window-width="2560"
     inkscape:window-height="1376"
     inkscape:window-x="0"
     inkscape:window-y="0"
     inkscape:window-maximized="1"
     inkscape:current-layer="g1096"
     fit-margin-top="0"
     fit-margin-left="0"
     fit-margin-right="0"
     fit-margin-bottom="0" /><g
     id="g8"
     inkscape:groupmode="layer"
     inkscape:label="mural (another copy)"
     transform="scale(1.3333333)"><path
       d="M 0,0 H 857.62359 V 1351.5303 H 0 Z"
       style="fill:#fafafa;fill-opacity:1;fill-rule:evenodd;stroke:none;stroke-width:0.999999"
       id="path12" /><g
       id="g1096"
       transform="translate(1117.8687,32.33699)"><path
         d="m -1078.9847,209.24427 h 790.00147 V 1286.5564 h -790.00147 z"
         style="fill:none;stroke:#81b0f3;stroke-width:6.99999;stroke-linecap:butt;stroke-linejoin:miter;stroke-miterlimit:10;stroke-dasharray:none;stroke-opacity:1"
         id="path326" /><path
         d="m -1048.9999,528.52853 h 246.69504 V 775.2235 h -246.69504 z"
         style="fill:#9bedfd;fill-opacity:1;fill-rule:evenodd;stroke:none"
         id="path328" /><text
         style="font-variant:normal;font-weight:normal;font-size:23.5652px;font-family:'DejaVu Sans';-inkscape-font-specification:DejaVuSans;writing-mode:lr-tb;fill:#000000;fill-opacity:1;fill-rule:nonzero;stroke:none"
         id="text344"
         x="-1026.3447"
         y="573.11395"><tspan
           x="-1026.3447 -1020.7362 -1016.0703 -1004.5468 -991.30316 -985.24689 -971.72052 -958.45331 -945.1861 -932.22528 -926.16901 -912.64252 -899.18683 -893.93182 -880.97089 -867.46808 -861.4118 -854.4837 -841.49921 -836.22064"
           y="573.11395"
           sodipodi:role="line"
           id="tspan330">I've been doing this</tspan><tspan
           x="-1025.804 -1019.135 -1005.6791 -997.92621 -991.86993 -978.01361 -963.6153 -957.55902 -946.03571 -932.76849 -920.37311 -912.62018 -901.68597 -895.6297 -888.58368 -882.5274 -871.5932 -864.66498 -852.26971 -839.3089"
           y="601.81097"
           sodipodi:role="line"
           id="tspan332">for 20 years - stand</tspan><tspan
           x="-1030.5043 -1018.109 -1012.8304 -999.37457 -986.41376 -972.91083 -966.85468 -953.35175 -940.39093 -927.99567 -915.03473 -908.10663 -902.05035 -890.43268 -876.97699 -864.01605 -856.23956 -845.30536 -832.06171"
           y="630.508"
           sodipodi:role="line"
           id="tspan334">along quant courses</tspan><tspan
           x="-1011.4266 -999.03119 -991.2547 -978.01105 -971.95477 -966.67621 -953.409 -942.47479 -931.56403 -925.50787 -913.11249 -900.15167 -886.62518 -880.56903 -875.29034 -862.02313 -851.08893"
           y="659.20514"
           sodipodi:role="line"
           id="tspan336">are less and less</tspan><tspan
           x="-1023.5487 -1015.4893 -1003.0941 -991.45282 -979.81158 -966.56793 -953.06512 -946.1369 -933.74164 -920.21515 -914.93658 -901.74005 -893.68073 -887.64813 -880.71991 -867.26422 -861.20795 -854.27972 -841.29535"
           y="687.90216"
           sodipodi:role="line"
           id="tspan338">&quot;acceptable&quot; to the</tspan><tspan
           x="-1039.4736 -1026.5127 -1013.5518 -1008.2733 -1002.8768 -996.8205 -979.54718 -966.35077 -961.70831 -953.93182 -940.66461 -934.60834 -922.11884 -910.68976 -897.18683 -883.91962 -872.27838 -865.35028 -852.10663 -838.58026 -832.52399 -825.59576"
           y="716.5993"
           sodipodi:role="line"
           id="tspan340">uni, we're expected to</tspan><tspan
           x="-989.96124 -976.69403 -957.67694 -944.15045 -930.88324 -917.35687 -911.3006 -900.36639 -888.2774 -882.99884 -877.72015 -872.44159"
           y="745.29633"
           sodipodi:role="line"
           id="tspan342">embed skills</tspan></text><path
         d="m -1055.6192,309.70764 h 137.99998 v 138 h -137.99998 z"
         style="fill:#9bedfd;fill-opacity:1;fill-rule:evenodd;stroke:none"
         id="path346" /><text
         style="font-variant:normal;font-weight:normal;font-size:23px;font-family:'DejaVu Sans';-inkscape-font-specification:DejaVuSans;writing-mode:lr-tb;fill:#000000;fill-opacity:1;fill-rule:nonzero;stroke:none"
         id="text352"
         x="-1010.1619"
         y="371.85843"><tspan
           x="-1010.1619 -994.06189 -981.96387 -975.2019"
           y="371.85843"
           sodipodi:role="line"
           id="tspan348">Data</tspan><tspan
           x="-1026.5977 -1013.1427 -1001.7808 -996.62866 -983.67969 -971.02966 -959.69067"
           y="399.86722"
           sodipodi:role="line"
           id="tspan350">Science</tspan></text><path
         d="m -897.61922,309.70764 h 138 v 138 h -138 z"
         style="fill:#9bedfd;fill-opacity:1;fill-rule:evenodd;stroke:none"
         id="path354" /><text
         style="font-variant:normal;font-weight:normal;font-size:20.9375px;font-family:'DejaVu Sans';-inkscape-font-specification:DejaVuSans;writing-mode:lr-tb;fill:#000000;fill-opacity:1;fill-rule:nonzero;stroke:none"
         id="text360"
         x="-856.49133"
         y="372.47269"><tspan
           x="-856.49133 -845.81323 -841.14417 -827.26257 -813.48572"
           y="372.47269"
           sodipodi:role="line"
           id="tspan356">LiDAR</tspan><tspan
           x="-883.58838 -872.57532 -860.57812 -848.58093 -843.89087 -839.20093 -828.18774 -817.8656 -811.70996 -807.02002 -795.0647 -783.54907"
           y="397.97"
           sodipodi:role="line"
           id="tspan358">appliactions</tspan></text><path
         d="m -812.24586,528.52853 h 242.613 V 771.1415 h -242.613 z"
         style="fill:#9bedfd;fill-opacity:1;fill-rule:evenodd;stroke:none"
         id="path362" /><text
         style="font-variant:normal;font-weight:normal;font-size:26.2636px;font-family:'DejaVu Sans';-inkscape-font-specification:DejaVuSans;writing-mode:lr-tb;fill:#000000;fill-opacity:1;fill-rule:nonzero;stroke:none"
         id="text368"
         x="-792.81354"
         y="594.0379"><tspan
           x="-792.81354 -786.79913 -780.78485 -774.77045 -768.88739 -754.44244 -746.72089 -731.72443 -724.97467 -711.5014 -697.05646 -682.06 -662.80878 -656.92572 -642.13934 -627.06403 -612.01495 -597.22858"
           y="594.0379"
           sodipodi:role="line"
           id="tspan364">...into knowledge-</tspan><tspan
           x="-767.96063 -762.07758 -747.2912 -732.24213 -725.49237 -704.27142 -689.27484 -674.19952 -659.75458 -653.87152 -639.11139 -626.92511"
           y="626.02094"
           sodipodi:role="line"
           id="tspan366">led modules.</tspan></text><text
         style="font-variant:normal;font-weight:normal;font-size:26.2636px;font-family:'DejaVu Sans';-inkscape-font-specification:DejaVuSans;writing-mode:lr-tb;fill:#000000;fill-opacity:1;fill-rule:nonzero;stroke:none"
         id="text372"
         x="-664.35406"
         y="674.92706"><tspan
           x="-664.35406"
           y="674.92706"
           id="tspan370"> </tspan></text><text
         style="font-variant:normal;font-weight:normal;font-size:26.2636px;font-family:'DejaVu Sans';-inkscape-font-specification:DejaVuSans;writing-mode:lr-tb;fill:#000000;fill-opacity:1;fill-rule:nonzero;stroke:none"
         id="text380"
         x="-786.97211"
         y="658.00409"><tspan
           x="-786.97211 -765.75116 -751.93646 -739.06732 -724.28094 -712.09467 -705.34491 -699.46185 -691.7403 -684.99066 -670.51935 -656.70465 -648.06403 -632.98871 -626.23895 -618.80634 -603.80988"
           y="658.00409"
           sodipodi:role="line"
           id="tspan374">Makes it hard for</tspan><tspan
           x="-802.29047 -790.10406 -782.38263 -767.93768 -752.86237 -738.10223 -723.65717 -715.93573 -703.74945 -696.99969 -689.27814 -674.28168 -667.53192 -659.81036 -651.16974 -637.35504 -622.9101 -610.72369 -603.2912 -588.53094"
           y="689.98712"
           sodipodi:role="line"
           id="tspan376">students to transfer</tspan><tspan
           x="-784.65106 -772.46466 -758.99152 -753.10846 -747.2254 -741.34235 -729.15607 -722.40631 -710.24628 -695.24969 -674.02875 -659.24237 -651.54706 -645.664 -624.44305 -609.68292"
           y="721.97028"
           sodipodi:role="line"
           id="tspan378">skills sometimes</tspan></text><path
         d="m -692.11922,309.70764 h 200.5 v 200.5 h -200.5 z"
         style="fill:#9bedfd;fill-opacity:1;fill-rule:evenodd;stroke:none"
         id="path382" /><text
         style="font-variant:normal;font-weight:normal;font-size:20.7539px;font-family:'DejaVu Sans';-inkscape-font-specification:DejaVuSans;writing-mode:lr-tb;fill:#000000;fill-opacity:1;fill-rule:nonzero;stroke:none"
         id="text396"
         x="-673.90619"
         y="353.23038"><tspan
           x="-673.90619 -667.80463 -656.3692 -644.68475 -637.85675 -626.1723 -620.83844 -609.92194 -603.09393 -591.40948 -586.07574 -576.44586 -564.5954 -559.26166 -542.51324 -531.59674 -520.18207"
           y="353.23038"
           sodipodi:role="line"
           id="tspan384">there are so many</tspan><tspan
           x="-671.66156 -659.74884 -655.10004 -649.24738 -643.37408 -631.68964 -624.86151 -613.17706 -601.76251 -595.66083 -590.32709 -580.6972 -568.84674 -562.9942 -556.89252 -541.67987 -530.76337 -523.91461"
           y="378.50394"
           sodipodi:role="line"
           id="tspan386">different software</tspan><tspan
           x="-670.1922 -658.34174 -646.44977 -640.34808 -635.69928 -623.84869 -612.43414 -602.82501 -598.07245 -592.73871 -581.82208 -570.40741 -558.49469 -553.16095 -547.05927 -535.62396 -523.93951"
           y="403.7775"
           sodipodi:role="line"
           id="tspan388">options, and they</tspan><tspan
           x="-682.42865 -672.23859 -660.57489 -648.89044 -636.99847 -631.66461 -621.41229 -609.97687 -599.06024 -587.64569 -575.7536 -571.1048 -559.69012 -547.79816 -542.46442 -536.27972 -530.94598 -519.53131 -507.68085"
           y="429.05106"
           sodipodi:role="line"
           id="tspan390">keep changing - not</tspan><tspan
           x="-648.24762 -638.61774 -627.20319 -620.37506 -608.69061 -603.35687 -597.25531 -585.81989 -581.17096 -571.56195 -566.22821 -561.57928 -551.94952 -546.61578"
           y="454.32449"
           sodipodi:role="line"
           id="tspan392">sure this is a</tspan><tspan
           x="-679.55072 -667.65875 -655.80829 -646.17841 -641.5296 -635.44867 -630.79987 -620.65118 -608.96674 -603.633 -598.98407 -587.5694 -576.15485 -564.30426 -554.1557 -543.23907 -537.15826 -532.50934 -520.65887 -509.2442"
           y="479.59818"
           sodipodi:role="line"
           id="tspan394">positive innovation!</tspan></text><path
         d="m -1048.9999,805.2235 h 221.141 v 221.141 h -221.141 z"
         style="fill:#9bedfd;fill-opacity:1;fill-rule:evenodd;stroke:none"
         id="path404" /><text
         style="font-variant:normal;font-weight:normal;font-size:18.3681px;font-family:'DejaVu Sans';-inkscape-font-specification:DejaVuSans;writing-mode:lr-tb;fill:#000000;fill-opacity:1;fill-rule:nonzero;stroke:none"
         id="text424"
         x="-1027.6694"
         y="832.03345"><tspan
           x="-1027.6694 -1013.6179 -1003.5154 -997.47235 -992.75177 -987.55353 -977.89191 -968.83649 -958.73407 -954.61957 -949.2193 -940.23737 -935.51678 -924.97345 -914.63226 -905.55841 -901.46234 -890.91901 -880.57782 -870.03448 -865.3139 -859.91364"
           y="832.03345"
           sodipodi:role="line"
           id="tspan406">Our faculty decided to</tspan><tspan
           x="-1011.4001 -1007.2856 -997.18317 -988.20123 -977.87836 -969.35553 -963.95526 -959.23468 -955.12018 -945.01776 -940.29718 -925.47406 -914.9859 -908.9245 -898.58319 -893.88104 -880.80292 -876.43134"
           y="854.40173"
           sodipodi:role="line"
           id="tspan408">invest in more GIS</tspan><tspan
           x="-1014.9338 -1010.8194 -1000.4781 -991.42267 -986.0224 -975.91998 -969.85846 -959.53558 -953.47418 -944.95135 -940.74506 -936.02448 -922.56061 -912.43976 -901.9516 -897.23102 -887.11017 -876.78729 -872.67291"
           y="876.7699"
           sodipodi:role="line"
           id="tspan410">lecturers, who help</tspan><tspan
           x="-1033.0822 -1028.9677 -1018.8653 -1009.7914 -999.30328 -993.26019 -982.73517 -972.24701 -966.20392 -956.5423 -951.14203 -940.80084 -936.08026 -925.53693 -921.42255 -910.89752 -906.80145 -901.40131 -891.73969 -887.62518 -882.9046 -874.38177 -864.94061 -860.84454 -856.73004 -852.61566"
           y="899.13806"
           sodipodi:role="line"
           id="tspan412">incorporate digital skills</tspan><tspan
           x="-1029.2256 -1025.1111 -1015.0087 -1010.288 -999.79987 -994.39972 -984.29718 -973.95599 -967.89447 -963.17389 -954.11847 -943.63019 -933.52777 -927.46637 -918.94354 -908.62067 -900.09784 -895.89154 -891.17096 -878.16632 -867.67816 -862.27789 -857.55731"
           y="921.50623"
           sodipodi:role="line"
           id="tspan414">in other courses. Not a</tspan><tspan
           x="-1031.9252 -1023.4024 -1012.9142 -1008.7997 -998.69733 -993.31549 -989.20099 -978.71283 -968.61041 -963.88971 -954.22809 -945.24615 -935.58453 -931.47003 -927.35565 -917.69403 -907.1507 -903.03619 -892.71344 -887.99274 -882.59259 -872.10443 -867.38373 -857.72211 -853.60773 -849.49323"
           y="943.87451"
           sodipodi:role="line"
           id="tspan416">solution available to all,</tspan><tspan
           x="-1024.4272 -1013.884 -1003.7816 -998.38129 -993.66071 -983.1358 -977.09271 -966.60455 -956.06122 -946.3996 -935.85626 -931.74188 -922.75983 -918.03925 -912.6391 -902.51825 -892.19537 -887.47479 -876.93146 -866.59027 -858.06744"
           y="966.24268"
           sodipodi:role="line"
           id="tspan418">but probably the best</tspan><tspan
           x="-1021.7457 -1008.2818 -998.62018 -989.63824 -984.91754 -979.5174 -969.02924 -964.30853 -960.19415 -950.11005 -941.12799 -930.7868 -922.26398 -916.86371 -912.14313 -908.02875 -897.92633 -893.20563 -884.70123 -874.59882 -865.52496"
           y="988.61084"
           sodipodi:role="line"
           id="tspan420">way to invest in such</tspan><tspan
           x="-957.87421 -949.3515 -939.92865 -935.81415 -931.69977 -927.58527"
           y="1010.979"
           sodipodi:role="line"
           id="tspan422">skills</tspan></text><path
         d="m -511.27169,724.89578 h 138 v 138 h -138 z"
         style="fill:#fcfe7d;fill-opacity:1;fill-rule:evenodd;stroke:none"
         id="path426" /><text
         style="font-variant:normal;font-weight:normal;font-size:21.625px;font-family:'DejaVu Sans';-inkscape-font-specification:DejaVuSans;writing-mode:lr-tb;fill:#000000;fill-opacity:1;fill-rule:nonzero;stroke:none"
         id="text432"
         x="-485.25793"
         y="787.45471"><tspan
           x="-485.25793 -471.65576 -460.28101 -449.70642 -437.53149 -427.51917 -422.67517 -411.30042"
           y="787.45471"
           sodipodi:role="line"
           id="tspan428">Bayesian</tspan><tspan
           x="-497.60669 -485.43188 -474.8573 -462.70398 -455.56775 -444.99316 -438.63538 -426.71997 -421.89758 -410.00391 -397.61279"
           y="813.78906"
           sodipodi:role="line"
           id="tspan430">everything!</tspan></text><text
         style="font-variant:normal;font-weight:normal;font-size:21.625px;font-family:'DejaVu Sans';-inkscape-font-specification:DejaVuSans;writing-mode:lr-tb;fill:#000000;fill-opacity:1;fill-rule:nonzero;stroke:none"
         id="text436"
         x="-392.63904"
         y="813.78894"><tspan
           x="-392.63904"
           y="813.78894"
           id="tspan434"> </tspan></text><path
         d="m -1051.1009,1056.0637 h 207.59796 v 207.602 h -207.59796 z"
         style="fill:#fcfe7d;fill-opacity:1;fill-rule:evenodd;stroke:none"
         id="path438" /><text
         style="font-variant:normal;font-weight:normal;font-size:24.1001px;font-family:'DejaVu Sans';-inkscape-font-specification:DejaVuSans;writing-mode:lr-tb;fill:#000000;fill-opacity:1;fill-rule:nonzero;stroke:none"
         id="text452"
         x="-1040.2659"
         y="1093.989"><tspan
           x="-1040.2659 -1034.53 -1028.3363 -1021.5402 -1007.9719 -994.4035 -989.00507 -982.81134 -965.14594 -951.60175 -945.40802 -934.22552 -927.14008 -914.46344 -906.51044 -899.44904 -893.25531 -880.57867 -873.49323 -867.2995"
           y="1093.989"
           sodipodi:role="line"
           id="tspan440">I feel we start at a</tspan><tspan
           x="-1022.9263 -1017.5279 -1003.7668 -986.10138 -972.53302 -964.60419 -958.41046 -944.60101 -930.8399 -925.44147 -912.18646 -905.12506 -898.93134 -885.17023"
           y="1123.3374"
           sodipodi:role="line"
           id="tspan442">lower point on</tspan><tspan
           x="-1032.2051 -1018.6368 -1005.3818 -998.29633 -990.36737 -978.58246 -972.38873 -959.13361 -945.3725 -927.70709 -921.51337 -910.33099 -896.56976 -890.37604 -885.00177 -877.91632 -873.86749"
           y="1152.6859"
           sodipodi:role="line"
           id="tspan444">entry now so it's</tspan><tspan
           x="-1038.1007 -1024.8215 -1012.145 -1004.216 -990.38251 -984.18878 -977.10333 -963.34222 -957.1485 -943.33917 -937.94073 -926.03522 -913.67194 -907.47821 -889.81281 -876.53363 -863.85699"
           y="1182.0343"
           sodipodi:role="line"
           id="tspan446">hard to pick what</tspan><tspan
           x="-1018.2606 -1005.0054 -991.43707 -973.77179 -967.57806 -960.49261 -947.21344 -941.83905 -928.58405 -914.77472 -903.59222 -897.3985 -890.31305"
           y="1211.3828"
           sodipodi:role="line"
           id="tspan448">new things to</tspan><tspan
           x="-997.35529 -991.95697 -978.70184 -971.61639 -963.68756 -949.92633 -936.09283 -922.83783 -910.93243"
           y="1240.7312"
           sodipodi:role="line"
           id="tspan450">introduce</tspan></text><path
         d="m -788.7699,858.1955 h 161.961 v 161.961 h -161.961 z"
         style="fill:#9bedfd;fill-opacity:1;fill-rule:evenodd;stroke:none"
         id="path454" /><text
         style="font-variant:normal;font-weight:normal;font-size:19.6829px;font-family:'DejaVu Sans';-inkscape-font-specification:DejaVuSans;writing-mode:lr-tb;fill:#000000;fill-opacity:1;fill-rule:nonzero;stroke:none"
         id="text466"
         x="-767.55499"
         y="897.35974"><tspan
           x="-767.55499 -757.75287 -752.6944 -742.89227 -731.81085 -722.69769 -717.63922 -711.75397 -706.6955 -692.26788 -681.18646 -676.12799 -665.77472 -659.29901"
           y="897.35974"
           sodipodi:role="line"
           id="tspan456">&lt; Yes - we are</tspan><tspan
           x="-763.21576 -752.86249 -748.45355 -739.32074 -728.08173 -723.02325 -717.25616 -710.7608 -701.13593 -696.72687 -685.90131 -674.62299 -669.56451 -663.79742"
           y="921.3291"
           sodipodi:role="line"
           id="tspan458">also trying to</tspan><tspan
           x="-757.93463 -752.14789 -741.06635 -730.7132 -721.00946 -710.16425 -705.10565 -695.97284 -684.73395 -668.83014"
           y="945.29834"
           sodipodi:role="line"
           id="tspan460">teach some</tspan><tspan
           x="-768.9245 -759.20123 -747.96222 -732.07819 -720.79987 -709.9743 -704.18744 -693.83429 -688.04755 -683.63849 -672.3996 -661.57404 -651.22076"
           y="969.2677"
           sodipodi:role="line"
           id="tspan462">computational</tspan><tspan
           x="-771.6828 -765.89606 -755.05084 -750.64178 -739.81622 -729.71893 -725.30988 -714.48431 -703.20599 -698.14752 -686.84955 -676.4964 -667.36346 -662.97418 -653.25079"
           y="993.23706"
           sodipodi:role="line"
           id="tspan464">thinking basics</tspan></text><path
         d="m -529.82669,932.49778 h 202.723 v 202.72302 h -202.723 z"
         style="fill:#fcfe7d;fill-opacity:1;fill-rule:evenodd;stroke:none"
         id="path468" /><text
         style="font-variant:normal;font-weight:normal;font-size:22.0045px;font-family:'DejaVu Sans';-inkscape-font-specification:DejaVuSans;writing-mode:lr-tb;fill:#000000;fill-opacity:1;fill-rule:nonzero;stroke:none"
         id="text482"
         x="-513.0072"
         y="973.71179"><tspan
           x="-513.0072 -502.79712 -497.86804 -492.96106 -480.35254 -468.22803 -461.75867 -456.82971 -446.06946 -440.41431 -430.20422 -418.62988 -411.39038 -400.52014 -388.9458 -378.73572 -372.26648 -367.3374 -356.48914 -350.83398"
           y="973.71179"
           sodipodi:role="line"
           id="tspan470">slightly sarcastic -</tspan><tspan
           x="-482.62744 -468.78662 -457.21228 -446.45203 -434.0636 -423.87549 -418.94641 -407.37207 -395.26965 -389.6145 -384.68542"
           y="1000.5084"
           sodipodi:role="line"
           id="tspan472">Bayesian is</tspan><tspan
           x="-514.01721 -501.3866 -488.99805 -477.81982 -465.71729 -460.78833 -454.31897 -441.93042 -437.00146 -426.24121 -420.60803 -409.01172 -403.37854 -391.27612 -378.88757 -362.7583 -350.36975"
           y="1027.3048"
           sodipodi:role="line"
           id="tspan474">defnitely a newer</tspan><tspan
           x="-502.51526 -490.94092 -483.67944 -471.31299 -459.73853 -454.69958 -449.04443 -437.46997 -425.36755 -412.73694 -407.08179 -402.15283 -395.68347 -391.98669 -381.77661 -376.12146 -364.54712 -359.61804"
           y="1054.1014"
           sodipodi:role="line"
           id="tspan476">area, and it's all</tspan><tspan
           x="-513.20056 -500.63599 -489.87585 -477.4873 -470.2478 -464.59265 -458.12329 -445.9989 -433.61035 -427.9552 -420.7157 -408.32715 -398.11707 -385.75049 -374.17615 -366.91467 -356.04443"
           y="1080.8978"
           sodipodi:role="line"
           id="tspan478">over the research</tspan><tspan
           x="-503.69177 -498.76282 -486.66028 -481.00513 -463.24756 -452.4873 -446.83215 -436.62207 -424.51965 -411.88904 -405.30969 -394.10938 -381.74292 -376.81384 -364.18323"
           y="1107.6942"
           sodipodi:role="line"
           id="tspan480">in my sub-feld,</tspan></text><text
         style="font-variant:normal;font-weight:normal;font-size:22.0045px;font-family:'DejaVu Sans';-inkscape-font-specification:DejaVuSans;writing-mode:lr-tb;fill:#000000;fill-opacity:1;fill-rule:nonzero;stroke:none"
         id="text486"
         x="-359.14429"
         y="1107.6945"><tspan
           x="-359.14429"
           y="1107.6945"
           id="tspan484"> </tspan></text><path
         d="m -530.15022,486.72764 h 212.012 v 212.016 h -212.012 z"
         style="fill:#ffe08a;fill-opacity:1;fill-rule:evenodd;stroke:none"
         id="path488" /><text
         style="font-variant:normal;font-weight:normal;font-size:19.2408px;font-family:'DejaVu Sans';-inkscape-font-specification:DejaVuSans;writing-mode:lr-tb;fill:#000000;fill-opacity:1;fill-rule:nonzero;stroke:none"
         id="text504"
         x="-512.67267"
         y="528.42621"><tspan
           x="-512.67267 -500.01227 -488.98724 -482.65704 -471.82452 -461.12665 -456.72052 -451.77557 -441.65497 -437.34503 -428.43646 -417.45001 -412.50507 -408.19513 -402.53839 -397.59344 -386.54926 -375.56281 -364.73016 -355.82172 -345.33551 -341.54498"
           y="528.42621"
           sodipodi:role="line"
           id="tspan490">Agree, also it doesn't</tspan><tspan
           x="-516.11127 -505.27863 -489.7514 -478.72638 -467.73993 -453.63641 -442.80377 -436.47357 -431.52875 -422.02374 -411.42206 -401.30145 -390.71893 -379.69403 -375.38409 -364.80157 -353.77667 -348.83173 -337.84528"
           y="551.85712"
           sodipodi:role="line"
           id="tspan492">empower changing of</tspan><tspan
           x="-517.19171 -506.60919 -496.02679 -484.9826 -474.14996 -467.81976 -463.50983 -454.10114 -449.7912 -439.20868 -428.18378 -423.23883 -417.60126 -406.99957 -396.16705 -385.18048 -378.83112 -369.44159 -364.49664 -358.74371 -353.79877 -349.21942 -343.56268 -340.33026"
           y="575.28802"
           sodipodi:role="line"
           id="tspan494">underlying theory - It's</tspan><tspan
           x="-518.30963 -508.80475 -497.81818 -487.23578 -478.30804 -472.67047 -466.32098 -456.20038 -451.89044 -441.30792 -430.4754 -419.45038 -414.50555 -408.84869 -397.86224 -392.91742 -382.79669 -371.77167 -360.74677 -356.43683 -352.12689 -341.31354"
           y="598.71906"
           sodipodi:role="line"
           id="tspan496">constrained to applied</tspan><tspan
           x="-497.7536 -483.65009 -472.66364 -466.33331 -456.44354 -451.49872 -445.74567 -440.80084 -430.21832 -419.23187 -413.57513 -408.63019 -398.50958 -387.46527 -383.17462 -372.3421 -367.39716 -361.74042"
           y="622.14996"
           sodipodi:role="line"
           id="tspan498">work - not able to</tspan><tspan
           x="-507.68402 -496.659 -486.0766 -475.24408 -466.31635 -460.67877 -456.36884 -445.38226 -434.79987 -429.85492 -419.27252 -408.69012 -397.64581 -386.81329 -380.48309 -376.17316 -366.76434 -362.45441 -351.87201"
           y="645.58087"
           sodipodi:role="line"
           id="tspan500">question underlying</tspan><tspan
           x="-479.21747 -469.09674 -460.16901 -451.24127 -440.65887 -425.13153 -414.10651 -408.44977 -404.13983 -393.15338 -382.57086 -373.64313"
           y="669.01178"
           sodipodi:role="line"
           id="tspan502">assumptions.</tspan></text><path
         d="m -572.24065,828.69678 h 129.96896 v 129.969 h -129.96896 z"
         style="fill:#ffcb43;fill-opacity:1;fill-rule:evenodd;stroke:none"
         id="path506" /><text
         style="font-variant:normal;font-weight:normal;font-size:21.6616px;font-family:'DejaVu Sans';-inkscape-font-specification:DejaVuSans;writing-mode:lr-tb;fill:#000000;fill-opacity:1;fill-rule:nonzero;stroke:none"
         id="text512"
         x="-560.17853"
         y="887.229"><tspan
           x="-560.17853 -547.67987 -535.48438 -524.09033 -519.23816 -514.38599 -505.0498 -500.06763 -494.50061 -482.13184 -475.00513 -469.43811 -464.58594"
           y="887.229"
           sodipodi:role="line"
           id="tspan508">Really, or is</tspan><tspan
           x="-559.82428 -553.45587 -541.52026 -536.66797 -526.63867 -521.07166 -509.67761 -504.1106 -499.25842 -486.88965 -476.25378 -464.85986"
           y="913.60803"
           sodipodi:role="line"
           id="tspan510">this a joke?</tspan></text><text
         xml:space="preserve"
         id="text10207-6"
         x="-919.97491"
         y="275.41739"
         style="font-size:48px"><tspan
           sodipodi:role="line"
           x="-919.97491"
           y="275.41739"
           id="tspan67830-8"
           style="font-size:48px">Recent innovations</tspan></text></g><text
       xml:space="preserve"
       id="text10207"
       x="433.59177"
       y="77.722809"><tspan
         sodipodi:role="line"
         id="tspan67824"
         x="433.59177"
         y="77.722809"><tspan
           sodipodi:role="line"
           id="tspan10211"
           style="font-size:48px;text-align:center;text-anchor:middle;stroke-width:0.75">Higher Education</tspan></tspan><tspan
         sodipodi:role="line"
         id="tspan67826"
         x="433.59177"
         y="137.72281"><tspan
           sodipodi:role="line"
           style="font-size:48px;text-align:center;text-anchor:middle;stroke-width:0.75"
           id="tspan67828">Quantitative Geography</tspan></tspan><tspan
         sodipodi:role="line"
         x="433.59177"
         y="197.72281"
         id="tspan67830"><tspan
           sodipodi:role="line"
           style="font-size:48px;text-align:center;text-anchor:middle;stroke-width:0.75"
           id="tspan67832">Methods Teaching (HEQGMT)</tspan></tspan></text></g></svg>
