<svg width="380" height="102" xmlns="http://www.w3.org/2000/svg"><g fill-rule="nonzero" fill="none"><g fill="#000"><path d="M115.556 37.02h2.465a4.485 4.485 0 013.452 1.27 5.028 5.028 0 011.195 3.597 6.846 6.846 0 01-.299 2.09 4.149 4.149 0 01-.896 1.567 3.87 3.87 0 01-1.494.97 5.323 5.323 0 01-1.958.344h-2.525l.06-9.838zm2.376 8.808a3.214 3.214 0 002.585-1.03 4.475 4.475 0 00.851-2.911 4.252 4.252 0 00-.851-2.851 3.289 3.289 0 00-2.585-.986h-1.136v7.778h1.136zM124.192 43.23a4.25 4.25 0 01.284-1.612c.159-.449.408-.86.732-1.209a2.99 2.99 0 012.226-1.015 2.99 2.99 0 011.24.239c.352.158.663.393.912.686.256.317.444.683.553 1.075.15.483.221.987.209 1.493a4.19 4.19 0 010 .672h-4.93c.02.687.28 1.347.731 1.866a2.212 2.212 0 001.704.686c.33.004.658-.046.97-.149.295-.106.576-.246.838-.418l.448.821a7.19 7.19 0 01-1.076.523 3.708 3.708 0 01-1.33.223 3.529 3.529 0 01-1.374-.268 3.287 3.287 0 01-1.106-.747 3.463 3.463 0 01-.747-1.194 4.475 4.475 0 01-.284-1.672zm5.095-.552a2.67 2.67 0 00-.463-1.717 1.584 1.584 0 00-1.33-.597 1.824 1.824 0 00-.747.164 1.868 1.868 0 00-.627.448 2.224 2.224 0 00-.479.717c-.13.315-.215.646-.254.985h3.9zM132.14 39.573h1.27v4.478c-.042.52.073 1.04.33 1.493a1.18 1.18 0 001.045.448 1.78 1.78 0 001.001-.284 4.63 4.63 0 00.957-.94v-5.165h1.15v7.255h-1.016l-.104-1.15a4.944 4.944 0 01-1.076.97c-.394.246-.851.37-1.315.359a1.958 1.958 0 01-1.703-.717 3.565 3.565 0 01-.538-2.134v-4.613zM140.687 40.573h-1.076v-.925l1.136-.075.15-2.045h1.03v2.045h1.943v1h-1.943v4.046c-.02.365.069.729.254 1.044.215.26.546.395.882.359.139.02.28.02.418 0a1.6 1.6 0 00.404-.135l.239.94-.658.18a2.811 2.811 0 01-.687.09 2.378 2.378 0 01-.986-.18 1.494 1.494 0 01-.643-.507 1.895 1.895 0 01-.358-.761 4.072 4.072 0 01-.105-.986v-4.09zM145.364 45.2c.3.252.631.463.986.628.364.169.764.25 1.165.239.388.034.774-.084 1.076-.329.236-.2.368-.497.359-.806a.806.806 0 00-.15-.493 1.494 1.494 0 00-.388-.358 1.958 1.958 0 00-.523-.283l-.598-.24a7.041 7.041 0 01-.777-.313 2.735 2.735 0 01-.702-.418 2.27 2.27 0 01-.508-.567 1.492 1.492 0 01-.194-.806c-.001-.279.06-.554.18-.806.105-.258.274-.484.492-.657.23-.204.5-.357.792-.448a3.604 3.604 0 012.316.09 4.2 4.2 0 01.986.582l-.583.776a4.633 4.633 0 00-.777-.463 2.168 2.168 0 00-.881-.179 1.405 1.405 0 00-1.016.314 1.03 1.03 0 00-.329.731.731.731 0 00.135.448c.103.132.23.243.373.328.162.1.332.185.508.254l.613.239.792.314c.25.101.487.237.702.403.212.168.39.375.523.612.139.266.206.565.194.865 0 .287-.055.571-.164.836a2.105 2.105 0 01-.508.702 2.57 2.57 0 01-.852.463 3.29 3.29 0 01-1.136.179 4.217 4.217 0 01-1.494-.284 4.483 4.483 0 01-1.225-.731l.613-.821zM151.445 43.23a4.266 4.266 0 01.284-1.627c.17-.45.428-.862.762-1.209.312-.33.695-.586 1.12-.746a3.35 3.35 0 011.33-.254c.427-.01.851.076 1.24.254.323.167.624.372.897.612l-.613.79a3.96 3.96 0 00-.687-.462 1.705 1.705 0 00-.777-.179c-.32-.002-.638.07-.927.209a2.36 2.36 0 00-.717.567 2.82 2.82 0 00-.463.896c-.123.37-.184.759-.18 1.15-.001.384.054.766.165 1.134.1.32.257.618.463.88.191.237.43.43.703.568.29.134.606.2.926.194.326.008.65-.063.941-.21.277-.138.533-.314.762-.522l.553.806a4.08 4.08 0 01-1.106.702 3.305 3.305 0 01-1.255.254 3.68 3.68 0 01-1.36-.254 3.227 3.227 0 01-1.09-.746 3.79 3.79 0 01-.717-1.195 4.564 4.564 0 01-.254-1.612zM158.886 36.184h1.24v4.404c.335-.318.7-.603 1.09-.85a2.557 2.557 0 011.33-.344 1.958 1.958 0 011.688.716c.402.637.59 1.384.538 2.135v4.613h-1.225v-4.479a2.52 2.52 0 00-.343-1.492 1.166 1.166 0 00-1.046-.463 1.75 1.75 0 00-1.001.284 7.185 7.185 0 00-.987.835v5.315h-1.24l-.044-10.674zM166.58 43.23a4.25 4.25 0 01.284-1.612c.165-.446.413-.856.732-1.209.294-.321.65-.58 1.046-.761a3.08 3.08 0 011.21-.254 2.99 2.99 0 011.24.239c.354.154.666.389.912.686.253.321.446.685.568 1.075.137.486.202.989.194 1.493a4.19 4.19 0 010 .672h-4.99c.005.688.26 1.35.717 1.866a2.212 2.212 0 001.703.686c.33.006.658-.044.971-.149.3-.103.587-.243.852-.418l.433.821a6.547 6.547 0 01-1.076.523 3.649 3.649 0 01-1.33.223 3.529 3.529 0 01-1.374-.268 3.287 3.287 0 01-1.106-.747 3.463 3.463 0 01-.747-1.194 4.474 4.474 0 01-.239-1.672zm5.11-.552a2.67 2.67 0 00-.478-1.717 1.584 1.584 0 00-1.33-.597 1.87 1.87 0 00-.747.164c-.236.108-.449.26-.627.448a2.224 2.224 0 00-.478.717 3.177 3.177 0 00-.24.985h3.9zM174.634 39.573h1.016l.12 1.314c.21-.427.517-.8.896-1.09.332-.26.742-.402 1.165-.403.267-.007.532.044.777.15l-.24 1.074-.328-.09h-.373a1.63 1.63 0 00-.972.374c-.4.352-.7.806-.866 1.313v4.643h-1.24l.045-7.285zM187.632 43.872h-3.586l-.94 2.986h-1.27l3.331-9.838h1.405l3.331 9.838h-1.33l-.94-2.986zm-.313-1l-.464-1.493c-.179-.537-.343-1.09-.508-1.642-.164-.552-.313-1.09-.478-1.657-.15.568-.313 1.12-.463 1.657a34.5 34.5 0 01-.508 1.642l-.478 1.493h2.899zM191.248 36.184h1.21v7.225l3.093-3.836h1.375l-2.45 2.986 2.778 4.358h-1.36l-2.12-3.508-1.375 1.583v1.866h-1.21zM198.24 44.962a2.03 2.03 0 011.076-1.836 8.852 8.852 0 013.407-.88 3.445 3.445 0 00-.075-.688 1.656 1.656 0 00-.239-.582 1.3 1.3 0 00-.448-.403 1.495 1.495 0 00-.732-.164 2.856 2.856 0 00-1.195.239 6.785 6.785 0 00-.987.537l-.493-.85c.394-.25.809-.466 1.24-.643a4.396 4.396 0 011.63-.298 2.227 2.227 0 011.926.82c.43.644.64 1.408.598 2.18v4.479h-1.016l-.104-.881a5.738 5.738 0 01-1.136.746 2.721 2.721 0 01-1.285.314 2.213 2.213 0 01-1.494-.538 1.94 1.94 0 01-.672-1.552zm1.21-.09c-.035.343.106.68.374.896.267.186.587.28.912.269.343.002.682-.08.986-.24a4.482 4.482 0 001-.73V43.05c-.503.058-1.003.152-1.493.284-.356.079-.698.21-1.016.388a1.494 1.494 0 00-.553.522 1.313 1.313 0 00-.21.627zM205.83 43.23a4.847 4.847 0 01.255-1.597c.16-.441.398-.85.702-1.21.278-.319.618-.578 1.001-.76.378-.179.792-.27 1.21-.27.376-.007.749.07 1.09.225.338.166.653.372.942.612v-4.046h1.24v10.674h-1.016l-.104-.866a4.482 4.482 0 01-1.001.731 2.422 2.422 0 01-1.196.314 2.705 2.705 0 01-2.21-1 4.326 4.326 0 01-.912-2.807zm1.27 0c-.04.72.143 1.433.524 2.045.34.483.903.758 1.494.732.334.002.663-.08.956-.239.34-.2.644-.457.896-.761v-3.822a3.138 3.138 0 00-.896-.582 2.198 2.198 0 00-.867-.18c-.287 0-.57.073-.821.21a2.017 2.017 0 00-.673.567 2.985 2.985 0 00-.448.866c-.111.373-.166.76-.164 1.15v.014zM214.213 43.23a4.564 4.564 0 01.269-1.612c.17-.447.423-.857.747-1.209.288-.32.64-.58 1.03-.761a3.11 3.11 0 011.226-.254 2.99 2.99 0 011.225.239c.358.154.675.389.926.686.256.317.444.683.553 1.075.146.484.211.988.194 1.493a4.19 4.19 0 010 .672h-4.915c.011.69.271 1.352.732 1.866a2.212 2.212 0 001.703.686c.325.007.649-.044.956-.149.3-.103.587-.243.852-.418l.433.821a6.382 6.382 0 01-1.06.523 3.708 3.708 0 01-1.33.223 3.47 3.47 0 01-1.375-.268 3.153 3.153 0 01-1.105-.747 3.254 3.254 0 01-.748-1.194 4.475 4.475 0 01-.313-1.672zm5.095-.552a2.67 2.67 0 00-.478-1.717 1.495 1.495 0 00-1.315-.597 1.824 1.824 0 00-.747.164c-.241.108-.459.26-.643.448-.195.21-.351.453-.463.717a3.177 3.177 0 00-.254.985h3.9zM222.266 39.573h1.016l.105 1.045c.309-.338.66-.634 1.045-.88a2.332 2.332 0 011.226-.344c.46-.026.917.1 1.3.358.327.27.57.627.702 1.03a6.378 6.378 0 011.15-1.015 2.243 2.243 0 011.255-.373 1.988 1.988 0 011.674.716c.402.637.59 1.384.538 2.135v4.613h-1.226v-4.479a2.536 2.536 0 00-.328-1.492 1.166 1.166 0 00-1.016-.463 2.72 2.72 0 00-1.838 1.12v5.314h-1.225v-4.479a2.655 2.655 0 00-.329-1.492 1.18 1.18 0 00-1.03-.463 2.72 2.72 0 00-1.839 1.12v5.314h-1.225l.045-7.285zM235.4 38.065a.882.882 0 01-.613-.224.716.716 0 01-.24-.567.686.686 0 01.24-.567.957.957 0 011.225 0c.165.14.253.351.239.567a.716.716 0 01-.24.567.882.882 0 01-.612.224zm-.628 1.493h1.225v7.3h-1.225v-7.3zM238.343 45.2c.292.254.62.465.97.628.366.166.765.248 1.166.239.388.034.774-.084 1.076-.329.236-.2.368-.497.359-.806a.806.806 0 00-.15-.493 1.494 1.494 0 00-.373-.358 2.048 2.048 0 00-.538-.283l-.598-.24a8.455 8.455 0 01-.777-.313 2.735 2.735 0 01-.702-.418 1.956 1.956 0 01-.493-.567 1.492 1.492 0 01-.21-.806 1.956 1.956 0 01.672-1.463c.232-.2.502-.353.793-.448a3.275 3.275 0 011.046-.15c.435-.006.867.075 1.27.24.358.148.695.344 1 .582l-.582.776a4.752 4.752 0 00-.792-.463 2.108 2.108 0 00-.881-.179 1.495 1.495 0 00-1.016.314c-.2.19-.313.455-.314.731a.731.731 0 00.135.448c.097.132.219.243.358.328.165.103.34.188.523.254l.598.239c.269.09.523.194.792.314.256.1.497.236.717.403.208.168.38.376.508.612.144.265.216.564.209.865.003.289-.059.574-.18.836-.113.27-.287.51-.507.702-.249.204-.532.36-.837.463a3.44 3.44 0 01-1.15.179 4.067 4.067 0 01-1.495-.284 4.603 4.603 0 01-1.24-.731l.643-.821zM244.35 43.23a4.266 4.266 0 01.283-1.627c.175-.447.434-.858.762-1.209.318-.324.7-.578 1.12-.746a3.364 3.364 0 011.345-.254c.427-.009.851.078 1.24.254.32.163.617.369.882.612l-.613.79a3.855 3.855 0 00-.672-.462 1.764 1.764 0 00-.792-.179 2.048 2.048 0 00-.911.209c-.281.136-.53.33-.732.567a3.164 3.164 0 00-.464.896c-.123.37-.184.759-.179 1.15-.002.384.053.766.164 1.134.106.317.262.614.464.88.639.745 1.697.97 2.584.553.275-.135.527-.311.747-.523l.553.806a4.005 4.005 0 01-1.09.702 3.38 3.38 0 01-1.27.254 3.649 3.649 0 01-1.345-.254 2.988 2.988 0 01-1.09-.746 3.313 3.313 0 01-.718-1.195 4.564 4.564 0 01-.269-1.612zM251.805 36.184h1.225v4.404c.338-.314.703-.6 1.09-.85.41-.233.874-.351 1.345-.344a1.973 1.973 0 011.689.716c.389.642.571 1.387.523 2.135v4.613h-1.226v-4.479a2.536 2.536 0 00-.328-1.492 1.18 1.18 0 00-1.046-.463c-.36-.01-.714.09-1.016.284a8.2 8.2 0 00-.986.835v5.315h-1.225l-.045-10.674zM259.5 43.23a4.564 4.564 0 01.268-1.612c.17-.443.419-.852.732-1.209a3.421 3.421 0 011.046-.761 3.11 3.11 0 011.226-.254 2.99 2.99 0 011.225.239c.358.154.675.389.926.686.248.322.436.686.553 1.075.145.484.21.988.194 1.493a4.19 4.19 0 010 .672h-4.96c.011.69.27 1.352.732 1.866a2.212 2.212 0 001.703.686c.325.007.649-.044.956-.149.3-.103.587-.243.852-.418l.433.821a6.382 6.382 0 01-1.06.523 3.708 3.708 0 01-1.33.223 3.47 3.47 0 01-1.375-.268 3.347 3.347 0 01-1.12-.747 3.433 3.433 0 01-.733-1.194 4.475 4.475 0 01-.269-1.672zm5.094-.552a2.67 2.67 0 00-.478-1.717 1.57 1.57 0 00-1.33-.597 1.81 1.81 0 00-.732.164c-.24.108-.458.26-.642.448-.2.207-.357.45-.463.717a3.177 3.177 0 00-.254.985h3.9zM267.553 39.573h1.016l.104 1.314c.222-.425.533-.797.912-1.09a1.839 1.839 0 011.15-.403c.272-.007.542.044.792.15l-.239 1.074-.329-.09h-.388a1.585 1.585 0 00-.956.374c-.407.35-.712.804-.882 1.313v4.643h-1.225l.045-7.285zM280.552 43.872h-3.586l-.942 2.986h-1.285l3.332-9.838h1.42l3.332 9.838h-1.33l-.941-2.986zm-.314-1l-.463-1.493c-.18-.537-.359-1.09-.523-1.642-.165-.552-.314-1.09-.478-1.657-.15.568-.3 1.12-.464 1.657-.164.538-.328 1.105-.508 1.642l-.463 1.493h2.899zM283.973 39.573h1.24v4.478c-.038.518.07 1.035.314 1.493a1.21 1.21 0 001.046.448 1.72 1.72 0 001-.284c.369-.264.696-.581.972-.94v-5.165h1.225v7.255h-.97l-.106-1.15a4.944 4.944 0 01-1.075.97c-.4.246-.861.37-1.33.359a1.988 1.988 0 01-1.703-.717 3.58 3.58 0 01-.523-2.134l-.09-4.613zM292.116 45.2c.293.254.62.465.971.628.366.166.764.248 1.166.239.387.034.773-.084 1.075-.329.237-.2.369-.497.359-.806a.806.806 0 00-.15-.493 1.494 1.494 0 00-.373-.358 2.048 2.048 0 00-.538-.283l-.598-.24a8.455 8.455 0 01-.776-.313 2.735 2.735 0 01-.703-.418 2.27 2.27 0 01-.508-.567 1.686 1.686 0 01-.194-.806 1.956 1.956 0 01.672-1.463c.232-.2.501-.353.792-.448a3.275 3.275 0 011.046-.15c.435-.006.867.075 1.27.24.359.148.695.344 1.001.582l-.582.776a4.752 4.752 0 00-.792-.463 2.108 2.108 0 00-.882-.179 1.495 1.495 0 00-1.016.314c-.2.19-.313.455-.314.731a.731.731 0 00.135.448c.097.132.219.243.358.328.166.103.34.188.523.254l.598.239c.269.09.523.194.792.314.256.1.498.236.717.403.208.168.38.376.508.612.144.265.216.564.21.865a2.105 2.105 0 01-.687 1.538c-.25.204-.533.36-.838.463a3.44 3.44 0 01-1.15.179 4.067 4.067 0 01-1.494-.284 4.603 4.603 0 01-1.24-.731l.642-.821zM298.87 40.573h-1.106v-.925l1.135-.075.15-2.045h1.03v2.045h1.973v1h-1.972v4.046c-.02.365.068.729.254 1.044.214.26.546.395.881.359.139.02.28.02.419 0a1.6 1.6 0 00.403-.135l.239.94-.657.18c-.225.059-.456.09-.688.09a2.422 2.422 0 01-.986-.18 1.494 1.494 0 01-.642-.507 1.895 1.895 0 01-.359-.761 4.981 4.981 0 01-.104-.986l.03-4.09zM303.172 44.962a2.03 2.03 0 011.076-1.836 8.971 8.971 0 013.407-.88 3.46 3.46 0 000-.688 2 2 0 00-.24-.582 1.36 1.36 0 00-.462-.403 1.495 1.495 0 00-.733-.164 2.9 2.9 0 00-1.195.239 7.682 7.682 0 00-.986.537l-.493-.85a8.13 8.13 0 011.255-.643 4.262 4.262 0 011.614-.298c.74-.07 1.465.239 1.927.82.436.642.65 1.407.613 2.18v4.479h-1.031l-.105-.881a5.633 5.633 0 01-1.12.746 2.811 2.811 0 01-1.285.314c-.548.01-1.08-.181-1.494-.538a1.985 1.985 0 01-.748-1.552zm1.226-.09c-.034.34.1.674.358.896.267.186.587.28.912.269.348 0 .69-.081 1-.24.361-.197.693-.443.987-.73V43.05c-.505.058-1.004.152-1.494.284a3.902 3.902 0 00-1.016.388 1.494 1.494 0 00-.553.522 1.298 1.298 0 00-.194.627zM311.21 39.573h1.256v4.478c-.039.518.07 1.035.314 1.493a1.21 1.21 0 001.046.448c.354.01.703-.09 1-.284a4.63 4.63 0 00.957-.94v-5.165h1.24v7.255h-1.031l-.105-1.15a4.57 4.57 0 01-1.06.97c-.4.246-.862.37-1.33.359a1.988 1.988 0 01-1.703-.717 3.565 3.565 0 01-.538-2.134l-.045-4.613zM319.324 45.2c.3.252.631.463.986.628.365.169.764.25 1.165.239.388.034.774-.084 1.076-.329.236-.2.368-.497.359-.806a.806.806 0 00-.15-.493 1.494 1.494 0 00-.388-.358 1.958 1.958 0 00-.523-.283l-.598-.24a8.714 8.714 0 01-.792-.313 2.989 2.989 0 01-.687-.418 2.27 2.27 0 01-.508-.567 1.492 1.492 0 01-.194-.806c-.001-.279.06-.554.18-.806.105-.258.274-.484.492-.657.226-.2.49-.353.777-.448a3.38 3.38 0 011.061-.15 3.26 3.26 0 011.27.24 4.2 4.2 0 01.986.582l-.583.776a4.633 4.633 0 00-.777-.463 2.168 2.168 0 00-.881-.179 1.405 1.405 0 00-1.016.314 1.03 1.03 0 00-.329.731.731.731 0 00.135.448c.1.128.222.24.358.328.169.097.343.182.523.254l.613.239.792.314c.251.101.487.237.702.403.213.168.39.375.523.612.139.266.206.565.194.865 0 .287-.055.571-.164.836a2.105 2.105 0 01-.508.702 2.57 2.57 0 01-.852.463 3.35 3.35 0 01-1.135.179 4.217 4.217 0 01-1.495-.284 4.483 4.483 0 01-1.225-.731l.613-.821zM325.345 43.23a4.266 4.266 0 01.284-1.627c.164-.453.424-.865.762-1.209.312-.33.695-.586 1.12-.746a3.35 3.35 0 011.33-.254c.428-.01.852.076 1.24.254.323.167.624.372.897.612l-.613.79a3.96 3.96 0 00-.687-.462 1.72 1.72 0 00-.792-.179 2.093 2.093 0 00-1.628.776 3.194 3.194 0 00-.478.896c-.112.373-.167.76-.165 1.15-.002.384.053.766.165 1.134.094.318.246.617.448.88.196.238.44.431.717.568.285.133.597.199.911.194.331.01.66-.062.957-.21.276-.138.532-.314.762-.522l.552.806a4.08 4.08 0 01-1.105.702 3.32 3.32 0 01-1.27.254 3.649 3.649 0 01-1.345-.254 3.227 3.227 0 01-1.09-.746 3.79 3.79 0 01-.718-1.195 4.564 4.564 0 01-.254-1.612zM332.786 36.184h1.24v4.404a6.514 6.514 0 011.09-.85 2.557 2.557 0 011.33-.344 1.958 1.958 0 011.689.716c.402.637.59 1.384.538 2.135v4.613h-1.24v-4.479a2.536 2.536 0 00-.33-1.492 1.166 1.166 0 00-1.045-.463 1.75 1.75 0 00-1.001.284 7.185 7.185 0 00-.986.835v5.315h-1.24l-.045-10.674zM340.496 43.23a4.475 4.475 0 01.268-1.597c.156-.44.389-.85.688-1.21.283-.32.629-.578 1.016-.76.373-.179.781-.27 1.195-.27.376-.007.749.07 1.09.225.34.17.66.375.957.612v-4.046h1.24v10.674h-1.016l-.104-.866a4.93 4.93 0 01-1.002.731c-.369.208-.786.316-1.21.314a2.66 2.66 0 01-2.196-1 4.252 4.252 0 01-.926-2.807zm1.284 0c-.047.72.137 1.436.523 2.045.335.49.902.767 1.495.732.334.004.663-.078.956-.239.343-.203.65-.46.911-.761v-3.822a3.138 3.138 0 00-.896-.582 2.273 2.273 0 00-.882-.18 1.764 1.764 0 00-.822.21 1.837 1.837 0 00-.657.567 2.641 2.641 0 00-.448.866c-.124.37-.184.759-.18 1.15v.014zM350.058 38.065a.852.852 0 01-.598-.224.731.731 0 01-.254-.567.701.701 0 01.254-.567.852.852 0 01.598-.224.867.867 0 01.612.224c.169.14.263.349.254.567a.731.731 0 01-.254.567.867.867 0 01-.612.224zm-.628 1.493h1.24v7.3h-1.24v-7.3zM352.643 43.23a4.25 4.25 0 01.284-1.612c.159-.449.408-.86.732-1.209.294-.321.65-.58 1.046-.761a3.08 3.08 0 011.21-.254 2.99 2.99 0 011.24.239c.354.154.666.389.911.686.254.321.446.685.568 1.075.137.486.203.989.194 1.493a4.19 4.19 0 010 .672h-4.93c.01.656.235 1.29.642 1.806a2.212 2.212 0 001.704.687c.33.004.657-.047.97-.15.295-.106.576-.246.837-.418l.449.821a7.19 7.19 0 01-1.076.523 3.708 3.708 0 01-1.33.224 3.529 3.529 0 01-1.374-.269 3.287 3.287 0 01-1.106-.746 3.463 3.463 0 01-.747-1.195 4.474 4.474 0 01-.224-1.612zm5.095-.552a2.67 2.67 0 00-.464-1.717 1.584 1.584 0 00-1.33-.597 1.87 1.87 0 00-.746.164c-.236.108-.45.26-.628.448a2.224 2.224 0 00-.478.717c-.13.315-.216.646-.254.985h3.9zM360.696 39.573h1.016l.105 1.045a6.648 6.648 0 011.105-.88c.41-.233.874-.351 1.345-.344a1.958 1.958 0 011.688.716 3.55 3.55 0 01.523 2.135v4.613h-1.225v-4.479a2.536 2.536 0 00-.329-1.492 1.18 1.18 0 00-1.046-.463 1.72 1.72 0 00-1 .284 7.2 7.2 0 00-1.002.835v5.315h-1.225l.045-7.285zM368.78 45.2c.295.258.627.47.985.628.365.169.764.25 1.166.239.387.034.773-.084 1.075-.329.237-.2.369-.497.36-.806a.806.806 0 00-.15-.493 1.494 1.494 0 00-.389-.358 1.958 1.958 0 00-.523-.283l-.597-.24a8.714 8.714 0 01-.792-.313 2.645 2.645 0 01-.688-.418 2.27 2.27 0 01-.508-.567 1.492 1.492 0 01-.194-.806c-.001-.279.06-.554.18-.806.105-.258.275-.484.493-.657.225-.2.49-.353.776-.448a3.38 3.38 0 011.061-.15 3.14 3.14 0 011.255.24c.359.148.696.344 1.001.582l-.582.776a4.633 4.633 0 00-.777-.463 2.168 2.168 0 00-.882-.179 1.405 1.405 0 00-1.016.314.985.985 0 00-.328.731.731.731 0 00.134.448c.097.132.219.243.359.328.166.1.341.185.523.254l.612.239c.254.09.523.194.777.314.258.098.5.234.717.403.213.168.39.375.523.612.14.266.206.565.194.865 0 .287-.055.571-.164.836a2.105 2.105 0 01-.508.702 2.72 2.72 0 01-.852.463 3.35 3.35 0 01-1.135.179 4.217 4.217 0 01-1.494-.284 4.483 4.483 0 01-1.225-.731l.612-.821zM375.548 40.573h-1.091v-.925l1.15-.075.15-2.045h1.03v2.045h1.958v1h-1.957v4.046c-.02.365.068.729.254 1.044.208.26.535.396.866.359.139.02.28.02.419 0a1.6 1.6 0 00.403-.135l.24.94-.643.18c-.23.06-.466.09-.703.09a2.422 2.422 0 01-.986-.18 1.643 1.643 0 01-.642-.507 1.701 1.701 0 01-.344-.761 4.072 4.072 0 01-.104-.986v-4.09zM114.988 59.785a6.25 6.25 0 01.33-2.12 4.671 4.671 0 01.955-1.612c.42-.441.93-.787 1.494-1.015a4.695 4.695 0 011.808-.343 3.499 3.499 0 011.704.373c.406.232.782.513 1.12.836l-.717.79a3.272 3.272 0 00-.852-.641 2.587 2.587 0 00-1.24-.269 2.99 2.99 0 00-1.344.284c-.401.18-.754.45-1.031.791-.29.375-.508.8-.643 1.254-.17.53-.25 1.085-.239 1.642a5.727 5.727 0 00.224 1.672c.12.461.334.893.628 1.269.272.343.62.62 1.016.806a3.544 3.544 0 002.405.134c.282-.088.542-.236.762-.433v-2.567h-2.077v-1.03h3.228v4.135a3.975 3.975 0 01-1.27.82 4.77 4.77 0 01-1.778.314 4.486 4.486 0 01-1.793-.343 3.81 3.81 0 01-1.39-.985 4.835 4.835 0 01-.911-1.613 6.369 6.369 0 01-.389-2.15zM124.222 61.069a4.117 4.117 0 01.284-1.598c.159-.448.408-.86.732-1.209.294-.321.65-.58 1.046-.761.366-.144.758-.21 1.15-.194a2.99 2.99 0 011.24.239c.355.153.667.388.912.686.253.321.446.685.568 1.075.129.457.194.929.194 1.403a4.19 4.19 0 010 .672h-4.93c.017.693.276 1.358.731 1.881a2.212 2.212 0 001.704.687c.33.004.658-.047.97-.15.293-.112.573-.252.838-.418l.448.807c-.34.21-.7.384-1.076.522a3.708 3.708 0 01-1.33.224c-.47 0-.936-.085-1.374-.254a3.526 3.526 0 01-1.106-.746 3.597 3.597 0 01-.747-1.194 4.475 4.475 0 01-.254-1.672zm5.095-.553a2.73 2.73 0 00-.389-1.716 1.614 1.614 0 00-1.33-.582 1.81 1.81 0 00-.746.149 1.868 1.868 0 00-.628.448 2.15 2.15 0 00-.478.731c-.129.31-.214.637-.254.97h3.825zM132.275 57.426h1.016l.105 1.314c.221-.425.532-.797.911-1.09.333-.26.743-.402 1.166-.403.266-.006.531.044.777.15l-.24 1.074-.328-.09a1.406 1.406 0 00-.374 0 1.6 1.6 0 00-.97.374c-.4.35-.704.798-.882 1.299v4.717h-1.226l.045-7.345zM137.55 57.426h1.016l.12 1.045a4.75 4.75 0 011.03-.88c.367-.23.792-.35 1.225-.344.466-.028.928.098 1.315.359.33.266.575.624.702 1.03a6.318 6.318 0 011.136-1.016 2.243 2.243 0 011.27-.313 1.973 1.973 0 011.673.716c.407.63.601 1.373.553 2.12v4.628h-1.24v-4.479a2.595 2.595 0 00-.329-1.492 1.166 1.166 0 00-1.016-.448 2.66 2.66 0 00-1.823 1.12v5.299h-1.24v-4.479a2.595 2.595 0 00-.328-1.492 1.18 1.18 0 00-1.031-.448 2.66 2.66 0 00-1.823 1.12v5.299h-1.24l.03-7.345zM149.697 62.815a2 2 0 011.075-1.836 8.971 8.971 0 013.407-.896 3.4 3.4 0 000-.671 1.7 1.7 0 00-.239-.582 1.255 1.255 0 00-.463-.418 1.495 1.495 0 00-.732-.15 2.9 2.9 0 00-1.196.24 6.202 6.202 0 00-.986.537l-.493-.851a8.13 8.13 0 011.255-.642 3.993 3.993 0 011.51-.239 2.227 2.227 0 011.927.806c.433.642.648 1.406.612 2.18v4.478h-1.046l-.104-.866a5.633 5.633 0 01-1.12.746c-.399.2-.84.303-1.286.299-.547.01-1.079-.181-1.494-.538a1.94 1.94 0 01-.627-1.597zm1.21-.09a1.06 1.06 0 00.373.896c.267.187.587.28.912.269.348 0 .69-.081 1-.239.356-.207.686-.452.987-.731v-2.03c-.613.09-1.12.179-1.494.283a4.485 4.485 0 00-1.016.403c-.225.12-.415.294-.553.508a1.328 1.328 0 00-.21.642zM157.81 57.426h1l.105 1.045a5.976 5.976 0 011.106-.88 2.512 2.512 0 011.345-.344 1.958 1.958 0 011.688.717c.402.63.59 1.374.538 2.12v4.687h-1.24v-4.479a2.595 2.595 0 00-.329-1.492 1.21 1.21 0 00-1.046-.448 1.72 1.72 0 00-1 .284 6.289 6.289 0 00-1.002.835v5.3h-1.225l.06-7.345zM173.752 61.785h-3.586l-.941 2.986h-1.27l3.317-9.823h1.42l3.331 9.823h-1.345l-.926-2.986zm-.314-1.015l-.463-1.493c-.18-.552-.359-1.09-.508-1.642-.15-.552-.329-1.104-.478-1.672a44.65 44.65 0 01-.478 1.672c-.165.538-.329 1.09-.508 1.642l-.463 1.493h2.898zM176.89 61.069a4.191 4.191 0 01.284-1.612c.169-.45.428-.862.762-1.21.311-.33.695-.586 1.12-.746a3.364 3.364 0 011.345-.254c.423-.016.843.071 1.225.254.328.158.63.364.896.612l-.612.791a3.272 3.272 0 00-.687-.463 1.66 1.66 0 00-.777-.179 2.153 2.153 0 00-.927.194 2.21 2.21 0 00-.717.583 2.82 2.82 0 00-.463.895 3.416 3.416 0 00-.18 1.135c-.003.389.053.776.165 1.15.1.314.257.607.463.865.187.245.427.444.702.582.291.133.607.199.927.194.325.002.647-.07.941-.209.273-.144.529-.32.762-.522l.553.806a3.527 3.527 0 01-1.106.686 2.99 2.99 0 01-1.255.254 3.394 3.394 0 01-1.36-.254 3.183 3.183 0 01-1.09-.731 3.716 3.716 0 01-.717-1.21 4.803 4.803 0 01-.254-1.611zM183.822 62.815a2 2 0 011.076-1.836 8.971 8.971 0 013.422-.896 3.43 3.43 0 00-.075-.671 1.492 1.492 0 00-.24-.582 1.255 1.255 0 00-.462-.418 1.495 1.495 0 00-.732-.15 2.9 2.9 0 00-1.196.24 5.455 5.455 0 00-.97.537l-.509-.851a8.13 8.13 0 011.255-.642 4.082 4.082 0 011.614-.299 2.257 2.257 0 011.942.806 3.7 3.7 0 01.598 2.18v4.478h-1.016l-.105-.866c-.35.29-.73.54-1.135.747a2.751 2.751 0 01-1.285.298c-.547.01-1.08-.18-1.494-.537a1.94 1.94 0 01-.688-1.538zm1.226-.09c-.034.34.1.674.358.896.267.187.587.28.912.269.348.002.691-.08 1-.239a6.23 6.23 0 001.002-.731v-2.03c-.613.09-1.136.179-1.494.283a4.485 4.485 0 00-1.016.403 1.36 1.36 0 00-.538.508c-.137.187-.214.41-.224.642zM191.412 61.069a4.476 4.476 0 01.27-1.583c.155-.44.388-.85.687-1.209.283-.32.629-.58 1.016-.761.373-.178.781-.27 1.195-.269.377-.017.752.06 1.09.224.343.164.664.37.957.612v-4.045h1.24V64.77h-1.016l-.105-.851a4.93 4.93 0 01-1 .731c-.371.204-.788.307-1.21.299a2.69 2.69 0 01-2.197-.985 4.267 4.267 0 01-.927-2.896zm1.285 0a3.446 3.446 0 00.523 2.06c.335.489.902.766 1.494.731.335.005.664-.078.957-.239.343-.202.65-.46.911-.761v-3.807a3.228 3.228 0 00-.896-.597 2.557 2.557 0 00-.882-.164 1.75 1.75 0 00-.822.194 1.987 1.987 0 00-.657.567 2.716 2.716 0 00-.448.881c-.122.36-.183.74-.18 1.12v.015zM199.794 61.069a4.475 4.475 0 01.284-1.598c.165-.446.414-.856.732-1.209a3.421 3.421 0 011.046-.761c.38-.172.793-.259 1.21-.254a2.99 2.99 0 011.24.24 2.3 2.3 0 01.912.686c.26.317.452.682.568 1.075.13.456.195.928.194 1.403a4.19 4.19 0 010 .671h-4.916c.007.693.261 1.36.718 1.881a2.212 2.212 0 001.703.687c.33.006.658-.044.971-.15.298-.108.583-.248.852-.417l.433.806c-.335.21-.69.384-1.06.522a3.993 3.993 0 01-2.72 0 3.526 3.526 0 01-1.106-.746 3.597 3.597 0 01-.747-1.194 4.475 4.475 0 01-.314-1.642zm5.11-.553a2.73 2.73 0 00-.478-1.716 1.614 1.614 0 00-1.33-.582 1.735 1.735 0 00-.732.149c-.24.107-.458.259-.642.448-.203.212-.365.46-.478.731-.13.309-.211.636-.24.97h3.9zM207.848 57.426h1.016l.12 1.045a4.75 4.75 0 011.03-.88c.367-.23.792-.35 1.225-.344.466-.028.928.098 1.315.359.331.266.575.624.702 1.03a6.318 6.318 0 011.136-1.016 2.243 2.243 0 011.255-.373 1.973 1.973 0 011.673.717c.407.629.601 1.372.553 2.12v4.687h-1.24v-4.479a2.595 2.595 0 00-.329-1.492 1.166 1.166 0 00-1.016-.448 2.66 2.66 0 00-1.822 1.12v5.299h-1.24v-4.479a2.595 2.595 0 00-.33-1.492 1.18 1.18 0 00-1.03-.448 2.66 2.66 0 00-1.823 1.12v5.299h-1.24l.045-7.345zM220.981 55.919a.852.852 0 01-.598-.224.746.746 0 01-.254-.567.761.761 0 01.254-.583.912.912 0 01.598-.209.927.927 0 01.613.21c.165.147.258.36.254.582a.746.746 0 01-.254.567.867.867 0 01-.613.224zm-.627 1.492h1.21v7.36h-1.24l.03-7.36zM223.58 61.069a4.191 4.191 0 01.285-1.612c.175-.448.433-.858.762-1.21.317-.323.699-.578 1.12-.746.427-.174.884-.26 1.345-.254.428-.016.853.07 1.24.254.323.158.62.364.882.612l-.613.791a3.183 3.183 0 00-.672-.463 1.764 1.764 0 00-.792-.179 2.034 2.034 0 00-.912.194 1.927 1.927 0 00-.717.583 2.85 2.85 0 00-.478.895 3.416 3.416 0 00-.18 1.135c-.002.389.053.776.165 1.15.106.311.262.604.463.865.189.25.435.449.718.582.284.134.596.2.91.194.331.002.658-.07.957-.209.271-.14.522-.316.747-.522l.553.806c-.32.292-.689.524-1.09.686-.401.173-.834.26-1.27.254a3.364 3.364 0 01-1.345-.254 2.988 2.988 0 01-1.091-.731 3.254 3.254 0 01-.717-1.21 4.475 4.475 0 01-.27-1.611zM234.264 54.874h5.662v1.045h-4.482v3.09h3.735v1.06h-3.735v3.567h4.572v1.135h-5.752zM243.482 60.89l-2.21-3.464h1.344l.971 1.598.344.612c.12.194.239.403.373.597l.329-.597.329-.612.881-1.598h1.3l-2.211 3.598 2.375 3.672h-1.344l-1.061-1.687a9.49 9.49 0 00-.389-.657l-.403-.641c-.134.209-.254.418-.374.627l-.358.671-.986 1.687h-1.3l2.39-3.806zM248.084 61.069a4.191 4.191 0 01.284-1.612c.175-.448.434-.858.762-1.21.318-.323.7-.578 1.12-.746a3.364 3.364 0 011.346-.254c.427-.016.853.07 1.24.254.323.158.62.364.881.612l-.612.791a3.183 3.183 0 00-.673-.463 1.764 1.764 0 00-.792-.179 2.034 2.034 0 00-1.643.777 3.164 3.164 0 00-.463.895 3.416 3.416 0 00-.18 1.135c-.003.389.053.776.165 1.15.105.311.262.604.463.865.188.25.434.449.717.582.285.134.597.2.911.194.33.002.657-.07.957-.209.27-.14.522-.316.747-.522l.553.806c-.32.292-.69.524-1.091.686-.4.173-.834.26-1.27.254a3.364 3.364 0 01-1.345-.254 2.988 2.988 0 01-1.09-.731 3.254 3.254 0 01-.718-1.21 4.475 4.475 0 01-.269-1.611zM255.54 54.038h1.225v4.389c.336-.318.7-.603 1.09-.851.407-.241.874-.36 1.346-.344a1.928 1.928 0 011.673.717c.402.63.59 1.374.538 2.12v4.702h-1.225v-4.479a2.73 2.73 0 00-.329-1.492 1.226 1.226 0 00-1.06-.448 1.78 1.78 0 00-1.002.284 7.02 7.02 0 00-.986.835v5.3h-1.225l-.045-10.733zM263.4 62.815a2.015 2.015 0 011.06-1.836 8.971 8.971 0 013.421-.896 3.43 3.43 0 00-.074-.671 1.492 1.492 0 00-.24-.582 1.33 1.33 0 00-.448-.418 1.585 1.585 0 00-.747-.15 2.826 2.826 0 00-1.18.24 5.126 5.126 0 00-.986.537l-.493-.851a7.294 7.294 0 011.24-.642 4.082 4.082 0 011.614-.299 2.257 2.257 0 011.942.806c.428.644.638 1.408.598 2.18v4.478h-1.016l-.105-.866c-.35.29-.73.54-1.136.747a2.751 2.751 0 01-1.284.298 2.242 2.242 0 01-1.495-.537 1.925 1.925 0 01-.672-1.538zm1.21-.09c-.035.34.1.674.358.896.266.187.586.28.911.269.349.004.693-.078 1.001-.239a6.23 6.23 0 001.001-.731v-2.03c-.612.09-1.135.179-1.494.283-.349.092-.685.228-1 .403-.225.12-.416.294-.554.508a1.328 1.328 0 00-.209.642h-.015zM271.527 57.426h1.016l.105 1.045c.329-.34.7-.635 1.105-.88a2.437 2.437 0 011.345-.344 1.928 1.928 0 011.673.717c.402.63.59 1.374.538 2.12v4.687h-1.225v-4.479a2.73 2.73 0 00-.329-1.492 1.226 1.226 0 00-1.06-.448 1.78 1.78 0 00-1.001.284 7.02 7.02 0 00-.987.835v5.3h-1.225l.045-7.345zM279.252 66.1a1.492 1.492 0 01.284-.896c.212-.297.475-.555.776-.762a1.494 1.494 0 01-.463-.448 1.402 1.402 0 01-.179-.731c-.013-.29.077-.575.254-.806.14-.215.323-.398.538-.537a3.285 3.285 0 01-.658-.807 2.237 2.237 0 01-.283-1.164c-.012-.37.06-.737.209-1.075.137-.313.341-.593.597-.82a2.57 2.57 0 01.882-.508 2.99 2.99 0 011.046-.18c.189-.015.379-.015.568 0 .16.025.315.07.463.135h2.525v.94h-1.494c.378.406.591.939.597 1.493.003.364-.068.725-.209 1.06-.133.3-.326.57-.568.791a2.436 2.436 0 01-.851.508 2.99 2.99 0 01-1.046.179 2.452 2.452 0 01-.553-.075 2.84 2.84 0 01-.538-.179c-.128.1-.24.222-.329.358a.88.88 0 00-.134.508c-.002.22.097.43.269.567.306.18.662.26 1.016.224h1.42a3.44 3.44 0 011.897.418c.429.296.672.794.642 1.314 0 .34-.088.673-.254.97a2.344 2.344 0 01-.732.806 4.02 4.02 0 01-1.165.552c-.487.134-.99.2-1.494.194-.412.001-.822-.039-1.225-.119a3.289 3.289 0 01-.957-.388 1.852 1.852 0 01-.612-.612c-.176-.27-.26-.59-.24-.91zm1.075-.165c-.001.387.212.743.553.926a3.08 3.08 0 001.494.343c.324.004.647-.04.957-.134.26-.07.507-.181.732-.329.183-.123.34-.28.463-.463.102-.166.159-.357.164-.552a.761.761 0 00-.373-.716 2.587 2.587 0 00-1.091-.194h-1.718a1.944 1.944 0 01-.493-.105c-.227.16-.42.363-.568.597-.09.196-.13.412-.12.627zm1.928-4.359c.205 0 .408-.041.597-.12a1.657 1.657 0 00.837-.896c.08-.235.12-.482.12-.73a1.7 1.7 0 00-.449-1.254 1.585 1.585 0 00-1.105-.433 1.495 1.495 0 00-1.09.433 1.7 1.7 0 00-.45 1.254c0 .248.041.495.12.731.074.199.186.382.33.538.28.303.676.476 1.09.477zM286.677 61.069a4.117 4.117 0 01.284-1.598c.165-.446.414-.856.732-1.209.294-.321.65-.58 1.046-.761.38-.172.793-.259 1.21-.254a2.99 2.99 0 011.24.24 2.3 2.3 0 01.912.686c.259.317.452.682.568 1.075.13.456.195.928.194 1.403a4.19 4.19 0 010 .671h-4.96c.006.693.26 1.36.717 1.881a2.212 2.212 0 001.703.687c.33.006.658-.044.971-.15.298-.108.584-.248.852-.417l.433.806c-.335.21-.69.384-1.06.522a3.993 3.993 0 01-2.72 0 3.526 3.526 0 01-1.106-.746 3.597 3.597 0 01-.747-1.194 4.475 4.475 0 01-.269-1.642zm5.11-.553a2.73 2.73 0 00-.478-1.716 1.614 1.614 0 00-1.33-.582 1.854 1.854 0 00-.747.149c-.236.107-.449.26-.627.448-.203.212-.365.46-.478.731-.13.309-.211.636-.24.97h3.9zM297.988 62.561c.355.372.775.676 1.24.896.467.22.978.333 1.494.329.535.029 1.064-.13 1.494-.448.355-.274.555-.702.538-1.15a1.64 1.64 0 00-.12-.642 1.493 1.493 0 00-.343-.447 3.526 3.526 0 00-.523-.344l-.642-.313-1.42-.612-.702-.359a2.988 2.988 0 01-.643-.507c-.2-.206-.357-.45-.463-.717a2.447 2.447 0 01.702-2.806c.287-.243.616-.43.972-.552.399-.136.818-.201 1.24-.194a3.961 3.961 0 012.898 1.209l-.672.806a3.616 3.616 0 00-.986-.672 3.065 3.065 0 00-1.3-.224 2.138 2.138 0 00-1.33.388c-.339.244-.53.643-.508 1.06-.01.21.043.417.15.597.095.167.222.314.373.433.165.132.345.243.538.329.186.107.38.197.583.268l1.39.597c.275.116.54.256.791.418.243.142.46.324.643.538.187.21.334.453.433.716.24.66.24 1.385 0 2.045a2.448 2.448 0 01-.672.896 3.243 3.243 0 01-1.046.597c-.45.142-.919.213-1.39.21a4.59 4.59 0 01-1.927-.389 4.736 4.736 0 01-1.494-1.06l.702-.896zM305.384 61.069a4.475 4.475 0 01.269-1.598c.17-.446.423-.857.747-1.209.288-.32.64-.58 1.03-.761.385-.174.804-.26 1.226-.254a2.99 2.99 0 011.225.24c.36.148.68.384.926.686.256.317.444.682.553 1.075.137.455.202.928.194 1.403a4.19 4.19 0 010 .671h-4.915c.018.693.277 1.358.732 1.881a2.212 2.212 0 001.703.687c.325.006.649-.044.956-.15.298-.108.584-.248.852-.417l.433.806c-.333.212-.689.388-1.06.522a3.708 3.708 0 01-1.33.224 3.753 3.753 0 01-1.375-.254 3.3 3.3 0 01-1.852-1.94 4.475 4.475 0 01-.314-1.612zm5.095-.553A2.73 2.73 0 00310 58.8a1.584 1.584 0 00-1.315-.582 1.81 1.81 0 00-.747.149c-.24.107-.459.259-.643.448a2.358 2.358 0 00-.463.731 3.192 3.192 0 00-.254.97h3.9zM313.437 57.426h1.016l.105 1.314c.221-.425.532-.797.911-1.09.33-.264.742-.407 1.165-.403.267-.005.532.046.777.15l-.239 1.074-.328-.09a1.495 1.495 0 00-.374 0 1.6 1.6 0 00-.971.374 2.985 2.985 0 00-.882 1.299v4.717h-1.225l.045-7.345zM317.95 57.426h1.27l1.389 4.135c.104.359.209.717.329 1.075.12.358.224.717.343 1.06.105-.343.21-.702.329-1.06.12-.358.21-.716.329-1.075l1.374-4.135h1.345l-2.645 7.345h-1.494l-2.57-7.345zM326.705 55.919a.882.882 0 01-.613-.224.731.731 0 01-.239-.567.746.746 0 01.24-.583c.36-.278.864-.278 1.224 0 .162.15.25.363.24.583a.731.731 0 01-.24.567.882.882 0 01-.612.224zm-.628 1.492h1.225v7.36h-1.15l-.075-7.36zM329.305 61.069a4.191 4.191 0 01.283-1.612c.164-.454.424-.866.762-1.21.312-.33.696-.586 1.121-.746a3.35 3.35 0 011.33-.254c.428-.017.853.07 1.24.254.326.162.627.368.896.612l-.612.791a3.272 3.272 0 00-.687-.463 1.72 1.72 0 00-.792-.179 2.078 2.078 0 00-.912.194 1.927 1.927 0 00-.717.583 3.194 3.194 0 00-.478.895 4.057 4.057 0 000 2.284c.093.317.251.612.463.866.187.245.427.444.702.582.286.133.597.2.912.194.33.003.657-.068.956-.209.273-.144.529-.32.762-.522l.553.806c-.325.292-.7.525-1.106.686-.4.175-.833.261-1.27.254a3.364 3.364 0 01-1.345-.254 3.183 3.183 0 01-1.09-.731 3.716 3.716 0 01-.717-1.21 4.475 4.475 0 01-.254-1.611zM335.894 61.069a4.117 4.117 0 01.284-1.598c.159-.448.408-.86.732-1.209.294-.321.65-.58 1.046-.761.38-.172.793-.259 1.21-.254a2.99 2.99 0 011.24.24 2.3 2.3 0 01.911.686c.254.32.446.685.568 1.075.13.456.195.928.194 1.403a4.19 4.19 0 010 .671h-4.93c.018.693.277 1.358.732 1.881a2.212 2.212 0 001.703.687c.33.004.658-.046.971-.15.292-.111.572-.251.837-.417l.448.806c-.34.21-.7.385-1.076.522a3.708 3.708 0 01-1.33.224c-.47.001-.935-.085-1.374-.254a3.526 3.526 0 01-1.106-.746 3.597 3.597 0 01-.747-1.194 4.475 4.475 0 01-.313-1.612zm5.095-.553a2.73 2.73 0 00-.464-1.716 1.614 1.614 0 00-1.33-.582 1.854 1.854 0 00-.746.149c-.236.107-.45.26-.628.448a2.15 2.15 0 00-.478.731c-.129.31-.214.637-.254.97h3.9z"/></g><path d="M101.66 50.799c0 28.03-22.743 50.753-50.8 50.753C22.806 101.552.06 78.83.06 50.8S22.806.045 50.86.045c28.057 0 50.8 22.723 50.8 50.754" fill="#0060AF"/><g fill="#FFF"><path d="M30.526 50.784a7.458 7.458 0 01-.867 3.657 6.54 6.54 0 01-2.405 2.493 6.698 6.698 0 01-3.511.91H20.68V43.738h3.063a6.818 6.818 0 013.51.895 6.616 6.616 0 012.406 2.478 7.458 7.458 0 01.867 3.673m2.36 0a9.919 9.919 0 00-.657-3.717 8.329 8.329 0 00-1.897-2.911 8.218 8.218 0 00-2.899-1.926 9.78 9.78 0 00-3.69-.672h-4.289a1.256 1.256 0 00-.881.344 1.179 1.179 0 00-.344.895V58.8c-.014.324.11.64.344.866.232.234.551.364.881.358h4.289a9.78 9.78 0 003.69-.672 8.468 8.468 0 004.796-4.851 9.919 9.919 0 00.658-3.717M63.187 53.933h-6.813l3.437-8.404 3.376 8.404zm4.408 4.374L60.976 42.38a1.135 1.135 0 00-1.15-.836 1.21 1.21 0 00-1.166.836l-6.649 15.853c-.187.389-.159.847.075 1.21a1.12 1.12 0 001.016.567 1.36 1.36 0 00.657-.18 1.27 1.27 0 00.479-.567l1.36-3.313h8.47l1.346 3.313c.088.227.244.42.448.553a1.3 1.3 0 00.687.194 1.18 1.18 0 001.031-.523c.226-.36.254-.809.075-1.194M45.572 53.933h-6.828l3.436-8.404 3.392 8.404zm4.392 4.374L43.301 42.38a1.165 1.165 0 00-1.166-.836 1.195 1.195 0 00-1.15.836l-6.65 15.853c-.21.376-.21.834 0 1.21.212.366.61.584 1.032.567.226-.004.447-.065.642-.18.213-.14.384-.336.493-.567l1.345-3.313h8.487l1.33 3.313a1.211 1.211 0 001.136.746 1.15 1.15 0 001.03-.522 1.253 1.253 0 000-1.194M82.76 50.784a7.458 7.458 0 01-.866 3.657 6.54 6.54 0 01-2.406 2.493 6.698 6.698 0 01-3.511.91h-3.063V43.738h3.063a6.818 6.818 0 013.511.895 6.616 6.616 0 012.406 2.478 7.458 7.458 0 01.866 3.673m2.36 0a9.919 9.919 0 00-.656-3.717 8.329 8.329 0 00-1.898-2.911 8.218 8.218 0 00-2.943-1.926 9.78 9.78 0 00-3.69-.672h-4.289a1.256 1.256 0 00-.882.344 1.179 1.179 0 00-.343.895V58.8c-.015.324.11.64.343.866.233.234.552.364.882.358h4.288a9.78 9.78 0 003.69-.672 8.468 8.468 0 004.797-4.851 9.919 9.919 0 00.657-3.717"/></g></g></svg>