<?xml version="1.0" encoding="UTF-8" standalone="no"?>
<svg
   width="1583.1406pt"
   height="290.77469pt"
   viewBox="0 0 1583.1406 290.77468"
   version="1.1"
   id="svg52"
   sodipodi:docname="hull.svg"
   inkscape:version="1.1 (ce6663b3b7, 2021-05-25)"
   xmlns:inkscape="http://www.inkscape.org/namespaces/inkscape"
   xmlns:sodipodi="http://sodipodi.sourceforge.net/DTD/sodipodi-0.dtd"
   xmlns="http://www.w3.org/2000/svg"
   xmlns:svg="http://www.w3.org/2000/svg">
  <sodipodi:namedview
     id="namedview54"
     pagecolor="#ffffff"
     bordercolor="#666666"
     borderopacity="1.0"
     inkscape:pageshadow="2"
     inkscape:pageopacity="0.0"
     inkscape:pagecheckerboard="0"
     inkscape:document-units="pt"
     showgrid="false"
     fit-margin-top="10"
     fit-margin-left="10"
     fit-margin-right="10"
     fit-margin-bottom="10"
     lock-margins="true"
     inkscape:zoom="0.60455237"
     inkscape:cx="1054.4992"
     inkscape:cy="210.89984"
     inkscape:window-width="2560"
     inkscape:window-height="1376"
     inkscape:window-x="0"
     inkscape:window-y="0"
     inkscape:window-maximized="1"
     inkscape:current-layer="svg52" />
  <defs
     id="defs5">
    <clipPath
       id="clip1">
      <path
         d="m 1492,79 h 71.1406 V 268 H 1492 Z m 0,0"
         id="path2" />
    </clipPath>
  </defs>
  <g
     id="surface1"
     transform="translate(10,10.005162)">
    <path
       style="fill:#ffffff;fill-opacity:1;fill-rule:nonzero;stroke:none"
       d="m 1132.5313,120 c 0,-14.69141 4.1093,-18.26953 17.7187,-18.55078 V 89.132813 h -75.6289 v 12.316407 c 13.6484,0.28125 17.5078,3.85937 17.5078,18.55078 v 117.80078 c 0,14.66406 -3.8594,18.26953 -17.5078,18.26953 v 11.84375 h 75.6289 v -11.84375 c -13.6094,0 -17.7187,-3.60547 -17.7187,-18.26953 v -51.95703 h 61.1992 v 51.95703 c 0,14.66406 -4.1211,18.26953 -17.711,18.26953 v 11.84375 h 75.6211 v -11.84375 c -13.6406,0 -17.8008,-3.60547 -17.8008,-18.26953 V 120 c 0,-14.69141 4.1602,-18.26953 17.8008,-18.55078 V 89.132813 h -75.6211 v 12.316407 c 13.5899,0.28125 17.711,3.85937 17.711,18.55078 v 46.52734 h -61.1992"
       id="path7" />
    <path
       style="fill:#ffffff;fill-opacity:1;fill-rule:nonzero;stroke:none"
       d="m 1386.9414,229.08594 v -94.67188 h -6.2226 l -47.2891,9.03906 v 11.29297 c 12.5703,0.50391 15.4219,3.07813 15.4219,21.85157 v 59.96875 c -7.7305,6.41015 -14.4102,9.51562 -23.1602,9.51562 -11.8203,0 -16.4805,-6.95703 -16.4805,-20.86719 v -90.80078 h -6.1914 l -47.2812,9.03906 v 11.29297 c 12.582,0.50391 15.1523,3.07813 15.1523,21.85157 V 234.25 c 0,25.44531 14.668,36.51953 36.8008,36.51953 19.5586,0 33.1875,-8.49609 43.2188,-20.84766 0.7812,9.77344 4.3711,16.98829 6.9414,20.84766 h 3.8867 L 1402.8789,261.5 v -10.54297 c -13.1484,-1.03516 -15.9375,-3.08594 -15.9375,-21.87109"
       id="path9" />
    <path
       style="fill:#ffffff;fill-opacity:1;fill-rule:nonzero;stroke:none"
       d="M 1466.9414,238.08594 V 104.57813 c 0,-11.843755 -1.793,-20.832036 -4.6601,-25.472661 h -3.8516 l -46.5508,6.949219 v 11.316406 c 13.4024,0.53125 16.9609,3.105466 16.9609,21.867186 v 119.10156 c 0,14.67188 -2.8281,17.75782 -15.9296,18.00782 v 11.5664 h 69.9414 v -11.5664 c -13.3633,-0.25 -15.9102,-3.59375 -15.9102,-18.26172"
       id="path11" />
    <g
       clip-path="url(#clip1)"
       clip-rule="nonzero"
       id="g15">
      <path
         style="fill:#ffffff;fill-opacity:1;fill-rule:nonzero;stroke:none"
         d="M 1547.1914,238.08594 V 104.57813 c 0,-11.843755 -1.7617,-20.832036 -4.6328,-25.472661 h -3.8789 l -46.5313,6.949219 v 11.316406 c 13.3829,0.53125 16.9414,3.105466 16.9414,21.867186 v 119.10156 c 0,14.67188 -2.8007,17.75782 -15.9296,18.00782 v 11.5664 h 69.9804 v -11.5664 c -13.3711,-0.25 -15.9492,-3.59375 -15.9492,-18.26172"
         id="path13" />
    </g>
    <path
       style="fill:#ffffff;fill-opacity:1;fill-rule:nonzero;stroke:none"
       d="m 689.57422,128.14062 c 0,6.2461 -6.28906,6.27344 -6.28906,6.27344 h -45.08204 v -12.53515 h 45.08204 c 6.28906,0 6.28906,6.26171 6.28906,6.26171 m -96.47266,-6.26171 h 45.07031 v 12.53515 h -45.07031 c 0,0 -6.24609,-0.0273 -6.24609,-6.27344 0,0 0,-6.26171 6.24609,-6.26171 m 96.67188,-71.199222 c 0,0 -2.42969,-13.394532 -12.01953,-9.847657 0,0 -10.51954,4.609375 -3.17188,20.089844 0,0 1.46484,-4.976562 5.89063,-4.515625 0,0 8.63671,0.984375 4.3789,11.785156 0,0 -3.30469,7.640625 -10.04297,5.886719 0,0 -9.69531,-0.863281 -9.69531,-15.078125 0,0 -6.64062,12.550781 -14.30078,11.46875 0,0 -9.54297,0.898438 -9.33203,-10.175781 0,0 0.60547,-8.101563 7.61328,-9.40625 0,0 8.34766,-0.898438 6.83594,7 0,0 19,-16.074219 1.5664,-25.898438 0,0 -7.47265,-3.449218 -14.01562,4.007813 0,0 3.38672,-3.917969 3.59375,-9.1875 0,0 3.10156,-9.589844 -8.90235,-16.171875 v -0.02344 c -0.004,0.0039 -0.0117,0.0078 -0.0195,0.01172 -0.008,-0.0039 -0.0117,-0.0078 -0.0156,-0.01172 v 0.02344 c -11.98438,6.582031 -8.9375,16.171875 -8.9375,16.171875 0.22656,5.269531 3.625,9.1875 3.625,9.1875 -6.53125,-7.457031 -14.03516,-4.007813 -14.03516,-4.007813 -17.41797,9.824219 1.60547,25.898438 1.60547,25.898438 -1.51562,-7.898438 6.78125,-7 6.78125,-7 7.04688,1.304687 7.69531,9.40625 7.69531,9.40625 C 635,71.367188 625.46484,70.46875 625.46484,70.46875 617.83203,71.550781 611.21484,59 611.21484,59 c 0,14.214844 -9.69922,15.078125 -9.69922,15.078125 -6.73046,1.753906 -10.04687,-5.886719 -10.04687,-5.886719 -4.25,-10.800781 4.35156,-11.785156 4.35156,-11.785156 4.46094,-0.460937 5.88281,4.515625 5.88281,4.515625 7.375,-15.480469 -3.16796,-20.089844 -3.16796,-20.089844 -9.5625,-3.546875 -11.9961,9.847657 -11.9961,9.847657 -6.11328,-15.96875 -18.61328,-11.808594 -18.61328,-11.808594 18.61328,25.15625 24.9375,48.992187 24.9375,48.992187 h 90.54688 c 0,0 6.36328,-23.835937 24.97265,-48.992187 0,0 -12.49219,-4.160156 -18.60937,11.808594 m -7.5625,48.347656 c 0,0 -1.66797,12.398436 -1.76172,12.398436 0,0 0.92969,-0.10547 -42.27735,0 h -42.66406 c 0,0 -1.55469,-12.398436 -1.66015,-12.398436 h 88.36328"
       id="path17" />
    <path
       style="fill:#ffffff;fill-opacity:1;fill-rule:nonzero;stroke:none"
       d="m 269.31641,77.679688 c 0,0 -9.64454,-8.089844 -1.57032,-27.058594 0,0 7.3125,10.746094 19.76953,12.730469 0,0 5.29297,-20.1875 18.82422,-22.847657 0,0 -4.83593,12.449219 8.0586,23.179688 0,0 11.20703,-15.859375 25.35937,-15.714844 0,0 -7.78125,8.082031 -3.2539,15.539063 0,0 4.17968,8.738281 -0.80079,14.171875 0,0 8.88672,0 15.40235,-5.59375 0,0 9.70703,-5.613282 5.13281,-26.585938 0,0 -2.3125,-14.324219 20.22266,-19.460937 0,0 -25.80078,-11.019532 -51.92578,7.335937 0,0 -12.47657,-18.355469 13.07421,-33.2929687 0,0 -42.97265,-3.7226563 -61.77734,37.4804687 0,0 -15.83594,-7.796875 -5.4375,-27.53125 0,0 -29.38672,10.742188 -26.74609,45.425781 0,0 0.65234,22.222657 25.66797,22.222657 m 24.65234,66.480472 h 21.10937 c 9.40235,0.0508 9.40235,-13.41797 0,-13.38672 h -21.10937 c -9.39844,-0.0312 -9.39844,13.4375 0,13.38672 m -10.14453,-22.15235 c 0,0.0312 41.41015,0.0312 41.41015,0 9.42579,0.0547 9.42579,-13.41406 0,-13.39843 h -41.41015 c -9.41797,-0.0156 -9.41797,13.45312 0,13.39843 M 273.59375,99.855469 c -9.41797,0.06641 -9.41797,-13.441406 0,-13.414063 l 61.84375,0.01563 c 9.45703,-0.01563 9.45703,13.464844 0,13.398438 0,0.02734 -61.84375,0.02734 -61.84375,0"
       id="path19" />
    <path
       style="fill:#ffffff;fill-opacity:1;fill-rule:nonzero;stroke:none"
       d="m 523.60547,78.703125 c 0,0 -1.52735,8.101563 -10.21094,7.792969 l -0.15625,-0.04687 c 0,0 0.0625,0.04297 0.0742,0.05469 -0.0195,0 -0.0312,0.0039 -0.0508,0.0039 l 0.10547,0.03125 c 0.66406,0.476562 6.96875,5.226562 3.61718,12.367187 0,0 -3.8789,8.449219 -14.19531,6.320309 0,0 -6.21484,-1.38281 -7.84765,5.67578 0,0 -1.1875,10.50391 -10.41407,11.57813 0,0 -8.2539,1.07812 -10.54687,-7.31641 v -0.0977 c 0,0 -0.0156,0.0508 -0.0195,0.0547 -0.004,-0.0117 -0.008,-0.0117 -0.008,-0.0234 v 0.0508 c -0.13671,0.44531 -2.63671,8.28125 -10.65625,7.3164 0,0 -9.24218,-1.07421 -10.41796,-11.59375 0,0 -0.57032,-6.32421 -7.84766,-5.67187 0,0 -10.32813,2.125 -14.22656,-6.339844 0,0 -3.55078,-7.46875 3.72656,-12.308594 l 0.0859,-0.02734 h -0.0547 c 0.008,-0.0078 0.0156,-0.01172 0.0234,-0.01563 l -0.0508,0.01563 c -0.44532,0.0078 -8.70313,0.07422 -10.26172,-7.898438 0,0 -1.8086,-9.109375 7.80468,-13.457031 0,0 5.83204,-2.5 3.01172,-9.222656 0,0 -5.24609,-9.164063 1.60157,-15.484375 0,0 5.98437,-5.660157 12.84765,-0.257813 l 0.0742,0.09766 c 0,0 -0.0156,-0.0625 -0.0195,-0.07031 0.008,0.0078 0.0117,0.0078 0.0195,0.01563 l -0.0273,-0.04297 c -0.17578,-0.507812 -2.67969,-8.292969 4.30468,-12.175781 0,0 8.11719,-4.578125 15.21875,3.242187 0,0 4.21875,4.765625 9.6836,0 0,0 7.125,-7.820312 15.23828,-3.242187 0,0 7.26562,3.941406 4.23047,12.148437 l -0.0508,0.07422 c 0,0 0.0391,-0.02734 0.043,-0.03125 -0.004,0.01172 -0.004,0.01953 -0.008,0.02734 l 0.0312,-0.04297 c 0.375,-0.285156 7.02344,-5.152344 12.96094,0.351563 0,0 6.77734,6.304687 1.60547,15.449218 0,0 -3.26172,5.460938 2.95703,9.257813 0,0 9.63281,4.3125 7.80469,13.441406 m 18.66797,-13.785156 c 0,0 -3.50391,-10.960938 -14.39844,-8.710938 0,0 9.79687,-5.410156 6.43359,-15.445312 0,0 -4.84375,-13.730469 -19.11718,-10.507813 0,0 -5.84766,0.667969 -8.46094,-1.667968 l -2.05469,2.808593 2.08594,-2.871093 c 0,0 -3.08594,-1.734375 -4.19531,-7.582032 0,0 -1.26954,-14.53125 -15.90235,-14.945312 0,0 -11.48828,-0.027344 -12.73828,11.019531 0,0 -2.05859,-11.046875 -12.67969,-10.914062 0,0 -14.52343,0.382812 -15.90625,14.960937 0,0 -1.17578,5.707031 -4.21093,7.484375 l -0.0156,-0.02344 c 0,0 -2.63281,2.398437 -8.49609,1.636718 0,0 -14.19532,-3.257812 -19.15625,10.539063 0,0 -3.57032,10.910156 6.54297,15.492187 0,0 -11.10938,-1.402343 -14.28125,8.710938 0,0 -4.15235,13.925781 9.26953,19.722656 0,0 5.125,2.882813 5.86718,6.316406 l -0.0273,0.01172 c 0,0 1.46875,3.230469 -1.06641,8.632813 0,0 -7.51171,12.503904 4.04297,21.433594 0,0 9.32813,6.78516 16.78516,-1.41797 0,0 -4.76172,10.14453 3.84375,16.25391 0,0 12,8.24609 21.66797,-2.75 0,0 4.34765,-3.94141 7.82031,-3.57422 l 0.0273,-7.23047 v 7.25781 c 0,0 3.50391,-0.39453 7.83985,3.69922 0,0 9.57812,10.98438 21.64453,2.71875 0,0 9.3125,-6.73437 3.83203,-16.375 0,0 8.17969,7.6875 16.67969,1.38672 0,0 11.51562,-8.89844 4.08984,-21.484376 0,0 -2.4375,-5.320312 -1.05859,-8.550781 l -3.91406,-1.285156 3.98046,1.285156 c 0,0 0.66797,-3.457031 5.90625,-6.328125 0,0 13.42579,-5.707031 9.32032,-19.707031 m -77.16407,8.816406 c 0,-4.851562 3.94922,-8.816406 8.81641,-8.816406 4.86719,0 8.82422,3.964844 8.82422,8.816406 0,4.875 -3.95703,8.828125 -8.82422,8.828125 -4.86719,0 -8.81641,-3.953125 -8.81641,-8.828125 m 26.27344,5.679688 c 0,0 -3.41015,12.167968 -17.70703,12.832031 v -0.06641 c 0,0 -12.61719,0.492187 -17.67187,-12.914063 l 0.0469,-0.01953 c 0,0 -4.35547,-11.855469 6.82031,-20.796875 l 0.0391,0.05469 c 0,0 9.90234,-7.8125 21.875,0.05078 l -0.0312,0.04297 c 0,0 10.51562,7.03125 6.73828,20.84375 l 8.23828,2.671875 z M 503.9375,67.464844 c 0,0 -4.20703,-2.761719 -1.87109,-7.632813 0,0 1.55078,-5.429687 -1.6875,-9.460937 0,0 -3.91407,-4.585938 -8.6211,-1.402344 l -0.30078,0.414063 c 0.0234,-0.0625 2.33203,-5.910157 -3.79297,-8.507813 0,0 -3.9414,-2.230469 -10.39844,2.105469 0,0 -3.9375,3.136719 -7.85156,-0.519531 0,0 -4.66797,-3.203125 -9.47656,-1.378907 0,0 -5.59375,2.328125 -4.05859,7.796875 l 0.22656,0.3125 c -0.60156,-0.457031 -5.0625,-3.613281 -9.14453,1.085938 0,0 -3.35547,3.027344 -1.19532,10.535156 0,0 1.73438,4.691406 -2.94531,7.25 0,0 -4.47265,3.488281 -4.23047,8.667969 0,0 0.46485,6.015625 6.14844,6.21875 l 0.47266,-0.160156 c -0.15625,0.105468 -5.26953,3.484375 -1.92188,9.101562 0,0 1.86719,4.113281 9.67188,4.390625 0,0 5.01172,-0.242187 6.05078,5.02734 0,0 1.88281,5.3711 6.88281,6.72657 0,0 5.84766,1.37109 7.78125,-3.94922 v -0.50781 c 0,0 1.58594,6.16796 8.07813,4.64453 0,0 4.51171,-0.48047 7.14062,-7.82032 0,0 1.35938,-4.828121 6.69531,-4.148434 0,0 5.65235,-0.183593 8.49219,-4.503906 0,0 3.17578,-5.179687 -1.35156,-8.667969 l -0.47266,-0.148437 c 0.0508,0 6.33985,0.375 6.90625,-6.234375 0,0 0.91406,-4.425781 -5.22656,-9.234375"
       id="path21" />
    <path
       style="fill:#ffffff;fill-opacity:1;fill-rule:nonzero;stroke:none"
       d="M 933.78516,27.632813 C 931.41016,16.375 923.73437,15.464844 920.71484,15.535156 c 0,0.02344 -0.0547,3.972657 0,3.972657 3.42188,-0.02734 4.3125,2.789062 4.3125,4.050781 -0.25,4.050781 -3.96484,4.074219 -3.96484,4.074219 -2.42188,-0.03906 -4.11719,-1.917969 -4.11719,-3.980469 -0.0117,-2.378906 1.79297,-3.933594 3.76953,-4.144531 0.0586,0.01172 0,-3.980469 0,-3.980469 -10.01172,-0.175781 -9.66015,8.066406 -9.66015,8.066406 -2.40235,2.015625 -7.14844,3.738281 -7.14844,3.738281 -1.60938,1.328125 -1.72656,3.847657 -1.72656,3.847657 -0.0977,1.367187 0.0898,1.863281 0.0898,1.765625 9.06641,-3.773438 11.11719,-1.824219 11.11719,-1.824219 l 1.62109,1.253906 c 2.21875,2.96875 2.85156,9.578125 2.85156,9.578125 -1.80468,12.734375 -12.59765,13.035156 -10.8125,31.230469 1.17579,29.621096 41.20704,37.273436 41.20704,37.273436 2.24609,4.46875 -2.80469,14.39453 -2.80469,14.39453 -0.63672,1.52344 -1.88672,1.52344 -6.91406,0.72266 -2.52735,-0.48047 -4.22266,-0.96094 -4.22266,-0.96094 -8.20313,-2.83594 -5.23828,6.01172 -5.23828,6.01172 -0.0391,-0.043 30.07031,0 30.07031,0 2.24219,-8.10937 -3.24609,-5.66016 -3.24609,-5.66016 -5.44141,2.78907 -4.9961,-0.19921 -4.9961,-0.19921 1.63672,-9.03516 5.83203,-14.64454 5.83203,-14.64454 -69.91796,-42.105465 -23.5625,-54.83984 -23.5625,-54.83984 0,0 -31.80078,15.761719 39.28907,54.4375 17.7539,10.78906 18.32422,11.22266 24.12109,14.09375 4.09771,2.64844 4.99611,1.07031 4.99611,1.07031 0.6406,-1.375 -1.3164,-3.25781 -1.3164,-3.25781 l -16.57424,-20.57422 c 21.80084,13.91016 31.49224,21.15235 31.49224,21.15235 10.2422,4.375 25.4492,-9.53907 5.6797,-17.97266 C 938.30859,59.566406 933.78516,27.632813 933.78516,27.632813"
       id="path23" />
    <path
       style="fill:#ffffff;fill-opacity:1;fill-rule:nonzero;stroke:none"
       d="m 851.82812,45.902344 c 0,0 -14.38281,-3.960938 -24.93359,11.246094 0,0 -8.48047,10.730468 -9.87109,33.335937 h -8.75782 c 0,0 0.58204,-14.433594 4.4375,-28.246094 0,0 2.19141,-8.667968 4.90625,-23.242187 0,0 2.5586,-12.5 -1.32812,-21.941406 0,0 -4.93359,-14.613282 -14.0625,-13.996094 -9.125,-0.617188 -14.04688,13.996094 -14.04688,13.996094 -3.91796,9.441406 -1.30859,21.941406 -1.30859,21.941406 2.73047,14.574219 4.89844,23.242187 4.89844,23.242187 3.82812,13.8125 4.47656,28.246094 4.47656,28.246094 h -8.77734 C 786.05859,67.878906 777.55078,57.148438 777.55078,57.148438 767.02734,41.941406 752.59766,45.902344 752.59766,45.902344 734.33594,50.039063 734.76562,68.0625 734.76562,68.0625 c -0.27343,15.699219 9.22657,21.035156 9.22657,21.035156 8.35937,5.210938 17.14453,3.574219 17.14453,3.574219 -2.83203,-2.988281 -4.5,-5.546875 -4.5,-5.546875 -3.36328,-7.402344 3.02344,-10.765625 3.02344,-10.765625 6.24218,-3.363281 11.67187,2.191406 11.67187,2.191406 4.88281,4.824219 6.21875,11.933594 6.21875,11.933594 h -6.69922 c -6,0 -5.91797,7.066406 -5.91797,7.066406 -0.082,7.058599 5.91797,7.085939 5.91797,7.085939 h 6.57031 c -0.76953,7.00391 -7.25,6.46094 -7.25,6.46094 -6.4414,-0.0859 -10.74609,-8.67578 -10.74609,-8.67578 -4.51562,5.00781 -2.94922,11.36328 -3.00781,11.39453 2.28515,11.41015 13.88672,11.08203 13.88672,11.08203 16.70703,0.082 17.41015,-20.26172 17.41015,-20.26172 h 8.52344 c -1.82031,22.70703 -12.61328,26.60547 -12.61328,26.60547 4.625,11.45703 18.59375,10.75 18.59375,10.75 0,0 13.96875,0.70703 18.60156,-10.75 0,0 -10.79687,-3.89844 -12.55469,-26.60547 h 8.47657 c 0,0 0.73047,20.34375 17.42968,20.26172 0,0 11.59375,0.32812 13.81641,-11.08203 0,-0.0312 1.51563,-6.38672 -2.99219,-11.39453 0,0 -4.28906,8.58984 -10.6914,8.67578 0,0 -6.48438,0.54297 -7.25782,-6.46094 h 6.53516 c 0,0 6.05078,-0.0273 5.94922,-7.085939 0,0 0.10156,-7.066406 -5.94922,-7.066406 h -6.6875 c 0,0 1.32422,-7.109375 6.24219,-11.933594 0,0 5.3789,-5.554687 11.67578,-2.191406 0,0 6.34766,3.363281 2.99219,10.765625 0,0 -1.66797,2.558594 -4.53907,5.546875 0,0 8.82032,1.636719 17.20313,-3.574219 0,0 9.50781,-5.335937 9.19922,-21.035156 0,0 0.46484,-18.023437 -17.83985,-22.160156"
       id="path25" />
    <path
       style="fill:#ffffff;fill-opacity:1;fill-rule:nonzero;stroke:none"
       d="m 990.69141,230.17969 h 6.34375 c 9.12504,0 10.73434,0.76953 11.03514,9.3164 h 8.2188 v -26.98437 h -8.2188 c -0.3008,8.8125 -2.0508,9.30859 -11.19139,9.30859 h -6.1875 v -31.26953 h 14.38669 c 10.2422,0 12,1.57031 15.8125,14.35547 h 8.9688 l -1.7383,-23.63281 h -68.50391 v 6.59375 c 9.5,0.16015 11.38672,2.34375 11.38672,11.34765 v 51.01563 c 0,9.01953 -1.88672,11.22265 -11.38672,11.38281 v 6.30078 h 44.51171 v -6.30078 c -10.43749,-0.16016 -13.43749,-1.91797 -13.43749,-11.38281"
       id="path27" />
    <path
       style="fill:#ffffff;fill-opacity:1;fill-rule:nonzero;stroke:none"
       d="m 910.70312,261.14453 c -13.125,0 -20.04687,-10.28125 -20.04687,-36.96484 0,-23.23438 5.49219,-34.89453 20.04687,-34.89453 14.72266,0 20.52344,11.66015 20.52344,34.5625 0,27.01562 -6.6289,37.29687 -20.52344,37.29687 m 0,-81.66406 c -24.9375,0 -41.49609,15.48047 -41.49609,45.80078 0,28.42969 15.57813,44.5 41.49609,44.5 25.85938,0 41.52735,-16.07031 41.52735,-44.5 0,-30.32031 -16.4375,-45.80078 -41.52735,-45.80078"
       id="path29" />
    <path
       style="fill:#ffffff;fill-opacity:1;fill-rule:nonzero;stroke:none"
       d="m 783.38281,236.49219 v 13.73828 c 0,9.01953 -1.8789,11.22265 -11.83594,11.38281 v 6.30078 h 43.40235 v -6.30078 c -9.96094,-0.16016 -11.83985,-2.36328 -11.83985,-11.38281 v -13.73828 l 21.125,-39 c 3.96485,-7.125 5.70313,-9.00391 11.83985,-9.79688 v -6.42187 h -30.00391 v 6.42187 c 6.19922,0.17188 8.38281,1.58985 8.38281,3.96485 0,1.23437 -0.60937,2.83593 -1.58203,4.72265 l -14.35547,29.04688 h -0.80468 l -15.28125,-28.89844 c -0.76953,-1.41406 -1.40625,-3.00391 -1.40625,-4.58203 0,-2.66406 2.83984,-4.08203 8.97656,-4.25391 v -6.42187 h -39.91797 v 6.42187 c 5.84375,0.79297 7.70313,2.85547 11.82422,10.12891"
       id="path31" />
    <path
       style="fill:#ffffff;fill-opacity:1;fill-rule:nonzero;stroke:none"
       d="m 691.84375,250.23047 c 0,9.01953 -1.91016,11.22265 -11.87109,11.38281 v 6.30078 h 43.57812 v -6.30078 c -9.94141,-0.16016 -11.85547,-2.36328 -11.85547,-11.38281 v -60.01953 h 6.46094 c 9.48437,0 11.55469,4.28906 14.39062,17.85937 h 9.3125 l -1.41796,-26.79687 h -78.60938 l -0.8125,26.79687 h 9.31641 c 2.21484,-13.26562 3.65625,-17.85937 14.24218,-17.85937 h 7.26563"
       id="path33" />
    <path
       style="fill:#ffffff;fill-opacity:1;fill-rule:nonzero;stroke:none"
       d="m 641.28516,199.21484 c 0,-9.0039 1.88281,-11.22265 11.1875,-11.34765 v -6.59375 h -42.25 v 6.59375 c 9.45312,0.125 11.33984,2.34375 11.33984,11.34765 v 51.01563 c 0,9.01953 -1.88672,11.22265 -11.33984,11.38281 v 6.30078 h 42.25 v -6.30078 c -9.30469,-0.16016 -11.1875,-2.36328 -11.1875,-11.38281"
       id="path35" />
    <path
       style="fill:#ffffff;fill-opacity:1;fill-rule:nonzero;stroke:none"
       d="m 562.97656,269.78125 c 22.27735,0 35.3711,-9.89844 35.3711,-27.91016 0,-14.0664 -9.12891,-22.26562 -24.9375,-25.92578 l -11.70313,-2.66406 c -8.81641,-2.06641 -11.66406,-5.84766 -11.66406,-12.61328 0,-7.91016 5.18359,-12.49219 14.34765,-12.49219 9.64454,0 14.53516,4.88281 15.96875,14.375 h 13.24219 v -17.05859 c -4.57422,-2.52735 -14.19922,-6.01563 -27.94531,-6.01563 -17.84375,0 -32.50781,9.01172 -32.50781,27.01953 0,14.3711 8.67187,21.9375 22.23828,24.94922 l 11.87109,2.67188 c 8.83203,2.07812 13.72656,5.22265 13.72656,13.76953 0,9.77344 -7.25,13.8789 -16.74218,13.8789 -12,0 -16.89844,-5.04687 -18.14063,-16.89843 h -13.42578 v 17.69531 c 4.40234,2.66797 13.06641,7.21875 30.30078,7.21875"
       id="path37" />
    <path
       style="fill:#ffffff;fill-opacity:1;fill-rule:nonzero;stroke:none"
       d="m 478.50781,222.13281 h -9.30078 v -31.58203 h 7.41797 c 14.53906,0 19.29687,4.41016 19.29687,15.48047 0,12.30859 -4.57421,16.10156 -17.41406,16.10156 m 35.375,31.73828 c -3.29687,-5.67968 -5.21094,-9.48437 -7.41406,-12.80078 -4.42969,-6.63672 -10.89453,-10.26953 -17.82422,-11.6875 V 228.75 c 15.625,-0.48047 27.44531,-6.3125 27.44531,-22.71875 0,-19.73438 -14.36718,-24.75781 -34.41406,-24.75781 h -43.53516 v 6.59375 c 9.45704,0.15625 11.34375,2.34375 11.34375,11.34765 v 51.01563 c 0,9.01953 -1.88671,11.22265 -11.34375,11.38281 v 6.30078 h 43.41407 v -6.30078 c -9.31641,-0.16016 -12.34766,-1.91797 -12.34766,-11.38281 v -19.58594 c 8.83984,0.15625 12.46875,3.62109 18.47656,14.53906 3.3125,6.3125 6.96875,13.72657 10.88282,22.73047 h 27.15234 v -6.46094 c -7.10547,-0.18359 -8.83203,-2.20312 -11.83594,-7.58203"
       id="path39" />
    <path
       style="fill:#ffffff;fill-opacity:1;fill-rule:nonzero;stroke:none"
       d="m 354.28906,267.91406 h 71.78516 v -26.67187 h -9.28516 c -1.25,15.30859 -4.91015,17.66797 -16.12109,17.66797 h -15.3125 v -31.10547 h 5.21094 c 9.16406,0 10.71093,0.76953 11.0625,8.82031 H 410 v -25.84375 h -8.37109 c -0.35157,8.17187 -2.04297,8.66406 -11.19532,8.66406 h -5.07812 v -28.89453 h 14.375 c 10.26953,0 12.02734,1.57031 15.80859,14.35547 h 8.96485 l -1.73438,-23.63281 h -68.48047 v 6.59375 c 9.45703,0.15625 11.33594,2.34375 11.33594,11.34765 v 51.01563 c 0,9.01953 -1.87891,11.22265 -11.33594,11.38281"
       id="path41" />
    <path
       style="fill:#ffffff;fill-opacity:1;fill-rule:nonzero;stroke:none"
       d="m 310.21875,268.68359 24.9375,-70.5625 c 2.85547,-8.05078 4.92969,-9.63281 11.21484,-10.42578 v -6.42187 h -31.58593 v 6.42187 c 7.11718,0.17188 9.64453,1.7461 9.64453,4.88281 0,1.28907 -0.3125,2.6875 -0.92188,4.44922 l -12.97265,39.76563 c -2.06641,6 -3.15235,12.32422 -3.625,14.70312 h -0.61329 c -0.5,-2.53125 -1.76171,-9.3164 -3.65625,-14.87109 l -13.26953,-39.59766 c -1.8789,-6.01172 -1.39843,-9.03515 8.51953,-9.33203 v -6.42187 h -39.42578 v 6.42187 c 5.79297,0.79297 7.71094,2.51563 10.72657,10.42578 l 25.8789,70.5625"
       id="path43" />
    <path
       style="fill:#ffffff;fill-opacity:1;fill-rule:nonzero;stroke:none"
       d="m 239.17187,199.21484 c 0,-9.0039 1.86329,-11.22265 11.21094,-11.34765 v -6.59375 h -42.30078 v 6.59375 c 9.46484,0.125 11.39063,2.34375 11.39063,11.34765 v 51.01563 c 0,9.01953 -1.92579,11.22265 -11.39063,11.38281 v 6.30078 h 42.30078 v -6.30078 c -9.34765,-0.16016 -11.21094,-2.36328 -11.21094,-11.38281"
       id="path45" />
    <path
       style="fill:#ffffff;fill-opacity:1;fill-rule:nonzero;stroke:none"
       d="m 117.93359,250.23047 c 0,9.01953 -1.91796,11.22265 -11.37109,11.38281 v 6.30078 h 34.09375 v -6.30078 c -9.32813,-0.16016 -11.21094,-2.36328 -11.21094,-11.38281 v -23.07031 c 0,-11.21485 -0.96484,-22.8711 -1.58984,-26.96875 h 0.77344 c 1.30468,2.96875 4.91015,11.36328 13.14453,23.21875 l 30.4414,44.5039 h 14.66407 v -68.69922 c 0,-9.0039 1.92968,-11.22265 11.25,-11.34765 v -6.59375 h -34.08594 v 6.59375 c 9.47656,0.125 11.33594,2.34375 11.33594,11.34765 v 15.65625 c 0,12.9336 1.11328,23.82422 1.60937,28.26563 h -0.96484 c -1.58203,-4.44141 -5.51563,-12.17188 -10.42188,-19.58594 L 137.64453,181.27344 H 106.5625 v 6.59375 c 9.45313,0.125 11.37109,2.34375 11.37109,11.34765"
       id="path47" />
    <path
       style="fill:#ffffff;fill-opacity:1;fill-rule:nonzero;stroke:none"
       d="m 51.195313,269.78125 c 26.222656,0 38.523437,-12.46094 38.523437,-37.39453 v -55.4375 c 0,-9.00391 2.035156,-11.50391 10.87891,-11.65235 v -6.63671 H 65.722656 v 6.63671 c 9.800782,0.14844 12.152344,2.64844 12.152344,11.65235 v 55.28125 c 0,19.14062 -7.433594,26.21484 -22.875,26.21484 -17.25,0 -23.425781,-7.58203 -23.425781,-27 v -54.49609 c 0,-9.00391 2.210937,-11.50391 12.203125,-11.65235 v -6.63671 H 0 v 6.63671 c 9.019531,0.14844 11.265625,2.64844 11.265625,11.65235 v 56.375 c 0,24.80078 12.617188,36.45703 39.929688,36.45703"
       id="path49" />
  </g>
</svg>
