<?xml version="1.0" encoding="UTF-8"?>
<svg xmlns="http://www.w3.org/2000/svg" xmlns:xlink="http://www.w3.org/1999/xlink" width="1563.14pt" height="297.54pt" viewBox="0 0 1563.14 297.54" version="1.1">
<defs>
<clipPath id="clip1">
  <path d="M 1492 79 L 1563.140625 79 L 1563.140625 268 L 1492 268 Z M 1492 79 "/>
</clipPath>
</defs>
<g id="surface1">
<path style=" stroke:none;fill-rule:nonzero;fill:white;fill-opacity:1;" d="M 1132.53125 120 C 1132.53125 105.308594 1136.640625 101.730469 1150.25 101.449219 L 1150.25 89.132813 L 1074.621094 89.132813 L 1074.621094 101.449219 C 1088.269531 101.730469 1092.128906 105.308594 1092.128906 120 L 1092.128906 237.800781 C 1092.128906 252.464844 1088.269531 256.070313 1074.621094 256.070313 L 1074.621094 267.914063 L 1150.25 267.914063 L 1150.25 256.070313 C 1136.640625 256.070313 1132.53125 252.464844 1132.53125 237.800781 L 1132.53125 185.84375 L 1193.730469 185.84375 L 1193.730469 237.800781 C 1193.730469 252.464844 1189.609375 256.070313 1176.019531 256.070313 L 1176.019531 267.914063 L 1251.640625 267.914063 L 1251.640625 256.070313 C 1238 256.070313 1233.839844 252.464844 1233.839844 237.800781 L 1233.839844 120 C 1233.839844 105.308594 1238 101.730469 1251.640625 101.449219 L 1251.640625 89.132813 L 1176.019531 89.132813 L 1176.019531 101.449219 C 1189.609375 101.730469 1193.730469 105.308594 1193.730469 120 L 1193.730469 166.527344 L 1132.53125 166.527344 "/>
<path style=" stroke:none;fill-rule:nonzero;fill:white;fill-opacity:1;" d="M 1386.941406 229.085938 L 1386.941406 134.414063 L 1380.71875 134.414063 L 1333.429688 143.453125 L 1333.429688 154.746094 C 1346 155.25 1348.851563 157.824219 1348.851563 176.597656 L 1348.851563 236.566406 C 1341.121094 242.976563 1334.441406 246.082031 1325.691406 246.082031 C 1313.871094 246.082031 1309.210938 239.125 1309.210938 225.214844 L 1309.210938 134.414063 L 1303.019531 134.414063 L 1255.738281 143.453125 L 1255.738281 154.746094 C 1268.320313 155.25 1270.890625 157.824219 1270.890625 176.597656 L 1270.890625 234.25 C 1270.890625 259.695313 1285.558594 270.769531 1307.691406 270.769531 C 1327.25 270.769531 1340.878906 262.273438 1350.910156 249.921875 C 1351.691406 259.695313 1355.28125 266.910156 1357.851563 270.769531 L 1361.738281 270.769531 L 1402.878906 261.5 L 1402.878906 250.957031 C 1389.730469 249.921875 1386.941406 247.871094 1386.941406 229.085938 "/>
<path style=" stroke:none;fill-rule:nonzero;fill:white;fill-opacity:1;" d="M 1466.941406 238.085938 L 1466.941406 104.578125 C 1466.941406 92.734375 1465.148438 83.746094 1462.28125 79.105469 L 1458.429688 79.105469 L 1411.878906 86.054688 L 1411.878906 97.371094 C 1425.28125 97.902344 1428.839844 100.476563 1428.839844 119.238281 L 1428.839844 238.339844 C 1428.839844 253.011719 1426.011719 256.097656 1412.910156 256.347656 L 1412.910156 267.914063 L 1482.851563 267.914063 L 1482.851563 256.347656 C 1469.488281 256.097656 1466.941406 252.753906 1466.941406 238.085938 "/>
<g clip-path="url(#clip1)" clip-rule="nonzero">
<path style=" stroke:none;fill-rule:nonzero;fill:white;fill-opacity:1;" d="M 1547.191406 238.085938 L 1547.191406 104.578125 C 1547.191406 92.734375 1545.429688 83.746094 1542.558594 79.105469 L 1538.679688 79.105469 L 1492.148438 86.054688 L 1492.148438 97.371094 C 1505.53125 97.902344 1509.089844 100.476563 1509.089844 119.238281 L 1509.089844 238.339844 C 1509.089844 253.011719 1506.289063 256.097656 1493.160156 256.347656 L 1493.160156 267.914063 L 1563.140625 267.914063 L 1563.140625 256.347656 C 1549.769531 256.097656 1547.191406 252.753906 1547.191406 238.085938 "/>
</g>
<path style=" stroke:none;fill-rule:nonzero;fill:white;fill-opacity:1;" d="M 689.574219 128.140625 C 689.574219 134.386719 683.285156 134.414063 683.285156 134.414063 L 638.203125 134.414063 L 638.203125 121.878906 L 683.285156 121.878906 C 689.574219 121.878906 689.574219 128.140625 689.574219 128.140625 M 593.101563 121.878906 L 638.171875 121.878906 L 638.171875 134.414063 L 593.101563 134.414063 C 593.101563 134.414063 586.855469 134.386719 586.855469 128.140625 C 586.855469 128.140625 586.855469 121.878906 593.101563 121.878906 M 689.773438 50.679688 C 689.773438 50.679688 687.34375 37.285156 677.753906 40.832031 C 677.753906 40.832031 667.234375 45.441406 674.582031 60.921875 C 674.582031 60.921875 676.046875 55.945313 680.472656 56.40625 C 680.472656 56.40625 689.109375 57.390625 684.851563 68.191406 C 684.851563 68.191406 681.546875 75.832031 674.808594 74.078125 C 674.808594 74.078125 665.113281 73.214844 665.113281 59 C 665.113281 59 658.472656 71.550781 650.8125 70.46875 C 650.8125 70.46875 641.269531 71.367188 641.480469 60.292969 C 641.480469 60.292969 642.085938 52.191406 649.09375 50.886719 C 649.09375 50.886719 657.441406 49.988281 655.929688 57.886719 C 655.929688 57.886719 674.929688 41.8125 657.496094 31.988281 C 657.496094 31.988281 650.023438 28.539063 643.480469 35.996094 C 643.480469 35.996094 646.867188 32.078125 647.074219 26.808594 C 647.074219 26.808594 650.175781 17.21875 638.171875 10.636719 L 638.171875 10.613281 C 638.167969 10.617188 638.160156 10.621094 638.152344 10.625 C 638.144531 10.621094 638.140625 10.617188 638.136719 10.613281 L 638.136719 10.636719 C 626.152344 17.21875 629.199219 26.808594 629.199219 26.808594 C 629.425781 32.078125 632.824219 35.996094 632.824219 35.996094 C 626.292969 28.539063 618.789063 31.988281 618.789063 31.988281 C 601.371094 41.8125 620.394531 57.886719 620.394531 57.886719 C 618.878906 49.988281 627.175781 50.886719 627.175781 50.886719 C 634.222656 52.191406 634.871094 60.292969 634.871094 60.292969 C 635 71.367188 625.464844 70.46875 625.464844 70.46875 C 617.832031 71.550781 611.214844 59 611.214844 59 C 611.214844 73.214844 601.515625 74.078125 601.515625 74.078125 C 594.785156 75.832031 591.46875 68.191406 591.46875 68.191406 C 587.21875 57.390625 595.820313 56.40625 595.820313 56.40625 C 600.28125 55.945313 601.703125 60.921875 601.703125 60.921875 C 609.078125 45.441406 598.535156 40.832031 598.535156 40.832031 C 588.972656 37.285156 586.539063 50.679688 586.539063 50.679688 C 580.425781 34.710938 567.925781 38.871094 567.925781 38.871094 C 586.539063 64.027344 592.863281 87.863281 592.863281 87.863281 L 683.410156 87.863281 C 683.410156 87.863281 689.773438 64.027344 708.382813 38.871094 C 708.382813 38.871094 695.890625 34.710938 689.773438 50.679688 M 682.210938 99.027344 C 682.210938 99.027344 680.542969 111.425781 680.449219 111.425781 C 680.449219 111.425781 681.378906 111.320313 638.171875 111.425781 L 595.507813 111.425781 C 595.507813 111.425781 593.953125 99.027344 593.847656 99.027344 L 682.210938 99.027344 "/>
<path style=" stroke:none;fill-rule:nonzero;fill:white;fill-opacity:1;" d="M 269.316406 77.679688 C 269.316406 77.679688 259.671875 69.589844 267.746094 50.621094 C 267.746094 50.621094 275.058594 61.367188 287.515625 63.351563 C 287.515625 63.351563 292.808594 43.164063 306.339844 40.503906 C 306.339844 40.503906 301.503906 52.953125 314.398438 63.683594 C 314.398438 63.683594 325.605469 47.824219 339.757813 47.96875 C 339.757813 47.96875 331.976563 56.050781 336.503906 63.507813 C 336.503906 63.507813 340.683594 72.246094 335.703125 77.679688 C 335.703125 77.679688 344.589844 77.679688 351.105469 72.085938 C 351.105469 72.085938 360.8125 66.472656 356.238281 45.5 C 356.238281 45.5 353.925781 31.175781 376.460938 26.039063 C 376.460938 26.039063 350.660156 15.019531 324.535156 33.375 C 324.535156 33.375 312.058594 15.019531 337.609375 0.0820313 C 337.609375 0.0820313 294.636719 -3.640625 275.832031 37.5625 C 275.832031 37.5625 259.996094 29.765625 270.394531 10.03125 C 270.394531 10.03125 241.007813 20.773438 243.648438 55.457031 C 243.648438 55.457031 244.300781 77.679688 269.316406 77.679688 M 293.96875 144.160156 L 315.078125 144.160156 C 324.480469 144.210938 324.480469 130.742188 315.078125 130.773438 L 293.96875 130.773438 C 284.570313 130.742188 284.570313 144.210938 293.96875 144.160156 M 283.824219 122.007813 C 283.824219 122.039063 325.234375 122.039063 325.234375 122.007813 C 334.660156 122.0625 334.660156 108.59375 325.234375 108.609375 L 283.824219 108.609375 C 274.40625 108.59375 274.40625 122.0625 283.824219 122.007813 M 273.59375 99.855469 C 264.175781 99.921875 264.175781 86.414063 273.59375 86.441406 L 335.4375 86.457031 C 344.894531 86.441406 344.894531 99.921875 335.4375 99.855469 C 335.4375 99.882813 273.59375 99.882813 273.59375 99.855469 "/>
<path style=" stroke:none;fill-rule:nonzero;fill:white;fill-opacity:1;" d="M 523.605469 78.703125 C 523.605469 78.703125 522.078125 86.804688 513.394531 86.496094 L 513.238281 86.449219 C 513.238281 86.449219 513.300781 86.492188 513.3125 86.503906 C 513.292969 86.503906 513.28125 86.507813 513.261719 86.507813 L 513.367188 86.539063 C 514.03125 87.015625 520.335938 91.765625 516.984375 98.90625 C 516.984375 98.90625 513.105469 107.355469 502.789063 105.226563 C 502.789063 105.226563 496.574219 103.84375 494.941406 110.902344 C 494.941406 110.902344 493.753906 121.40625 484.527344 122.480469 C 484.527344 122.480469 476.273438 123.558594 473.980469 115.164063 L 473.980469 115.066406 C 473.980469 115.066406 473.964844 115.117188 473.960938 115.121094 C 473.957031 115.109375 473.953125 115.109375 473.953125 115.097656 L 473.953125 115.148438 C 473.816406 115.59375 471.316406 123.429688 463.296875 122.464844 C 463.296875 122.464844 454.054688 121.390625 452.878906 110.871094 C 452.878906 110.871094 452.308594 104.546875 445.03125 105.199219 C 445.03125 105.199219 434.703125 107.324219 430.804688 98.859375 C 430.804688 98.859375 427.253906 91.390625 434.53125 86.550781 L 434.617188 86.523438 L 434.5625 86.523438 C 434.570313 86.515625 434.578125 86.511719 434.585938 86.507813 L 434.535156 86.523438 C 434.089844 86.53125 425.832031 86.597656 424.273438 78.625 C 424.273438 78.625 422.464844 69.515625 432.078125 65.167969 C 432.078125 65.167969 437.910156 62.667969 435.089844 55.945313 C 435.089844 55.945313 429.84375 46.78125 436.691406 40.460938 C 436.691406 40.460938 442.675781 34.800781 449.539063 40.203125 L 449.613281 40.300781 C 449.613281 40.300781 449.597656 40.238281 449.59375 40.230469 C 449.601563 40.238281 449.605469 40.238281 449.613281 40.246094 L 449.585938 40.203125 C 449.410156 39.695313 446.90625 31.910156 453.890625 28.027344 C 453.890625 28.027344 462.007813 23.449219 469.109375 31.269531 C 469.109375 31.269531 473.328125 36.035156 478.792969 31.269531 C 478.792969 31.269531 485.917969 23.449219 494.03125 28.027344 C 494.03125 28.027344 501.296875 31.96875 498.261719 40.175781 L 498.210938 40.25 C 498.210938 40.25 498.25 40.222656 498.253906 40.21875 C 498.25 40.230469 498.25 40.238281 498.246094 40.246094 L 498.277344 40.203125 C 498.652344 39.917969 505.300781 35.050781 511.238281 40.554688 C 511.238281 40.554688 518.015625 46.859375 512.84375 56.003906 C 512.84375 56.003906 509.582031 61.464844 515.800781 65.261719 C 515.800781 65.261719 525.433594 69.574219 523.605469 78.703125 M 542.273438 64.917969 C 542.273438 64.917969 538.769531 53.957031 527.875 56.207031 C 527.875 56.207031 537.671875 50.796875 534.308594 40.761719 C 534.308594 40.761719 529.464844 27.03125 515.191406 30.253906 C 515.191406 30.253906 509.34375 30.921875 506.730469 28.585938 L 504.675781 31.394531 L 506.761719 28.523438 C 506.761719 28.523438 503.675781 26.789063 502.566406 20.941406 C 502.566406 20.941406 501.296875 6.410156 486.664063 5.996094 C 486.664063 5.996094 475.175781 5.96875 473.925781 17.015625 C 473.925781 17.015625 471.867188 5.96875 461.246094 6.101563 C 461.246094 6.101563 446.722656 6.484375 445.339844 21.0625 C 445.339844 21.0625 444.164063 26.769531 441.128906 28.546875 L 441.113281 28.523438 C 441.113281 28.523438 438.480469 30.921875 432.617188 30.160156 C 432.617188 30.160156 418.421875 26.902344 413.460938 40.699219 C 413.460938 40.699219 409.890625 51.609375 420.003906 56.191406 C 420.003906 56.191406 408.894531 54.789063 405.722656 64.902344 C 405.722656 64.902344 401.570313 78.828125 414.992188 84.625 C 414.992188 84.625 420.117188 87.507813 420.859375 90.941406 L 420.832031 90.953125 C 420.832031 90.953125 422.300781 94.183594 419.765625 99.585938 C 419.765625 99.585938 412.253906 112.089844 423.808594 121.019531 C 423.808594 121.019531 433.136719 127.804688 440.59375 119.601563 C 440.59375 119.601563 435.832031 129.746094 444.4375 135.855469 C 444.4375 135.855469 456.4375 144.101563 466.105469 133.105469 C 466.105469 133.105469 470.453125 129.164063 473.925781 129.53125 L 473.953125 122.300781 L 473.953125 129.558594 C 473.953125 129.558594 477.457031 129.164063 481.792969 133.257813 C 481.792969 133.257813 491.371094 144.242188 503.4375 135.976563 C 503.4375 135.976563 512.75 129.242188 507.269531 119.601563 C 507.269531 119.601563 515.449219 127.289063 523.949219 120.988281 C 523.949219 120.988281 535.464844 112.089844 528.039063 99.503906 C 528.039063 99.503906 525.601563 94.183594 526.980469 90.953125 L 523.066406 89.667969 L 527.046875 90.953125 C 527.046875 90.953125 527.714844 87.496094 532.953125 84.625 C 532.953125 84.625 546.378906 78.917969 542.273438 64.917969 M 465.109375 73.734375 C 465.109375 68.882813 469.058594 64.917969 473.925781 64.917969 C 478.792969 64.917969 482.75 68.882813 482.75 73.734375 C 482.75 78.609375 478.792969 82.5625 473.925781 82.5625 C 469.058594 82.5625 465.109375 78.609375 465.109375 73.734375 M 491.382813 79.414063 C 491.382813 79.414063 487.972656 91.582031 473.675781 92.246094 L 473.675781 92.179688 C 473.675781 92.179688 461.058594 92.671875 456.003906 79.265625 L 456.050781 79.246094 C 456.050781 79.246094 451.695313 67.390625 462.871094 58.449219 L 462.910156 58.503906 C 462.910156 58.503906 472.8125 50.691406 484.785156 58.554688 L 484.753906 58.597656 C 484.753906 58.597656 495.269531 65.628906 491.492188 79.441406 L 499.730469 82.113281 Z M 503.9375 67.464844 C 503.9375 67.464844 499.730469 64.703125 502.066406 59.832031 C 502.066406 59.832031 503.617188 54.402344 500.378906 50.371094 C 500.378906 50.371094 496.464844 45.785156 491.757813 48.96875 L 491.457031 49.382813 C 491.480469 49.320313 493.789063 43.472656 487.664063 40.875 C 487.664063 40.875 483.722656 38.644531 477.265625 42.980469 C 477.265625 42.980469 473.328125 46.117188 469.414063 42.460938 C 469.414063 42.460938 464.746094 39.257813 459.9375 41.082031 C 459.9375 41.082031 454.34375 43.410156 455.878906 48.878906 L 456.105469 49.191406 C 455.503906 48.734375 451.042969 45.578125 446.960938 50.277344 C 446.960938 50.277344 443.605469 53.304688 445.765625 60.8125 C 445.765625 60.8125 447.5 65.503906 442.820313 68.0625 C 442.820313 68.0625 438.347656 71.550781 438.589844 76.730469 C 438.589844 76.730469 439.054688 82.746094 444.738281 82.949219 L 445.210938 82.789063 C 445.054688 82.894531 439.941406 86.273438 443.289063 91.890625 C 443.289063 91.890625 445.15625 96.003906 452.960938 96.28125 C 452.960938 96.28125 457.972656 96.039063 459.011719 101.308594 C 459.011719 101.308594 460.894531 106.679688 465.894531 108.035156 C 465.894531 108.035156 471.742188 109.40625 473.675781 104.085938 L 473.675781 103.578125 C 473.675781 103.578125 475.261719 109.746094 481.753906 108.222656 C 481.753906 108.222656 486.265625 107.742188 488.894531 100.402344 C 488.894531 100.402344 490.253906 95.574219 495.589844 96.253906 C 495.589844 96.253906 501.242188 96.070313 504.082031 91.75 C 504.082031 91.75 507.257813 86.570313 502.730469 83.082031 L 502.257813 82.933594 C 502.308594 82.933594 508.597656 83.308594 509.164063 76.699219 C 509.164063 76.699219 510.078125 72.273438 503.9375 67.464844 "/>
<path style=" stroke:none;fill-rule:nonzero;fill:white;fill-opacity:1;" d="M 933.785156 27.632813 C 931.410156 16.375 923.734375 15.464844 920.714844 15.535156 C 920.714844 15.558594 920.660156 19.507813 920.714844 19.507813 C 924.136719 19.480469 925.027344 22.296875 925.027344 23.558594 C 924.777344 27.609375 921.0625 27.632813 921.0625 27.632813 C 918.640625 27.59375 916.945313 25.714844 916.945313 23.652344 C 916.933594 21.273438 918.738281 19.71875 920.714844 19.507813 C 920.773438 19.519531 920.714844 15.527344 920.714844 15.527344 C 910.703125 15.351563 911.054688 23.59375 911.054688 23.59375 C 908.652344 25.609375 903.90625 27.332031 903.90625 27.332031 C 902.296875 28.660156 902.179688 31.179688 902.179688 31.179688 C 902.082031 32.546875 902.269531 33.042969 902.269531 32.945313 C 911.335938 29.171875 913.386719 31.121094 913.386719 31.121094 L 915.007813 32.375 C 917.226563 35.34375 917.859375 41.953125 917.859375 41.953125 C 916.054688 54.6875 905.261719 54.988281 907.046875 73.183594 C 908.222656 102.804688 948.253906 110.457031 948.253906 110.457031 C 950.5 114.925781 945.449219 124.851563 945.449219 124.851563 C 944.8125 126.375 943.5625 126.375 938.535156 125.574219 C 936.007813 125.09375 934.3125 124.613281 934.3125 124.613281 C 926.109375 121.777344 929.074219 130.625 929.074219 130.625 C 929.035156 130.582031 959.144531 130.625 959.144531 130.625 C 961.386719 122.515625 955.898438 124.964844 955.898438 124.964844 C 950.457031 127.753906 950.902344 124.765625 950.902344 124.765625 C 952.539063 115.730469 956.734375 110.121094 956.734375 110.121094 C 886.816406 68.015625 933.171875 55.28125 933.171875 55.28125 C 933.171875 55.28125 901.371094 71.042969 972.460938 109.71875 C 990.214844 120.507813 990.785156 120.941406 996.582031 123.8125 C 1000.679688 126.460938 1001.578125 124.882813 1001.578125 124.882813 C 1002.21875 123.507813 1000.261719 121.625 1000.261719 121.625 L 983.6875 101.050781 C 1005.488281 114.960938 1015.179688 122.203125 1015.179688 122.203125 C 1025.421875 126.578125 1040.628906 112.664063 1020.859375 104.230469 C 938.308594 59.566406 933.785156 27.632813 933.785156 27.632813 "/>
<path style=" stroke:none;fill-rule:nonzero;fill:white;fill-opacity:1;" d="M 851.828125 45.902344 C 851.828125 45.902344 837.445313 41.941406 826.894531 57.148438 C 826.894531 57.148438 818.414063 67.878906 817.023438 90.484375 L 808.265625 90.484375 C 808.265625 90.484375 808.847656 76.050781 812.703125 62.238281 C 812.703125 62.238281 814.894531 53.570313 817.609375 38.996094 C 817.609375 38.996094 820.167969 26.496094 816.28125 17.054688 C 816.28125 17.054688 811.347656 2.441406 802.21875 3.058594 C 793.09375 2.441406 788.171875 17.054688 788.171875 17.054688 C 784.253906 26.496094 786.863281 38.996094 786.863281 38.996094 C 789.59375 53.570313 791.761719 62.238281 791.761719 62.238281 C 795.589844 76.050781 796.238281 90.484375 796.238281 90.484375 L 787.460938 90.484375 C 786.058594 67.878906 777.550781 57.148438 777.550781 57.148438 C 767.027344 41.941406 752.597656 45.902344 752.597656 45.902344 C 734.335938 50.039063 734.765625 68.0625 734.765625 68.0625 C 734.492188 83.761719 743.992188 89.097656 743.992188 89.097656 C 752.351563 94.308594 761.136719 92.671875 761.136719 92.671875 C 758.304688 89.683594 756.636719 87.125 756.636719 87.125 C 753.273438 79.722656 759.660156 76.359375 759.660156 76.359375 C 765.902344 72.996094 771.332031 78.550781 771.332031 78.550781 C 776.214844 83.375 777.550781 90.484375 777.550781 90.484375 L 770.851563 90.484375 C 764.851563 90.484375 764.933594 97.550781 764.933594 97.550781 C 764.851563 104.609375 770.851563 104.636719 770.851563 104.636719 L 777.421875 104.636719 C 776.652344 111.640625 770.171875 111.097656 770.171875 111.097656 C 763.730469 111.011719 759.425781 102.421875 759.425781 102.421875 C 754.910156 107.429688 756.476563 113.785156 756.417969 113.816406 C 758.703125 125.226563 770.304688 124.898438 770.304688 124.898438 C 787.011719 124.980469 787.714844 104.636719 787.714844 104.636719 L 796.238281 104.636719 C 794.417969 127.34375 783.625 131.242188 783.625 131.242188 C 788.25 142.699219 802.21875 141.992188 802.21875 141.992188 C 802.21875 141.992188 816.1875 142.699219 820.820313 131.242188 C 820.820313 131.242188 810.023438 127.34375 808.265625 104.636719 L 816.742188 104.636719 C 816.742188 104.636719 817.472656 124.980469 834.171875 124.898438 C 834.171875 124.898438 845.765625 125.226563 847.988281 113.816406 C 847.988281 113.785156 849.503906 107.429688 844.996094 102.421875 C 844.996094 102.421875 840.707031 111.011719 834.304688 111.097656 C 834.304688 111.097656 827.820313 111.640625 827.046875 104.636719 L 833.582031 104.636719 C 833.582031 104.636719 839.632813 104.609375 839.53125 97.550781 C 839.53125 97.550781 839.632813 90.484375 833.582031 90.484375 L 826.894531 90.484375 C 826.894531 90.484375 828.21875 83.375 833.136719 78.550781 C 833.136719 78.550781 838.515625 72.996094 844.8125 76.359375 C 844.8125 76.359375 851.160156 79.722656 847.804688 87.125 C 847.804688 87.125 846.136719 89.683594 843.265625 92.671875 C 843.265625 92.671875 852.085938 94.308594 860.46875 89.097656 C 860.46875 89.097656 869.976563 83.761719 869.667969 68.0625 C 869.667969 68.0625 870.132813 50.039063 851.828125 45.902344 "/>
<path style=" stroke:none;fill-rule:nonzero;fill:white;fill-opacity:1;" d="M 990.691406 230.179688 L 997.035156 230.179688 C 1006.160156 230.179688 1007.769531 230.949219 1008.070313 239.496094 L 1016.289063 239.496094 L 1016.289063 212.511719 L 1008.070313 212.511719 C 1007.769531 221.324219 1006.019531 221.820313 996.878906 221.820313 L 990.691406 221.820313 L 990.691406 190.550781 L 1005.078125 190.550781 C 1015.320313 190.550781 1017.078125 192.121094 1020.890625 204.90625 L 1029.859375 204.90625 L 1028.121094 181.273438 L 959.617188 181.273438 L 959.617188 187.867188 C 969.117188 188.027344 971.003906 190.210938 971.003906 199.214844 L 971.003906 250.230469 C 971.003906 259.25 969.117188 261.453125 959.617188 261.613281 L 959.617188 267.914063 L 1004.128906 267.914063 L 1004.128906 261.613281 C 993.691406 261.453125 990.691406 259.695313 990.691406 250.230469 "/>
<path style=" stroke:none;fill-rule:nonzero;fill:white;fill-opacity:1;" d="M 910.703125 261.144531 C 897.578125 261.144531 890.65625 250.863281 890.65625 224.179688 C 890.65625 200.945313 896.148438 189.285156 910.703125 189.285156 C 925.425781 189.285156 931.226563 200.945313 931.226563 223.847656 C 931.226563 250.863281 924.597656 261.144531 910.703125 261.144531 M 910.703125 179.480469 C 885.765625 179.480469 869.207031 194.960938 869.207031 225.28125 C 869.207031 253.710938 884.785156 269.78125 910.703125 269.78125 C 936.5625 269.78125 952.230469 253.710938 952.230469 225.28125 C 952.230469 194.960938 935.792969 179.480469 910.703125 179.480469 "/>
<path style=" stroke:none;fill-rule:nonzero;fill:white;fill-opacity:1;" d="M 783.382813 236.492188 L 783.382813 250.230469 C 783.382813 259.25 781.503906 261.453125 771.546875 261.613281 L 771.546875 267.914063 L 814.949219 267.914063 L 814.949219 261.613281 C 804.988281 261.453125 803.109375 259.25 803.109375 250.230469 L 803.109375 236.492188 L 824.234375 197.492188 C 828.199219 190.367188 829.9375 188.488281 836.074219 187.695313 L 836.074219 181.273438 L 806.070313 181.273438 L 806.070313 187.695313 C 812.269531 187.867188 814.453125 189.285156 814.453125 191.660156 C 814.453125 192.894531 813.84375 194.496094 812.871094 196.382813 L 798.515625 225.429688 L 797.710938 225.429688 L 782.429688 196.53125 C 781.660156 195.117188 781.023438 193.527344 781.023438 191.949219 C 781.023438 189.285156 783.863281 187.867188 790 187.695313 L 790 181.273438 L 750.082031 181.273438 L 750.082031 187.695313 C 755.925781 188.488281 757.785156 190.550781 761.90625 197.824219 "/>
<path style=" stroke:none;fill-rule:nonzero;fill:white;fill-opacity:1;" d="M 691.84375 250.230469 C 691.84375 259.25 689.933594 261.453125 679.972656 261.613281 L 679.972656 267.914063 L 723.550781 267.914063 L 723.550781 261.613281 C 713.609375 261.453125 711.695313 259.25 711.695313 250.230469 L 711.695313 190.210938 L 718.15625 190.210938 C 727.640625 190.210938 729.710938 194.5 732.546875 208.070313 L 741.859375 208.070313 L 740.441406 181.273438 L 661.832031 181.273438 L 661.019531 208.070313 L 670.335938 208.070313 C 672.550781 194.804688 673.992188 190.210938 684.578125 190.210938 L 691.84375 190.210938 "/>
<path style=" stroke:none;fill-rule:nonzero;fill:white;fill-opacity:1;" d="M 641.285156 199.214844 C 641.285156 190.210938 643.167969 187.992188 652.472656 187.867188 L 652.472656 181.273438 L 610.222656 181.273438 L 610.222656 187.867188 C 619.675781 187.992188 621.5625 190.210938 621.5625 199.214844 L 621.5625 250.230469 C 621.5625 259.25 619.675781 261.453125 610.222656 261.613281 L 610.222656 267.914063 L 652.472656 267.914063 L 652.472656 261.613281 C 643.167969 261.453125 641.285156 259.25 641.285156 250.230469 "/>
<path style=" stroke:none;fill-rule:nonzero;fill:white;fill-opacity:1;" d="M 562.976563 269.78125 C 585.253906 269.78125 598.347656 259.882813 598.347656 241.871094 C 598.347656 227.804688 589.21875 219.605469 573.410156 215.945313 L 561.707031 213.28125 C 552.890625 211.214844 550.042969 207.433594 550.042969 200.667969 C 550.042969 192.757813 555.226563 188.175781 564.390625 188.175781 C 574.035156 188.175781 578.925781 193.058594 580.359375 202.550781 L 593.601563 202.550781 L 593.601563 185.492188 C 589.027344 182.964844 579.402344 179.476563 565.65625 179.476563 C 547.8125 179.476563 533.148438 188.488281 533.148438 206.496094 C 533.148438 220.867188 541.820313 228.433594 555.386719 231.445313 L 567.257813 234.117188 C 576.089844 236.195313 580.984375 239.339844 580.984375 247.886719 C 580.984375 257.660156 573.734375 261.765625 564.242188 261.765625 C 552.242188 261.765625 547.34375 256.71875 546.101563 244.867188 L 532.675781 244.867188 L 532.675781 262.5625 C 537.078125 265.230469 545.742188 269.78125 562.976563 269.78125 "/>
<path style=" stroke:none;fill-rule:nonzero;fill:white;fill-opacity:1;" d="M 478.507813 222.132813 L 469.207031 222.132813 L 469.207031 190.550781 L 476.625 190.550781 C 491.164063 190.550781 495.921875 194.960938 495.921875 206.03125 C 495.921875 218.339844 491.347656 222.132813 478.507813 222.132813 M 513.882813 253.871094 C 510.585938 248.191406 508.671875 244.386719 506.46875 241.070313 C 502.039063 234.433594 495.574219 230.800781 488.644531 229.382813 L 488.644531 228.75 C 504.269531 228.269531 516.089844 222.4375 516.089844 206.03125 C 516.089844 186.296875 501.722656 181.273438 481.675781 181.273438 L 438.140625 181.273438 L 438.140625 187.867188 C 447.597656 188.023438 449.484375 190.210938 449.484375 199.214844 L 449.484375 250.230469 C 449.484375 259.25 447.597656 261.453125 438.140625 261.613281 L 438.140625 267.914063 L 481.554688 267.914063 L 481.554688 261.613281 C 472.238281 261.453125 469.207031 259.695313 469.207031 250.230469 L 469.207031 230.644531 C 478.046875 230.800781 481.675781 234.265625 487.683594 245.183594 C 490.996094 251.496094 494.652344 258.910156 498.566406 267.914063 L 525.71875 267.914063 L 525.71875 261.453125 C 518.613281 261.269531 516.886719 259.25 513.882813 253.871094 "/>
<path style=" stroke:none;fill-rule:nonzero;fill:white;fill-opacity:1;" d="M 354.289063 267.914063 L 426.074219 267.914063 L 426.074219 241.242188 L 416.789063 241.242188 C 415.539063 256.550781 411.878906 258.910156 400.667969 258.910156 L 385.355469 258.910156 L 385.355469 227.804688 L 390.566406 227.804688 C 399.730469 227.804688 401.277344 228.574219 401.628906 236.625 L 410 236.625 L 410 210.78125 L 401.628906 210.78125 C 401.277344 218.953125 399.585938 219.445313 390.433594 219.445313 L 385.355469 219.445313 L 385.355469 190.550781 L 399.730469 190.550781 C 410 190.550781 411.757813 192.121094 415.539063 204.90625 L 424.503906 204.90625 L 422.769531 181.273438 L 354.289063 181.273438 L 354.289063 187.867188 C 363.746094 188.023438 365.625 190.210938 365.625 199.214844 L 365.625 250.230469 C 365.625 259.25 363.746094 261.453125 354.289063 261.613281 "/>
<path style=" stroke:none;fill-rule:nonzero;fill:white;fill-opacity:1;" d="M 310.21875 268.683594 L 335.15625 198.121094 C 338.011719 190.070313 340.085938 188.488281 346.371094 187.695313 L 346.371094 181.273438 L 314.785156 181.273438 L 314.785156 187.695313 C 321.902344 187.867188 324.429688 189.441406 324.429688 192.578125 C 324.429688 193.867188 324.117188 195.265625 323.507813 197.027344 L 310.535156 236.792969 C 308.46875 242.792969 307.382813 249.117188 306.910156 251.496094 L 306.296875 251.496094 C 305.796875 248.964844 304.535156 242.179688 302.640625 236.625 L 289.371094 197.027344 C 287.492188 191.015625 287.972656 187.992188 297.890625 187.695313 L 297.890625 181.273438 L 258.464844 181.273438 L 258.464844 187.695313 C 264.257813 188.488281 266.175781 190.210938 269.191406 198.121094 L 295.070313 268.683594 "/>
<path style=" stroke:none;fill-rule:nonzero;fill:white;fill-opacity:1;" d="M 239.171875 199.214844 C 239.171875 190.210938 241.035156 187.992188 250.382813 187.867188 L 250.382813 181.273438 L 208.082031 181.273438 L 208.082031 187.867188 C 217.546875 187.992188 219.472656 190.210938 219.472656 199.214844 L 219.472656 250.230469 C 219.472656 259.25 217.546875 261.453125 208.082031 261.613281 L 208.082031 267.914063 L 250.382813 267.914063 L 250.382813 261.613281 C 241.035156 261.453125 239.171875 259.25 239.171875 250.230469 "/>
<path style=" stroke:none;fill-rule:nonzero;fill:white;fill-opacity:1;" d="M 117.933594 250.230469 C 117.933594 259.25 116.015625 261.453125 106.5625 261.613281 L 106.5625 267.914063 L 140.65625 267.914063 L 140.65625 261.613281 C 131.328125 261.453125 129.445313 259.25 129.445313 250.230469 L 129.445313 227.160156 C 129.445313 215.945313 128.480469 204.289063 127.855469 200.191406 L 128.628906 200.191406 C 129.933594 203.160156 133.539063 211.554688 141.773438 223.410156 L 172.214844 267.914063 L 186.878906 267.914063 L 186.878906 199.214844 C 186.878906 190.210938 188.808594 187.992188 198.128906 187.867188 L 198.128906 181.273438 L 164.042969 181.273438 L 164.042969 187.867188 C 173.519531 187.992188 175.378906 190.210938 175.378906 199.214844 L 175.378906 214.871094 C 175.378906 227.804688 176.492188 238.695313 176.988281 243.136719 L 176.023438 243.136719 C 174.441406 238.695313 170.507813 230.964844 165.601563 223.550781 L 137.644531 181.273438 L 106.5625 181.273438 L 106.5625 187.867188 C 116.015625 187.992188 117.933594 190.210938 117.933594 199.214844 "/>
<path style=" stroke:none;fill-rule:nonzero;fill:white;fill-opacity:1;" d="M 51.195313 269.78125 C 77.417969 269.78125 89.71875 257.320313 89.71875 232.386719 L 89.71875 176.949219 C 89.71875 167.945313 91.753906 165.445313 100.597656 165.296875 L 100.597656 158.660156 L 65.722656 158.660156 L 65.722656 165.296875 C 75.523438 165.445313 77.875 167.945313 77.875 176.949219 L 77.875 232.230469 C 77.875 251.371094 70.441406 258.445313 55 258.445313 C 37.75 258.445313 31.574219 250.863281 31.574219 231.445313 L 31.574219 176.949219 C 31.574219 167.945313 33.785156 165.445313 43.777344 165.296875 L 43.777344 158.660156 L 0 158.660156 L 0 165.296875 C 9.019531 165.445313 11.265625 167.945313 11.265625 176.949219 L 11.265625 233.324219 C 11.265625 258.125 23.882813 269.78125 51.195313 269.78125 "/>
</g>
</svg>
