<?xml version="1.0" encoding="UTF-8" standalone="no"?>
<svg
   class="logo_svg_uni"
   version="1.1"
   id="svg38"
   sodipodi:docname="trier.svg"
   width="18971"
   height="3507"
   inkscape:version="1.1 (ce6663b3b7, 2021-05-25)"
   xmlns:inkscape="http://www.inkscape.org/namespaces/inkscape"
   xmlns:sodipodi="http://sodipodi.sourceforge.net/DTD/sodipodi-0.dtd"
   xmlns="http://www.w3.org/2000/svg"
   xmlns:svg="http://www.w3.org/2000/svg"
   xmlns:rdf="http://www.w3.org/1999/02/22-rdf-syntax-ns#"
   xmlns:cc="http://creativecommons.org/ns#"
   xmlns:dc="http://purl.org/dc/elements/1.1/">
  <defs
     id="defs42" />
  <sodipodi:namedview
     id="namedview40"
     pagecolor="#ffffff"
     bordercolor="#666666"
     borderopacity="1.0"
     inkscape:pageshadow="2"
     inkscape:pageopacity="0.0"
     inkscape:pagecheckerboard="0"
     showgrid="false"
     lock-margins="true"
     fit-margin-top="500"
     fit-margin-left="500"
     fit-margin-right="500"
     fit-margin-bottom="500"
     inkscape:zoom="0.046403883"
     inkscape:cx="7854.9461"
     inkscape:cy="1864.0681"
     inkscape:window-width="2560"
     inkscape:window-height="1376"
     inkscape:window-x="0"
     inkscape:window-y="0"
     inkscape:window-maximized="1"
     inkscape:current-layer="svg38"
     inkscape:snap-bbox="true"
     inkscape:snap-page="true" />
  <title
     id="title2">Universität Trier</title>
  <rect
     style="fill:#ffffff;stroke-width:3.77953;stroke-linecap:round;stroke-linejoin:round;paint-order:stroke fill markers;stop-color:#000000"
     id="rect861"
     width="18971"
     height="3507"
     x="0"
     y="0" />
  <path
     fill="#2b2a29"
     d="M 3861,2492 V 1302 h -275 v 1111 c 0,220 -98,337 -299,337 -203,0 -294,-84 -294,-337 V 1302 h -277 v 1192 c 0,265 136,490 571,490 363,0 574,-189 574,-492 z"
     id="path4" />
  <path
     fill="#2b2a29"
     d="m 5168,2956 v -903 c 0,-222 -129,-335 -315,-335 -129,0 -241,57 -370,167 0,-65 -14,-117 -43,-172 l -239,67 c 33,86 45,160 45,287 v 889 h 258 v -877 c 79,-79 189,-136 265,-136 100,0 139,45 139,210 v 803 z"
     id="path6" />
  <path
     fill="#2b2a29"
     d="m 5654,1568 c 98,0 177,-79 177,-174 0,-100 -79,-177 -172,-177 -98,0 -174,79 -174,177 0,96 74,174 170,174 z m 134,1388 V 1718 l -265,48 v 1190 z"
     id="path8" />
  <path
     fill="#2b2a29"
     d="m 7078,1747 h -275 l -201,614 c -45,136 -72,280 -72,280 h -5 c 0,0 -33,-143 -74,-270 l -210,-652 -270,38 435,1204 h 232 z"
     id="path10" />
  <path
     fill="#2b2a29"
     d="m 8162,2423 v -55 c 0,-282 -53,-430 -158,-526 -103,-93 -213,-124 -332,-124 -153,0 -272,50 -370,162 -105,119 -151,260 -151,473 0,387 215,633 557,633 162,0 308,-53 435,-160 l -103,-160 c -91,79 -189,119 -301,119 -237,0 -299,-177 -299,-344 v -19 h 722 z m -272,-194 h -447 c 0,-196 81,-313 229,-313 131,0 217,117 217,313 z"
     id="path12" />
  <path
     fill="#2b2a29"
     d="m 9093,1732 c -31,-14 -55,-19 -93,-19 -117,0 -213,62 -308,194 0,-67 -17,-136 -45,-191 l -241,62 c 26,74 43,172 43,325 v 853 h 263 v -817 c 24,-98 117,-179 227,-179 29,0 48,7 74,17 l 81,-244 z"
     id="path14" />
  <path
     fill="#2b2a29"
     d="m 10078,2578 c 0,-141 -65,-275 -308,-337 l -151,-38 c -122,-31 -162,-69 -162,-143 0,-93 72,-155 184,-155 96,0 184,29 296,88 l 86,-182 c -103,-55 -234,-105 -399,-105 -268,0 -449,158 -449,385 0,170 108,294 289,332 l 146,31 c 136,29 196,76 196,170 0,100 -81,170 -196,170 -136,0 -284,-65 -392,-127 l -93,189 c 155,86 315,134 464,134 292,0 490,-167 490,-411 z"
     id="path16" />
  <path
     fill="#2b2a29"
     d="m 10474,1568 c 98,0 177,-79 177,-174 0,-100 -79,-177 -172,-177 -98,0 -174,79 -174,177 0,96 74,174 170,174 z m 134,1388 V 1718 l -265,48 v 1190 z"
     id="path18" />
  <path
     fill="#2b2a29"
     d="m 11286,1384 -270,65 c -12,91 -12,196 -12,299 h -134 v 182 h 134 v 748 c 0,172 81,311 315,311 81,0 158,-17 237,-53 l -33,-158 c -45,17 -76,24 -112,24 -115,0 -148,-43 -148,-194 v -679 h 222 l 69,-182 h -289 c 0,-119 9,-265 21,-363 z"
     id="path20" />
  <path
     fill="#2b2a29"
     d="m 12748,2839 c -93,-65 -108,-117 -105,-280 l 5,-346 c 2,-179 2,-244 -19,-296 -53,-131 -179,-201 -368,-201 -182,0 -332,50 -514,165 l 117,189 c 0,0 186,-139 361,-139 143,0 167,74 167,213 v 65 h -81 c -387,0 -597,141 -597,421 0,210 124,363 401,363 129,0 234,-38 332,-148 29,76 91,134 165,162 l 136,-167 z m -361,-452 -5,287 c -53,76 -134,127 -217,127 -105,0 -167,-72 -167,-186 0,-153 79,-229 342,-229 12,0 48,2 48,2 z m 237,-937 c 0,-93 -74,-167 -160,-167 -91,0 -162,74 -162,167 0,91 72,167 160,167 88,0 163,-76 163,-167 z m -502,0 c 0,-93 -72,-167 -160,-167 -88,0 -160,74 -160,167 0,91 72,167 160,167 88,0 160,-76 160,-167 z"
     id="path22" />
  <path
     fill="#2b2a29"
     d="m 13330,1384 -270,65 c -12,91 -12,196 -12,299 h -134 v 182 h 134 v 748 c 0,172 81,311 315,311 81,0 158,-17 237,-53 l -33,-158 c -45,17 -76,24 -112,24 -115,0 -148,-43 -148,-194 v -679 h 222 l 69,-182 h -289 c 0,-119 10,-265 22,-363 z"
     id="path24" />
  <polygon
     fill="#005e9c"
     points="14258,2456 14447,2456 14447,982 14892,982 14904,817 13819,817 13819,982 14258,982 "
     id="polygon26"
     transform="translate(500,500)" />
  <path
     fill="#0069b3"
     d="m 15464,2038 v 918 h 186 v -746 c 0,-98 14,-134 69,-189 55,-55 127,-86 198,-86 19,0 41,5 53,10 l 76,-203 c 0,0 -33,-12 -65,-12 -122,0 -249,76 -335,198 7,-100 -38,-194 -38,-194 l -186,50 c 0,0 41,79 41,253 z"
     id="path28" />
  <path
     fill="#0069b3"
     d="m 16177,2956 h 194 V 1740 l -194,31 z m -45,-1556 c 0,79 65,143 146,143 81,0 146,-65 146,-146 0,-81 -65,-146 -146,-146 -81,0 -146,67 -146,148 z"
     id="path30" />
  <path
     fill="#0069b3"
     d="m 17208,2827 c -119,0 -229,-43 -296,-146 -41,-62 -55,-148 -55,-260 v -29 h 743 v -26 c -5,-284 -33,-397 -136,-502 -81,-84 -194,-129 -323,-129 -143,0 -260,53 -356,165 -100,119 -143,249 -143,449 0,394 198,633 528,633 153,0 296,-53 401,-148 l -72,-119 c -84,76 -177,112 -292,112 z m -76,-946 c 91,0 174,41 215,105 36,57 53,136 55,265 h -545 c 10,-246 105,-370 275,-370 z"
     id="path32" />
  <path
     fill="#0069b3"
     d="m 17889,2038 v 918 h 186 v -746 c 0,-98 14,-134 69,-189 55,-55 127,-86 198,-86 19,0 41,5 53,10 l 76,-203 c 0,0 -33,-12 -65,-12 -122,0 -249,76 -335,198 7,-100 -38,-194 -38,-194 l -186,50 c 0,0 41,79 41,253 z"
     id="path34" />
  <path
     fill="#005e9c"
     d="M 1231,2678 C 786,2378 500,1878 500,1283 h 731 z m 865,296 c -226,-17 -438,-74 -630,-163 V 1074 H 500 V 500 h 1596 z"
     id="path36" />
  <metadata
     id="metadata859">
    <rdf:RDF>
      <cc:Work
         rdf:about="">
        <dc:title>Universität Trier</dc:title>
      </cc:Work>
    </rdf:RDF>
  </metadata>
</svg>
